<svg xmlns="http://www.w3.org/2000/svg" xmlns:xlink="http://www.w3.org/1999/xlink" width="344" zoomAndPan="magnify" viewBox="0 0 258 155.999997" height="208" preserveAspectRatio="xMidYMid meet" version="1.0"><defs><g/><clipPath id="53bf0edbc3"><path d="M 1 1 L 256 1 L 256 106.5 L 1 106.5 Z M 1 1 " clip-rule="nonzero"/></clipPath><clipPath id="12940175cf"><path d="M 204.792969 80.886719 L 256 80.886719 L 256 132 L 204.792969 132 Z M 204.792969 80.886719 " clip-rule="nonzero"/></clipPath><clipPath id="2f9fd7d64a"><path d="M 1 78.59375 L 49.5 78.59375 L 49.5 132 L 1 132 Z M 1 78.59375 " clip-rule="nonzero"/></clipPath></defs><g fill="#0390a0" fill-opacity="1"><g transform="translate(54.310304, 128.820587)"><g><path d="M 0 -15 L 10.703125 -15 L 10.703125 -13.3125 C 10.035156 -13.46875 9.382812 -13.625 8.75 -13.78125 C 8.125 -13.9375 7.472656 -14.082031 6.796875 -14.21875 C 6.117188 -14.351562 5.363281 -14.460938 4.53125 -14.546875 C 3.695312 -14.640625 2.738281 -14.6875 1.65625 -14.6875 L 1.65625 -8.546875 C 2.007812 -8.972656 2.429688 -9.265625 2.921875 -9.421875 C 3.410156 -9.578125 3.90625 -9.601562 4.40625 -9.5 C 4.738281 -9.4375 5.0625 -9.328125 5.375 -9.171875 C 5.695312 -9.023438 6.015625 -8.882812 6.328125 -8.75 C 6.648438 -8.613281 6.988281 -8.515625 7.34375 -8.453125 C 7.644531 -8.398438 7.953125 -8.40625 8.265625 -8.46875 C 8.578125 -8.539062 8.773438 -8.785156 8.859375 -9.203125 C 9.015625 -8.484375 8.960938 -7.925781 8.703125 -7.53125 C 8.441406 -7.132812 8.066406 -6.90625 7.578125 -6.84375 C 7.097656 -6.789062 6.640625 -6.851562 6.203125 -7.03125 C 5.773438 -7.21875 5.359375 -7.445312 4.953125 -7.71875 C 4.554688 -8 4.164062 -8.234375 3.78125 -8.421875 C 3.394531 -8.617188 3.007812 -8.695312 2.625 -8.65625 C 2.382812 -8.632812 2.160156 -8.550781 1.953125 -8.40625 C 1.753906 -8.257812 1.65625 -8.035156 1.65625 -7.734375 L 1.65625 0 L 0 0 Z M 0 -15 "/></g></g></g><g fill="#0390a0" fill-opacity="1"><g transform="translate(66.745205, 128.820587)"><g><path d="M 6.640625 -15 L 13.359375 0 L 11.546875 0 L 9.0625 -5.5 C 9.0625 -4.800781 8.953125 -4.125 8.734375 -3.46875 C 8.515625 -2.8125 8.191406 -2.222656 7.765625 -1.703125 C 7.335938 -1.179688 6.804688 -0.765625 6.171875 -0.453125 C 5.546875 -0.148438 4.828125 0 4.015625 0 C 3.140625 0 2.382812 -0.1875 1.75 -0.5625 C 1.125 -0.945312 0.660156 -1.46875 0.359375 -2.125 C 0.0546875 -2.789062 -0.046875 -3.539062 0.046875 -4.375 C 0.109375 -4.988281 0.257812 -5.585938 0.5 -6.171875 C 0.75 -6.753906 1.039062 -7.316406 1.375 -7.859375 C 1.707031 -8.410156 2.039062 -8.929688 2.375 -9.421875 C 2.789062 -10.035156 3.160156 -10.617188 3.484375 -11.171875 C 3.816406 -11.734375 4.09375 -12.320312 4.3125 -12.9375 C 4.539062 -13.5625 4.703125 -14.25 4.796875 -15 Z M 8.59375 -6.515625 L 5.046875 -14.453125 C 4.890625 -13.628906 4.648438 -12.847656 4.328125 -12.109375 C 4.003906 -11.367188 3.628906 -10.625 3.203125 -9.875 C 2.910156 -9.34375 2.601562 -8.773438 2.28125 -8.171875 C 1.957031 -7.566406 1.695312 -6.945312 1.5 -6.3125 C 1.300781 -5.675781 1.234375 -5.039062 1.296875 -4.40625 C 1.367188 -3.75 1.578125 -3.171875 1.921875 -2.671875 C 2.273438 -2.171875 2.742188 -1.804688 3.328125 -1.578125 C 3.921875 -1.347656 4.601562 -1.300781 5.375 -1.4375 C 5.875 -1.519531 6.359375 -1.738281 6.828125 -2.09375 C 7.304688 -2.457031 7.710938 -2.890625 8.046875 -3.390625 C 8.390625 -3.898438 8.617188 -4.425781 8.734375 -4.96875 C 8.859375 -5.519531 8.8125 -6.035156 8.59375 -6.515625 Z M 8.59375 -6.515625 "/></g></g></g><g fill="#0390a0" fill-opacity="1"><g transform="translate(81.239286, 128.820587)"><g><path d="M 0 -15 L 7.265625 -15 C 7.960938 -15 8.625 -14.847656 9.25 -14.546875 C 9.875 -14.242188 10.378906 -13.8125 10.765625 -13.25 C 11.148438 -12.695312 11.34375 -12.015625 11.34375 -11.203125 C 11.34375 -10.265625 11.070312 -9.488281 10.53125 -8.875 C 10 -8.257812 9.34375 -7.84375 8.5625 -7.625 C 9.132812 -7.507812 9.648438 -7.28125 10.109375 -6.9375 C 10.578125 -6.601562 10.953125 -6.175781 11.234375 -5.65625 C 11.515625 -5.132812 11.65625 -4.535156 11.65625 -3.859375 C 11.65625 -3.054688 11.457031 -2.363281 11.0625 -1.78125 C 10.675781 -1.207031 10.160156 -0.765625 9.515625 -0.453125 C 8.878906 -0.148438 8.203125 0 7.484375 0 L 0 0 Z M 6.4375 -7.4375 L 1.65625 -7.4375 L 1.65625 -0.3125 L 6.453125 -0.3125 C 7.640625 -0.3125 8.523438 -0.640625 9.109375 -1.296875 C 9.703125 -1.953125 10 -2.804688 10 -3.859375 C 10 -4.566406 9.828125 -5.191406 9.484375 -5.734375 C 9.148438 -6.273438 8.707031 -6.691406 8.15625 -6.984375 C 7.613281 -7.285156 7.039062 -7.4375 6.4375 -7.4375 Z M 1.65625 -14.6875 L 1.65625 -7.734375 L 6.125 -7.734375 C 7.320312 -7.734375 8.210938 -8.050781 8.796875 -8.6875 C 9.390625 -9.320312 9.6875 -10.160156 9.6875 -11.203125 C 9.6875 -11.910156 9.507812 -12.519531 9.15625 -13.03125 C 8.8125 -13.550781 8.367188 -13.957031 7.828125 -14.25 C 7.285156 -14.539062 6.707031 -14.6875 6.09375 -14.6875 Z M 1.65625 -14.6875 "/></g></g></g><g fill="#0390a0" fill-opacity="1"><g transform="translate(94.673783, 128.820587)"><g><path d="M 0 -15 L 7.234375 -15 C 7.953125 -15 8.625 -14.84375 9.25 -14.53125 C 9.875 -14.21875 10.378906 -13.773438 10.765625 -13.203125 C 11.148438 -12.628906 11.34375 -11.9375 11.34375 -11.125 C 11.34375 -10.25 11.128906 -9.523438 10.703125 -8.953125 C 10.273438 -8.378906 9.71875 -7.953125 9.03125 -7.671875 C 8.34375 -7.398438 7.597656 -7.265625 6.796875 -7.265625 C 7.117188 -7.117188 7.382812 -6.882812 7.59375 -6.5625 C 8.007812 -6.007812 8.378906 -5.410156 8.703125 -4.765625 C 9.035156 -4.128906 9.347656 -3.5 9.640625 -2.875 C 9.941406 -2.25 10.25 -1.6875 10.5625 -1.1875 C 10.65625 -1.03125 10.796875 -0.816406 10.984375 -0.546875 C 11.179688 -0.285156 11.359375 -0.101562 11.515625 0 L 9.984375 0 C 9.703125 0 9.492188 -0.0390625 9.359375 -0.125 C 9.222656 -0.21875 9.109375 -0.34375 9.015625 -0.5 C 8.515625 -1.4375 8.050781 -2.34375 7.625 -3.21875 C 7.207031 -4.101562 6.695312 -5.007812 6.09375 -5.9375 C 5.257812 -7.21875 4.273438 -7.390625 3.140625 -6.453125 L 2.984375 -6.640625 C 3.359375 -6.960938 3.71875 -7.179688 4.0625 -7.296875 C 4.414062 -7.421875 4.785156 -7.492188 5.171875 -7.515625 C 5.566406 -7.535156 5.984375 -7.554688 6.421875 -7.578125 C 7.523438 -7.648438 8.335938 -8.003906 8.859375 -8.640625 C 9.390625 -9.273438 9.65625 -10.101562 9.65625 -11.125 C 9.65625 -11.832031 9.484375 -12.453125 9.140625 -12.984375 C 8.804688 -13.515625 8.367188 -13.929688 7.828125 -14.234375 C 7.285156 -14.535156 6.707031 -14.6875 6.09375 -14.6875 L 1.65625 -14.6875 L 1.65625 0 L 0 0 Z M 0 -15 "/></g></g></g><g fill="#0390a0" fill-opacity="1"><g transform="translate(107.588488, 128.820587)"><g><path d="M 0 0 L 0 -15 L 1.65625 -15 L 1.65625 0 Z M 0 0 "/></g></g></g><g fill="#0390a0" fill-opacity="1"><g transform="translate(111.046932, 128.820587)"><g><path d="M 7.5 -15 C 8.039062 -15 8.582031 -14.945312 9.125 -14.84375 C 9.664062 -14.75 10.1875 -14.585938 10.6875 -14.359375 C 11 -14.210938 11.328125 -14.007812 11.671875 -13.75 C 12.015625 -13.5 12.300781 -13.210938 12.53125 -12.890625 C 12.757812 -12.566406 12.875 -12.207031 12.875 -11.8125 C 12.875 -11.363281 12.722656 -10.988281 12.421875 -10.6875 C 12.128906 -10.382812 11.703125 -10.242188 11.140625 -10.265625 C 11.347656 -10.859375 11.394531 -11.421875 11.28125 -11.953125 C 11.175781 -12.492188 10.941406 -12.96875 10.578125 -13.375 C 10.222656 -13.78125 9.773438 -14.097656 9.234375 -14.328125 C 8.703125 -14.566406 8.125 -14.6875 7.5 -14.6875 C 6.695312 -14.6875 5.941406 -14.5 5.234375 -14.125 C 4.535156 -13.75 3.914062 -13.226562 3.375 -12.5625 C 2.832031 -11.90625 2.410156 -11.144531 2.109375 -10.28125 C 1.804688 -9.414062 1.65625 -8.488281 1.65625 -7.5 C 1.65625 -6.582031 1.785156 -5.710938 2.046875 -4.890625 C 2.316406 -4.066406 2.6875 -3.332031 3.15625 -2.6875 C 3.625 -2.050781 4.164062 -1.535156 4.78125 -1.140625 C 5.488281 -0.679688 6.21875 -0.414062 6.96875 -0.34375 C 7.71875 -0.269531 8.457031 -0.351562 9.1875 -0.59375 C 9.914062 -0.832031 10.597656 -1.1875 11.234375 -1.65625 C 11.867188 -2.132812 12.414062 -2.695312 12.875 -3.34375 L 12.875 -1.65625 C 12.195312 -1.125 11.394531 -0.710938 10.46875 -0.421875 C 9.539062 -0.140625 8.550781 0 7.5 0 C 6.46875 0 5.5 -0.191406 4.59375 -0.578125 C 3.6875 -0.960938 2.890625 -1.5 2.203125 -2.1875 C 1.523438 -2.875 0.988281 -3.671875 0.59375 -4.578125 C 0.195312 -5.484375 0 -6.457031 0 -7.5 C 0 -8.539062 0.191406 -9.515625 0.578125 -10.421875 C 0.960938 -11.328125 1.5 -12.125 2.1875 -12.8125 C 2.875 -13.5 3.671875 -14.035156 4.578125 -14.421875 C 5.484375 -14.804688 6.457031 -15 7.5 -15 Z M 7.5 -15 "/></g></g></g><g fill="#0390a0" fill-opacity="1"><g transform="translate(125.720952, 128.820587)"><g/></g></g><g fill="#0390a0" fill-opacity="1"><g transform="translate(130.099032, 128.820587)"><g><path d="M 0 -15 L 10.703125 -15 L 10.703125 -13.3125 C 10.035156 -13.46875 9.382812 -13.625 8.75 -13.78125 C 8.125 -13.9375 7.472656 -14.082031 6.796875 -14.21875 C 6.117188 -14.351562 5.363281 -14.460938 4.53125 -14.546875 C 3.695312 -14.640625 2.738281 -14.6875 1.65625 -14.6875 L 1.65625 -8.546875 C 2.007812 -8.972656 2.429688 -9.265625 2.921875 -9.421875 C 3.410156 -9.578125 3.90625 -9.601562 4.40625 -9.5 C 4.738281 -9.4375 5.0625 -9.328125 5.375 -9.171875 C 5.695312 -9.023438 6.015625 -8.882812 6.328125 -8.75 C 6.648438 -8.613281 6.988281 -8.515625 7.34375 -8.453125 C 7.644531 -8.398438 7.953125 -8.40625 8.265625 -8.46875 C 8.578125 -8.539062 8.773438 -8.785156 8.859375 -9.203125 C 9.015625 -8.484375 8.960938 -7.925781 8.703125 -7.53125 C 8.441406 -7.132812 8.066406 -6.90625 7.578125 -6.84375 C 7.097656 -6.789062 6.640625 -6.851562 6.203125 -7.03125 C 5.773438 -7.21875 5.359375 -7.445312 4.953125 -7.71875 C 4.554688 -8 4.164062 -8.234375 3.78125 -8.421875 C 3.394531 -8.617188 3.007812 -8.695312 2.625 -8.65625 C 2.382812 -8.632812 2.160156 -8.550781 1.953125 -8.40625 C 1.753906 -8.257812 1.65625 -8.035156 1.65625 -7.734375 L 1.65625 0 L 0 0 Z M 0 -15 "/></g></g></g><g fill="#0390a0" fill-opacity="1"><g transform="translate(142.533935, 128.820587)"><g><path d="M 10 -15 L 11.65625 -15 L 11.65625 0 L 10 0 L 10 -2.71875 C 9.476562 -2.15625 8.867188 -1.671875 8.171875 -1.265625 C 7.484375 -0.859375 6.78125 -0.546875 6.0625 -0.328125 C 5.34375 -0.109375 4.671875 0 4.046875 0 C 2.679688 0 1.664062 -0.289062 1 -0.875 C 0.332031 -1.46875 0 -2.445312 0 -3.8125 L 0 -15 L 1.65625 -15 L 1.65625 -3.8125 C 1.65625 -2.96875 1.804688 -2.296875 2.109375 -1.796875 C 2.410156 -1.304688 2.816406 -0.96875 3.328125 -0.78125 C 3.835938 -0.59375 4.398438 -0.53125 5.015625 -0.59375 C 5.773438 -0.6875 6.5625 -0.921875 7.375 -1.296875 C 8.1875 -1.679688 8.898438 -2.15625 9.515625 -2.71875 C 9.835938 -3.03125 10 -3.390625 10 -3.796875 Z M 10 -15 "/></g></g></g><g fill="#0390a0" fill-opacity="1"><g transform="translate(155.968429, 128.820587)"><g><path d="M 5.234375 0 C 4.691406 0 4.144531 -0.046875 3.59375 -0.140625 C 3.050781 -0.242188 2.535156 -0.410156 2.046875 -0.640625 C 1.722656 -0.785156 1.390625 -0.976562 1.046875 -1.21875 C 0.710938 -1.46875 0.429688 -1.757812 0.203125 -2.09375 C -0.0234375 -2.425781 -0.140625 -2.789062 -0.140625 -3.1875 C -0.140625 -3.625 0.00390625 -3.988281 0.296875 -4.28125 C 0.585938 -4.582031 1.015625 -4.734375 1.578125 -4.734375 C 1.367188 -4.109375 1.328125 -3.519531 1.453125 -2.96875 C 1.578125 -2.414062 1.828125 -1.941406 2.203125 -1.546875 C 2.628906 -1.085938 3.164062 -0.757812 3.8125 -0.5625 C 4.46875 -0.363281 5.15625 -0.28125 5.875 -0.3125 C 6.59375 -0.34375 7.273438 -0.476562 7.921875 -0.71875 C 8.578125 -0.957031 9.109375 -1.28125 9.515625 -1.6875 C 9.960938 -2.125 10.234375 -2.582031 10.328125 -3.0625 C 10.429688 -3.539062 10.390625 -4.003906 10.203125 -4.453125 C 10.023438 -4.910156 9.734375 -5.316406 9.328125 -5.671875 C 8.921875 -6.035156 8.4375 -6.316406 7.875 -6.515625 C 7.332031 -6.710938 6.726562 -6.867188 6.0625 -6.984375 C 5.40625 -7.097656 4.742188 -7.222656 4.078125 -7.359375 C 3.410156 -7.503906 2.785156 -7.707031 2.203125 -7.96875 C 1.628906 -8.226562 1.140625 -8.597656 0.734375 -9.078125 C 0.328125 -9.585938 0.0859375 -10.164062 0.015625 -10.8125 C -0.046875 -11.46875 0.0664062 -12.078125 0.359375 -12.640625 C 0.597656 -13.117188 0.929688 -13.507812 1.359375 -13.8125 C 1.796875 -14.125 2.273438 -14.363281 2.796875 -14.53125 C 3.328125 -14.707031 3.867188 -14.828125 4.421875 -14.890625 C 4.984375 -14.960938 5.503906 -15 5.984375 -15 C 6.523438 -15 7.066406 -14.945312 7.609375 -14.84375 C 8.160156 -14.75 8.6875 -14.585938 9.1875 -14.359375 C 9.5 -14.210938 9.828125 -14.007812 10.171875 -13.75 C 10.515625 -13.5 10.796875 -13.210938 11.015625 -12.890625 C 11.242188 -12.566406 11.359375 -12.207031 11.359375 -11.8125 C 11.359375 -11.363281 11.210938 -10.988281 10.921875 -10.6875 C 10.628906 -10.382812 10.203125 -10.242188 9.640625 -10.265625 C 9.835938 -10.816406 9.894531 -11.347656 9.8125 -11.859375 C 9.726562 -12.367188 9.53125 -12.816406 9.21875 -13.203125 C 8.882812 -13.648438 8.429688 -13.992188 7.859375 -14.234375 C 7.285156 -14.472656 6.664062 -14.613281 6 -14.65625 C 5.34375 -14.707031 4.707031 -14.660156 4.09375 -14.515625 C 3.644531 -14.421875 3.203125 -14.257812 2.765625 -14.03125 C 2.335938 -13.800781 1.972656 -13.503906 1.671875 -13.140625 C 1.367188 -12.773438 1.191406 -12.34375 1.140625 -11.84375 C 1.085938 -11.28125 1.207031 -10.816406 1.5 -10.453125 C 1.789062 -10.085938 2.179688 -9.789062 2.671875 -9.5625 C 3.160156 -9.34375 3.65625 -9.171875 4.15625 -9.046875 C 4.78125 -8.890625 5.453125 -8.753906 6.171875 -8.640625 C 6.898438 -8.535156 7.601562 -8.378906 8.28125 -8.171875 C 8.96875 -7.972656 9.566406 -7.671875 10.078125 -7.265625 C 10.566406 -6.859375 10.9375 -6.382812 11.1875 -5.84375 C 11.445312 -5.3125 11.570312 -4.753906 11.5625 -4.171875 C 11.550781 -3.585938 11.40625 -3.03125 11.125 -2.5 C 10.84375 -1.96875 10.421875 -1.515625 9.859375 -1.140625 C 9.203125 -0.703125 8.453125 -0.398438 7.609375 -0.234375 C 6.765625 -0.078125 5.972656 0 5.234375 0 Z M 5.234375 0 "/></g></g></g><g fill="#0390a0" fill-opacity="1"><g transform="translate(169.242991, 128.820587)"><g><path d="M 0 0 L 0 -15 L 1.65625 -15 L 1.65625 0 Z M 0 0 "/></g></g></g><g fill="#0390a0" fill-opacity="1"><g transform="translate(172.701429, 128.820587)"><g><path d="M 7.265625 -15 C 8.265625 -15 9.203125 -14.804688 10.078125 -14.421875 C 10.960938 -14.035156 11.738281 -13.5 12.40625 -12.8125 C 13.070312 -12.125 13.585938 -11.328125 13.953125 -10.421875 C 14.328125 -9.515625 14.515625 -8.539062 14.515625 -7.5 C 14.515625 -6.457031 14.328125 -5.484375 13.953125 -4.578125 C 13.585938 -3.671875 13.070312 -2.875 12.40625 -2.1875 C 11.738281 -1.5 10.960938 -0.960938 10.078125 -0.578125 C 9.203125 -0.191406 8.265625 0 7.265625 0 C 6.265625 0 5.320312 -0.191406 4.4375 -0.578125 C 3.5625 -0.960938 2.789062 -1.5 2.125 -2.1875 C 1.46875 -2.875 0.945312 -3.671875 0.5625 -4.578125 C 0.1875 -5.484375 0 -6.457031 0 -7.5 C 0 -8.539062 0.1875 -9.515625 0.5625 -10.421875 C 0.945312 -11.328125 1.46875 -12.125 2.125 -12.8125 C 2.789062 -13.5 3.5625 -14.035156 4.4375 -14.421875 C 5.320312 -14.804688 6.265625 -15 7.265625 -15 Z M 7.265625 -14.6875 C 6.484375 -14.6875 5.753906 -14.5 5.078125 -14.125 C 4.410156 -13.75 3.820312 -13.226562 3.3125 -12.5625 C 2.800781 -11.90625 2.394531 -11.144531 2.09375 -10.28125 C 1.800781 -9.414062 1.65625 -8.488281 1.65625 -7.5 C 1.65625 -6.5 1.800781 -5.566406 2.09375 -4.703125 C 2.394531 -3.835938 2.800781 -3.070312 3.3125 -2.40625 C 3.820312 -1.75 4.410156 -1.234375 5.078125 -0.859375 C 5.753906 -0.484375 6.484375 -0.296875 7.265625 -0.296875 C 8.035156 -0.296875 8.757812 -0.484375 9.4375 -0.859375 C 10.113281 -1.234375 10.707031 -1.75 11.21875 -2.40625 C 11.738281 -3.070312 12.140625 -3.835938 12.421875 -4.703125 C 12.710938 -5.566406 12.859375 -6.5 12.859375 -7.5 C 12.859375 -8.488281 12.710938 -9.414062 12.421875 -10.28125 C 12.140625 -11.144531 11.738281 -11.90625 11.21875 -12.5625 C 10.707031 -13.226562 10.113281 -13.75 9.4375 -14.125 C 8.757812 -14.5 8.035156 -14.6875 7.265625 -14.6875 Z M 7.265625 -14.6875 "/></g></g></g><g fill="#0390a0" fill-opacity="1"><g transform="translate(189.014786, 128.820587)"><g><path d="M 11.65625 0 L 11.359375 0 C 11.347656 -0.65625 11.140625 -1.390625 10.734375 -2.203125 C 10.335938 -3.023438 9.804688 -3.894531 9.140625 -4.8125 C 8.484375 -5.738281 7.757812 -6.671875 6.96875 -7.609375 C 6.175781 -8.546875 5.363281 -9.453125 4.53125 -10.328125 C 3.707031 -11.210938 2.925781 -12.03125 2.1875 -12.78125 C 1.445312 -13.53125 0.816406 -14.164062 0.296875 -14.6875 C 0.304688 -12.9375 0.351562 -11.382812 0.4375 -10.03125 C 0.53125 -8.6875 0.644531 -7.460938 0.78125 -6.359375 C 0.914062 -5.253906 1.0625 -4.191406 1.21875 -3.171875 C 1.375 -2.148438 1.519531 -1.09375 1.65625 0 L 0 0 L 0 -15 L 2.21875 -15 C 3.21875 -13.988281 4.25 -12.929688 5.3125 -11.828125 C 6.382812 -10.734375 7.429688 -9.597656 8.453125 -8.421875 C 9.472656 -7.242188 10.394531 -6.03125 11.21875 -4.78125 C 11.132812 -6.175781 11.023438 -7.429688 10.890625 -8.546875 C 10.753906 -9.671875 10.609375 -10.75 10.453125 -11.78125 C 10.296875 -12.820312 10.144531 -13.894531 10 -15 L 11.65625 -15 Z M 11.65625 0 "/></g></g></g><g clip-path="url(#53bf0edbc3)"><path fill="#0390a0" d="M 251.71875 115.8125 C 247.476562 109.496094 238.410156 105.195312 233.289062 100.734375 C 227.304688 99.386719 222.136719 96.398438 216.953125 94.03125 C 211.480469 91.53125 206.070312 89.492188 200.617188 87.332031 C 184.054688 80.769531 168.265625 73.339844 157.058594 61.78125 C 153.179688 57.78125 149.804688 52.859375 147.425781 48.378906 C 145.980469 45.65625 144.871094 40.800781 142.816406 39.582031 C 139.320312 37.507812 132.882812 39.371094 129.414062 37.90625 C 132.660156 26.320312 119.957031 22.15625 120.617188 12.773438 C 121.257812 3.710938 131.78125 3.914062 136.113281 9.003906 C 137.523438 10.660156 138.375 15.136719 142.398438 13.613281 C 143.785156 11.238281 140.910156 8.621094 139.464844 6.910156 C 137.664062 4.777344 135.484375 2.632812 132.765625 1.886719 C 125.789062 -0.0273438 117.589844 3.800781 116.847656 11.9375 C 115.753906 23.914062 127.597656 24.546875 126.0625 37.90625 C 120.792969 39.277344 114.367188 37.609375 111.402344 39.582031 C 109.582031 40.792969 106.886719 48.355469 105.121094 51.308594 C 102.769531 55.246094 99.613281 59.570312 97.160156 62.199219 C 84.1875 76.105469 64.101562 81.605469 45.222656 89.84375 C 38.460938 92.796875 31.597656 96.3125 24.699219 99.898438 C 15.398438 104.730469 5.117188 109.429688 2.082031 118.746094 C 1.265625 121.246094 -0.0078125 127.457031 3.339844 130.472656 C 8.160156 131.785156 12.691406 124.957031 18 123.769531 C 20.621094 123.183594 25.429688 123.769531 29.726562 123.769531 L 44.386719 123.769531 C 90.625 123.769531 154.726562 124.191406 210.671875 124.191406 C 220.246094 124.191406 231.113281 123.054688 238.316406 124.609375 C 243.570312 125.742188 247.082031 132.367188 253.394531 131.726562 C 257.222656 126.503906 254.378906 119.777344 251.71875 115.8125 Z M 139.046875 10.261719 C 136.675781 7.324219 134.695312 4.003906 129.832031 3.558594 C 134.390625 2.632812 137.519531 6.757812 139.046875 10.261719 Z M 126.0625 3.140625 C 126.933594 2.90625 129.261719 2.945312 129.414062 3.140625 C 129.824219 3.6875 127.277344 3.390625 126.898438 3.558594 C 125.378906 4.242188 121.117188 6.148438 119.777344 8.167969 C 121.1875 5.347656 124.394531 3.589844 126.0625 3.140625 Z M 118.941406 9.003906 C 120.628906 9.171875 118.628906 12.109375 118.523438 13.195312 C 120.832031 22.175781 129.039062 27.078125 128.15625 37.90625 C 126.09375 36.066406 127.324219 34.699219 126.898438 32.460938 C 125.296875 24.054688 115.574219 20.007812 118.941406 9.003906 Z M 142.398438 40.839844 C 147.472656 50.710938 151.738281 59.214844 159.570312 66.386719 C 171.9375 77.710938 193.28125 84.828125 210.671875 92.355469 C 218.6875 95.828125 224.40625 98.921875 232.453125 101.992188 C 239.574219 107.429688 248.523438 111.050781 251.300781 120.839844 C 233.101562 94.078125 184.148438 90.976562 159.570312 69.738281 C 151.539062 62.800781 146.71875 54.429688 141.5625 43.769531 C 134.589844 41.375 123.46875 39.757812 116.011719 42.511719 C 111.417969 44.210938 111.414062 48.664062 108.472656 51.726562 C 106.773438 51.097656 109.703125 48.351562 110.148438 47.121094 C 108.847656 35.664062 132.457031 38.886719 142.398438 40.839844 Z M 12.972656 107.4375 C 41.796875 87.589844 89.488281 83.03125 106.796875 50.890625 C 108.132812 52.652344 105.660156 54.519531 104.699219 56.335938 C 106.59375 55.996094 106.839844 54.007812 107.632812 52.566406 C 99.90625 71.140625 81.265625 78.484375 61.140625 86.910156 C 51.898438 90.78125 42.421875 94.933594 32.660156 99.476562 C 21.433594 104.699219 8.734375 109.988281 4.175781 121.257812 C 3.960938 115.195312 8.828125 110.289062 12.972656 107.4375 Z M 10.460938 125.867188 C 10.222656 126.609375 9.296875 125.925781 10.039062 125.867188 C 33.839844 112.667969 57.054688 98.882812 81.246094 86.074219 C 58.042969 99.730469 34.371094 112.917969 10.460938 125.867188 Z M 126.898438 62.199219 C 130.816406 63.15625 132.320312 63.675781 137.667969 67.203125 C 141.769531 69.90625 145.082031 71.910156 148.679688 73.925781 C 174.738281 88.519531 202.511719 103.332031 227.84375 119.164062 C 205.734375 118.421875 177.875 119.105469 154.597656 119.21875 L 141.078125 119.109375 C 109.171875 118.273438 70.503906 118.574219 27.628906 118.324219 C 60.144531 99.042969 94.21875 81.316406 126.898438 62.199219 Z M 81.664062 86.074219 C 85.132812 83.679688 88.808594 81.488281 92.972656 79.792969 C 91.554688 80.921875 85.246094 84.324219 81.664062 86.074219 Z M 93.8125 79.371094 C 97.046875 76.886719 100.824219 74.9375 104.699219 73.089844 C 101.453125 75.566406 97.613281 77.449219 93.8125 79.371094 Z M 23.863281 122.09375 C 25.820312 122.316406 32.109375 120.480469 34.332031 122.511719 C 31.660156 122.027344 25.410156 123.167969 23.863281 122.09375 Z M 34.753906 121.675781 C 40.316406 121.957031 42.785156 121.863281 47.316406 122.09375 C 44.21875 122.535156 37.160156 123.320312 34.753906 121.675781 Z M 48.15625 122.09375 L 50.667969 122.09375 C 82.0625 121.820312 115.621094 122.664062 147.84375 121.675781 C 115.578125 121.464844 70.8125 121.835938 23.863281 120.839844 C 26.964844 118.664062 35.816406 118.984375 42.710938 119.164062 C 62.695312 119.683594 91.328125 119.816406 118.929688 119.53125 L 119.179688 119.648438 L 169.695312 120.066406 L 169.625 119.941406 C 183.921875 120.164062 197.9375 120.128906 210.25 120 C 217.410156 119.925781 225.066406 119.070312 231.613281 121.257812 C 200.335938 122.128906 175.851562 121.132812 148.261719 121.675781 C 178.636719 122.773438 210.824219 121.582031 233.707031 122.511719 C 164.738281 123.160156 107.789062 123.28125 48.15625 122.09375 Z M 252.136719 129.636719 C 217.902344 110.398438 184.027344 90.796875 149.9375 71.414062 L 147.003906 71.414062 C 141.195312 67.171875 134.234375 64.078125 127.738281 60.523438 C 120.714844 63.972656 114.273438 68 107.632812 71.832031 C 97.378906 74.261719 87.589844 81.414062 78.730469 86.492188 C 53.757812 100.804688 28.242188 114.210938 3.339844 127.960938 C 7.28125 109.625 27.671875 101.757812 43.96875 94.871094 C 57.238281 89.261719 70.765625 84.375 82.082031 78.535156 C 83.027344 79.507812 79.589844 79.648438 79.570312 81.046875 C 90.074219 75.21875 101.296875 66.253906 108.46875 53.824219 C 110.382812 50.507812 113.175781 43.648438 116.429688 43.351562 C 121.191406 42.917969 123.394531 48.585938 128.15625 49.214844 C 127.664062 47.472656 125.476562 47.429688 124.386719 46.285156 C 126.839844 46.070312 129.578125 49.183594 132.34375 50.054688 C 130.125 47.109375 126.195312 45.871094 122.710938 44.1875 C 122.421875 45.316406 123.578125 45 123.96875 45.445312 C 122.566406 46.132812 120.832031 43.566406 118.941406 43.351562 C 125.921875 41.253906 135.503906 41.726562 141.140625 44.609375 C 144.589844 51.8125 147.8125 58.3125 152.449219 63.875 C 171.578125 86.828125 210.753906 89.542969 234.546875 107.855469 L 236.640625 107.855469 C 241.578125 112.546875 247.746094 116.015625 250.460938 122.933594 C 248.65625 122.644531 247.890625 121.316406 246.273438 120.839844 C 248.171875 123.726562 253.632812 124.679688 252.136719 129.636719 Z M 252.136719 129.636719 " fill-opacity="1" fill-rule="nonzero"/></g><g clip-path="url(#12940175cf)"><path fill="#f6822d" d="M 251.71875 115.8125 C 247.476562 109.496094 238.410156 105.195312 233.289062 100.734375 C 227.304688 99.386719 222.136719 96.398438 216.953125 94.03125 C 211.480469 91.53125 206.070312 89.492188 200.617188 87.332031 C 184.054688 80.769531 168.265625 73.339844 157.058594 61.78125 C 153.179688 57.78125 149.804688 52.859375 147.425781 48.378906 C 145.980469 45.65625 144.871094 40.800781 142.816406 39.582031 C 139.320312 37.507812 132.882812 39.371094 129.414062 37.90625 C 132.660156 26.320312 119.957031 22.15625 120.617188 12.773438 C 121.257812 3.710938 131.78125 3.914062 136.113281 9.003906 C 137.523438 10.660156 138.375 15.136719 142.398438 13.613281 C 143.785156 11.238281 140.910156 8.621094 139.464844 6.910156 C 137.664062 4.777344 135.484375 2.632812 132.765625 1.886719 C 125.789062 -0.0273438 117.589844 3.800781 116.847656 11.9375 C 115.753906 23.914062 127.597656 24.546875 126.0625 37.90625 C 120.792969 39.277344 114.367188 37.609375 111.402344 39.582031 C 109.582031 40.792969 106.886719 48.355469 105.121094 51.308594 C 102.769531 55.246094 99.613281 59.570312 97.160156 62.199219 C 84.1875 76.105469 64.101562 81.605469 45.222656 89.84375 C 38.460938 92.796875 31.597656 96.3125 24.699219 99.898438 C 15.398438 104.730469 5.117188 109.429688 2.082031 118.746094 C 1.265625 121.246094 -0.0078125 127.457031 3.339844 130.472656 C 8.160156 131.785156 12.691406 124.957031 18 123.769531 C 20.621094 123.183594 25.429688 123.769531 29.726562 123.769531 L 44.386719 123.769531 C 90.625 123.769531 154.726562 124.191406 210.671875 124.191406 C 220.246094 124.191406 231.113281 123.054688 238.316406 124.609375 C 243.570312 125.742188 247.082031 132.367188 253.394531 131.726562 C 257.222656 126.503906 254.378906 119.777344 251.71875 115.8125 Z M 139.046875 10.261719 C 136.675781 7.324219 134.695312 4.003906 129.832031 3.558594 C 134.390625 2.632812 137.519531 6.757812 139.046875 10.261719 Z M 126.0625 3.140625 C 126.933594 2.90625 129.261719 2.945312 129.414062 3.140625 C 129.824219 3.6875 127.277344 3.390625 126.898438 3.558594 C 125.378906 4.242188 121.117188 6.148438 119.777344 8.167969 C 121.1875 5.347656 124.394531 3.589844 126.0625 3.140625 Z M 118.941406 9.003906 C 120.628906 9.171875 118.628906 12.109375 118.523438 13.195312 C 120.832031 22.175781 129.039062 27.078125 128.15625 37.90625 C 126.09375 36.066406 127.324219 34.699219 126.898438 32.460938 C 125.296875 24.054688 115.574219 20.007812 118.941406 9.003906 Z M 142.398438 40.839844 C 147.472656 50.710938 151.738281 59.214844 159.570312 66.386719 C 171.9375 77.710938 193.28125 84.828125 210.671875 92.355469 C 218.6875 95.828125 224.40625 98.921875 232.453125 101.992188 C 239.574219 107.429688 248.523438 111.050781 251.300781 120.839844 C 233.101562 94.078125 184.148438 90.976562 159.570312 69.738281 C 151.539062 62.800781 146.71875 54.429688 141.5625 43.769531 C 134.589844 41.375 123.46875 39.757812 116.011719 42.511719 C 111.417969 44.210938 111.414062 48.664062 108.472656 51.726562 C 106.773438 51.097656 109.703125 48.351562 110.148438 47.121094 C 108.847656 35.664062 132.457031 38.886719 142.398438 40.839844 Z M 12.972656 107.4375 C 41.796875 87.589844 89.488281 83.03125 106.796875 50.890625 C 108.132812 52.652344 105.660156 54.519531 104.699219 56.335938 C 106.59375 55.996094 106.839844 54.007812 107.632812 52.566406 C 99.90625 71.140625 81.265625 78.484375 61.140625 86.910156 C 51.898438 90.78125 42.421875 94.933594 32.660156 99.476562 C 21.433594 104.699219 8.734375 109.988281 4.175781 121.257812 C 3.960938 115.195312 8.828125 110.289062 12.972656 107.4375 Z M 10.460938 125.867188 C 10.222656 126.609375 9.296875 125.925781 10.039062 125.867188 C 33.839844 112.667969 57.054688 98.882812 81.246094 86.074219 C 58.042969 99.730469 34.371094 112.917969 10.460938 125.867188 Z M 126.898438 62.199219 C 130.816406 63.15625 132.320312 63.675781 137.667969 67.203125 C 141.769531 69.90625 145.082031 71.910156 148.679688 73.925781 C 174.738281 88.519531 202.511719 103.332031 227.84375 119.164062 C 205.734375 118.421875 177.875 119.105469 154.597656 119.21875 L 141.078125 119.109375 C 109.171875 118.273438 70.503906 118.574219 27.628906 118.324219 C 60.144531 99.042969 94.21875 81.316406 126.898438 62.199219 Z M 81.664062 86.074219 C 85.132812 83.679688 88.808594 81.488281 92.972656 79.792969 C 91.554688 80.921875 85.246094 84.324219 81.664062 86.074219 Z M 93.8125 79.371094 C 97.046875 76.886719 100.824219 74.9375 104.699219 73.089844 C 101.453125 75.566406 97.613281 77.449219 93.8125 79.371094 Z M 23.863281 122.09375 C 25.820312 122.316406 32.109375 120.480469 34.332031 122.511719 C 31.660156 122.027344 25.410156 123.167969 23.863281 122.09375 Z M 34.753906 121.675781 C 40.316406 121.957031 42.785156 121.863281 47.316406 122.09375 C 44.21875 122.535156 37.160156 123.320312 34.753906 121.675781 Z M 48.15625 122.09375 L 50.667969 122.09375 C 82.0625 121.820312 115.621094 122.664062 147.84375 121.675781 C 115.578125 121.464844 70.8125 121.835938 23.863281 120.839844 C 26.964844 118.664062 35.816406 118.984375 42.710938 119.164062 C 62.695312 119.683594 91.328125 119.816406 118.929688 119.53125 L 119.179688 119.648438 L 169.695312 120.066406 L 169.625 119.941406 C 183.921875 120.164062 197.9375 120.128906 210.25 120 C 217.410156 119.925781 225.066406 119.070312 231.613281 121.257812 C 200.335938 122.128906 175.851562 121.132812 148.261719 121.675781 C 178.636719 122.773438 210.824219 121.582031 233.707031 122.511719 C 164.738281 123.160156 107.789062 123.28125 48.15625 122.09375 Z M 252.136719 129.636719 C 217.902344 110.398438 184.027344 90.796875 149.9375 71.414062 L 147.003906 71.414062 C 141.195312 67.171875 134.234375 64.078125 127.738281 60.523438 C 120.714844 63.972656 114.273438 68 107.632812 71.832031 C 97.378906 74.261719 87.589844 81.414062 78.730469 86.492188 C 53.757812 100.804688 28.242188 114.210938 3.339844 127.960938 C 7.28125 109.625 27.671875 101.757812 43.96875 94.871094 C 57.238281 89.261719 70.765625 84.375 82.082031 78.535156 C 83.027344 79.507812 79.589844 79.648438 79.570312 81.046875 C 90.074219 75.21875 101.296875 66.253906 108.46875 53.824219 C 110.382812 50.507812 113.175781 43.648438 116.429688 43.351562 C 121.191406 42.917969 123.394531 48.585938 128.15625 49.214844 C 127.664062 47.472656 125.476562 47.429688 124.386719 46.285156 C 126.839844 46.070312 129.578125 49.183594 132.34375 50.054688 C 130.125 47.109375 126.195312 45.871094 122.710938 44.1875 C 122.421875 45.316406 123.578125 45 123.96875 45.445312 C 122.566406 46.132812 120.832031 43.566406 118.941406 43.351562 C 125.921875 41.253906 135.503906 41.726562 141.140625 44.609375 C 144.589844 51.8125 147.8125 58.3125 152.449219 63.875 C 171.578125 86.828125 210.753906 89.542969 234.546875 107.855469 L 236.640625 107.855469 C 241.578125 112.546875 247.746094 116.015625 250.460938 122.933594 C 248.65625 122.644531 247.890625 121.316406 246.273438 120.839844 C 248.171875 123.726562 253.632812 124.679688 252.136719 129.636719 Z M 252.136719 129.636719 " fill-opacity="1" fill-rule="nonzero"/></g><g clip-path="url(#2f9fd7d64a)"><path fill="#f6822d" d="M 251.71875 115.8125 C 247.476562 109.496094 238.410156 105.195312 233.289062 100.734375 C 227.304688 99.386719 222.136719 96.398438 216.953125 94.03125 C 211.480469 91.53125 206.070312 89.492188 200.617188 87.332031 C 184.054688 80.769531 168.265625 73.339844 157.058594 61.78125 C 153.179688 57.78125 149.804688 52.859375 147.425781 48.378906 C 145.980469 45.65625 144.871094 40.800781 142.816406 39.582031 C 139.320312 37.507812 132.882812 39.371094 129.414062 37.90625 C 132.660156 26.320312 119.957031 22.15625 120.617188 12.773438 C 121.257812 3.710938 131.78125 3.914062 136.113281 9.003906 C 137.523438 10.660156 138.375 15.136719 142.398438 13.613281 C 143.785156 11.238281 140.910156 8.621094 139.464844 6.910156 C 137.664062 4.777344 135.484375 2.632812 132.765625 1.886719 C 125.789062 -0.0273438 117.589844 3.800781 116.847656 11.9375 C 115.753906 23.914062 127.597656 24.546875 126.0625 37.90625 C 120.792969 39.277344 114.367188 37.609375 111.402344 39.582031 C 109.582031 40.792969 106.886719 48.355469 105.121094 51.308594 C 102.769531 55.246094 99.613281 59.570312 97.160156 62.199219 C 84.1875 76.105469 64.101562 81.605469 45.222656 89.84375 C 38.460938 92.796875 31.597656 96.3125 24.699219 99.898438 C 15.398438 104.730469 5.117188 109.429688 2.082031 118.746094 C 1.265625 121.246094 -0.0078125 127.457031 3.339844 130.472656 C 8.160156 131.785156 12.691406 124.957031 18 123.769531 C 20.621094 123.183594 25.429688 123.769531 29.726562 123.769531 L 44.386719 123.769531 C 90.625 123.769531 154.726562 124.191406 210.671875 124.191406 C 220.246094 124.191406 231.113281 123.054688 238.316406 124.609375 C 243.570312 125.742188 247.082031 132.367188 253.394531 131.726562 C 257.222656 126.503906 254.378906 119.777344 251.71875 115.8125 Z M 139.046875 10.261719 C 136.675781 7.324219 134.695312 4.003906 129.832031 3.558594 C 134.390625 2.632812 137.519531 6.757812 139.046875 10.261719 Z M 126.0625 3.140625 C 126.933594 2.90625 129.261719 2.945312 129.414062 3.140625 C 129.824219 3.6875 127.277344 3.390625 126.898438 3.558594 C 125.378906 4.242188 121.117188 6.148438 119.777344 8.167969 C 121.1875 5.347656 124.394531 3.589844 126.0625 3.140625 Z M 118.941406 9.003906 C 120.628906 9.171875 118.628906 12.109375 118.523438 13.195312 C 120.832031 22.175781 129.039062 27.078125 128.15625 37.90625 C 126.09375 36.066406 127.324219 34.699219 126.898438 32.460938 C 125.296875 24.054688 115.574219 20.007812 118.941406 9.003906 Z M 142.398438 40.839844 C 147.472656 50.710938 151.738281 59.214844 159.570312 66.386719 C 171.9375 77.710938 193.28125 84.828125 210.671875 92.355469 C 218.6875 95.828125 224.40625 98.921875 232.453125 101.992188 C 239.574219 107.429688 248.523438 111.050781 251.300781 120.839844 C 233.101562 94.078125 184.148438 90.976562 159.570312 69.738281 C 151.539062 62.800781 146.71875 54.429688 141.5625 43.769531 C 134.589844 41.375 123.46875 39.757812 116.011719 42.511719 C 111.417969 44.210938 111.414062 48.664062 108.472656 51.726562 C 106.773438 51.097656 109.703125 48.351562 110.148438 47.121094 C 108.847656 35.664062 132.457031 38.886719 142.398438 40.839844 Z M 12.972656 107.4375 C 41.796875 87.589844 89.488281 83.03125 106.796875 50.890625 C 108.132812 52.652344 105.660156 54.519531 104.699219 56.335938 C 106.59375 55.996094 106.839844 54.007812 107.632812 52.566406 C 99.90625 71.140625 81.265625 78.484375 61.140625 86.910156 C 51.898438 90.78125 42.421875 94.933594 32.660156 99.476562 C 21.433594 104.699219 8.734375 109.988281 4.175781 121.257812 C 3.960938 115.195312 8.828125 110.289062 12.972656 107.4375 Z M 10.460938 125.867188 C 10.222656 126.609375 9.296875 125.925781 10.039062 125.867188 C 33.839844 112.667969 57.054688 98.882812 81.246094 86.074219 C 58.042969 99.730469 34.371094 112.917969 10.460938 125.867188 Z M 126.898438 62.199219 C 130.816406 63.15625 132.320312 63.675781 137.667969 67.203125 C 141.769531 69.90625 145.082031 71.910156 148.679688 73.925781 C 174.738281 88.519531 202.511719 103.332031 227.84375 119.164062 C 205.734375 118.421875 177.875 119.105469 154.597656 119.21875 L 141.078125 119.109375 C 109.171875 118.273438 70.503906 118.574219 27.628906 118.324219 C 60.144531 99.042969 94.21875 81.316406 126.898438 62.199219 Z M 81.664062 86.074219 C 85.132812 83.679688 88.808594 81.488281 92.972656 79.792969 C 91.554688 80.921875 85.246094 84.324219 81.664062 86.074219 Z M 93.8125 79.371094 C 97.046875 76.886719 100.824219 74.9375 104.699219 73.089844 C 101.453125 75.566406 97.613281 77.449219 93.8125 79.371094 Z M 23.863281 122.09375 C 25.820312 122.316406 32.109375 120.480469 34.332031 122.511719 C 31.660156 122.027344 25.410156 123.167969 23.863281 122.09375 Z M 34.753906 121.675781 C 40.316406 121.957031 42.785156 121.863281 47.316406 122.09375 C 44.21875 122.535156 37.160156 123.320312 34.753906 121.675781 Z M 48.15625 122.09375 L 50.667969 122.09375 C 82.0625 121.820312 115.621094 122.664062 147.84375 121.675781 C 115.578125 121.464844 70.8125 121.835938 23.863281 120.839844 C 26.964844 118.664062 35.816406 118.984375 42.710938 119.164062 C 62.695312 119.683594 91.328125 119.816406 118.929688 119.53125 L 119.179688 119.648438 L 169.695312 120.066406 L 169.625 119.941406 C 183.921875 120.164062 197.9375 120.128906 210.25 120 C 217.410156 119.925781 225.066406 119.070312 231.613281 121.257812 C 200.335938 122.128906 175.851562 121.132812 148.261719 121.675781 C 178.636719 122.773438 210.824219 121.582031 233.707031 122.511719 C 164.738281 123.160156 107.789062 123.28125 48.15625 122.09375 Z M 252.136719 129.636719 C 217.902344 110.398438 184.027344 90.796875 149.9375 71.414062 L 147.003906 71.414062 C 141.195312 67.171875 134.234375 64.078125 127.738281 60.523438 C 120.714844 63.972656 114.273438 68 107.632812 71.832031 C 97.378906 74.261719 87.589844 81.414062 78.730469 86.492188 C 53.757812 100.804688 28.242188 114.210938 3.339844 127.960938 C 7.28125 109.625 27.671875 101.757812 43.96875 94.871094 C 57.238281 89.261719 70.765625 84.375 82.082031 78.535156 C 83.027344 79.507812 79.589844 79.648438 79.570312 81.046875 C 90.074219 75.21875 101.296875 66.253906 108.46875 53.824219 C 110.382812 50.507812 113.175781 43.648438 116.429688 43.351562 C 121.191406 42.917969 123.394531 48.585938 128.15625 49.214844 C 127.664062 47.472656 125.476562 47.429688 124.386719 46.285156 C 126.839844 46.070312 129.578125 49.183594 132.34375 50.054688 C 130.125 47.109375 126.195312 45.871094 122.710938 44.1875 C 122.421875 45.316406 123.578125 45 123.96875 45.445312 C 122.566406 46.132812 120.832031 43.566406 118.941406 43.351562 C 125.921875 41.253906 135.503906 41.726562 141.140625 44.609375 C 144.589844 51.8125 147.8125 58.3125 152.449219 63.875 C 171.578125 86.828125 210.753906 89.542969 234.546875 107.855469 L 236.640625 107.855469 C 241.578125 112.546875 247.746094 116.015625 250.460938 122.933594 C 248.65625 122.644531 247.890625 121.316406 246.273438 120.839844 C 248.171875 123.726562 253.632812 124.679688 252.136719 129.636719 Z M 252.136719 129.636719 " fill-opacity="1" fill-rule="nonzero"/></g><path stroke-linecap="butt" transform="matrix(0, -0.75, 0.75, 0, 204.971299, 123.944512)" fill="none" stroke-linejoin="miter" d="M -0.00106726 0.50181 L 6.207266 0.50181 " stroke="#000000" stroke-width="1" stroke-opacity="1" stroke-miterlimit="4"/><path stroke-linecap="butt" transform="matrix(0, -0.75, 0.75, 0, 49.492298, 123.942328)" fill="none" stroke-linejoin="miter" d="M 0.00122907 0.499853 L 6.943938 0.499853 " stroke="#000000" stroke-width="1" stroke-opacity="1" stroke-miterlimit="4"/><g fill="#f6822d" fill-opacity="1"><g transform="translate(79.883999, 150.964984)"><g><path d="M 1.703125 -6.78125 C 1.515625 -6.84375 1.367188 -6.875 1.265625 -6.875 C 1.109375 -6.875 0.984375 -6.863281 0.890625 -6.84375 C 0.796875 -6.832031 0.742188 -6.832031 0.734375 -6.84375 C 0.722656 -6.863281 0.71875 -6.890625 0.71875 -6.921875 C 0.71875 -6.953125 0.726562 -6.984375 0.75 -7.015625 C 0.769531 -7.046875 0.796875 -7.0625 0.828125 -7.0625 C 1.265625 -7.164062 1.863281 -7.21875 2.625 -7.21875 L 4.828125 -3.609375 L 4.875 -3.609375 L 6.984375 -7.21875 C 7.734375 -7.21875 8.328125 -7.164062 8.765625 -7.0625 C 8.835938 -7.050781 8.875 -7 8.875 -6.90625 C 8.875 -6.851562 8.828125 -6.832031 8.734375 -6.84375 C 8.640625 -6.863281 8.515625 -6.875 8.359375 -6.875 C 8.203125 -6.875 8.035156 -6.835938 7.859375 -6.765625 L 8.703125 -0.765625 C 8.742188 -0.453125 8.835938 -0.257812 8.984375 -0.1875 C 9.023438 -0.175781 9.046875 -0.140625 9.046875 -0.078125 C 9.046875 -0.0234375 9.023438 0 8.984375 0 L 7.53125 0 C 7.488281 0 7.46875 -0.0234375 7.46875 -0.078125 C 7.46875 -0.128906 7.472656 -0.160156 7.484375 -0.171875 C 7.503906 -0.179688 7.523438 -0.191406 7.546875 -0.203125 C 7.617188 -0.234375 7.679688 -0.316406 7.734375 -0.453125 C 7.796875 -0.597656 7.828125 -0.695312 7.828125 -0.75 C 7.828125 -0.800781 7.828125 -0.832031 7.828125 -0.84375 L 7.125 -6.0625 L 7.09375 -6.0625 L 4.921875 -2.265625 C 4.910156 -2.253906 4.859375 -2.25 4.765625 -2.25 C 4.671875 -2.257812 4.617188 -2.265625 4.609375 -2.265625 L 2.34375 -6.0625 L 2.3125 -6.0625 L 1.65625 -0.84375 C 1.644531 -0.75 1.664062 -0.640625 1.71875 -0.515625 C 1.769531 -0.390625 1.8125 -0.304688 1.84375 -0.265625 C 1.882812 -0.234375 1.921875 -0.207031 1.953125 -0.1875 C 1.992188 -0.175781 2.015625 -0.140625 2.015625 -0.078125 C 2.015625 -0.0234375 1.992188 0 1.953125 0 L 0.625 0 C 0.582031 0 0.5625 -0.0234375 0.5625 -0.078125 C 0.5625 -0.128906 0.566406 -0.160156 0.578125 -0.171875 C 0.597656 -0.179688 0.617188 -0.191406 0.640625 -0.203125 C 0.773438 -0.265625 0.863281 -0.453125 0.90625 -0.765625 Z M 1.703125 -6.78125 "/></g></g></g><g fill="#f6822d" fill-opacity="1"><g transform="translate(89.841244, 150.964984)"><g><path d="M 1.421875 -3.5 C 1.234375 -3.382812 1.09375 -3.226562 1 -3.03125 C 0.914062 -2.832031 0.875 -2.582031 0.875 -2.28125 C 0.875 -1.988281 0.957031 -1.691406 1.125 -1.390625 C 1.289062 -1.085938 1.515625 -0.847656 1.796875 -0.671875 C 2.085938 -0.503906 2.375 -0.421875 2.65625 -0.421875 C 2.945312 -0.421875 3.179688 -0.484375 3.359375 -0.609375 C 3.546875 -0.742188 3.6875 -0.910156 3.78125 -1.109375 C 3.875 -1.316406 3.921875 -1.546875 3.921875 -1.796875 C 3.921875 -2.316406 3.753906 -2.757812 3.421875 -3.125 C 3.097656 -3.5 2.65625 -3.6875 2.09375 -3.6875 C 1.84375 -3.6875 1.617188 -3.625 1.421875 -3.5 Z M 0.890625 -0.53125 C 0.691406 -0.71875 0.53125 -0.941406 0.40625 -1.203125 C 0.289062 -1.472656 0.234375 -1.785156 0.234375 -2.140625 C 0.234375 -2.503906 0.328125 -2.851562 0.515625 -3.1875 C 0.703125 -3.53125 0.96875 -3.796875 1.3125 -3.984375 C 1.65625 -4.179688 2.015625 -4.28125 2.390625 -4.28125 C 3.066406 -4.28125 3.601562 -4.066406 4 -3.640625 C 4.40625 -3.210938 4.609375 -2.691406 4.609375 -2.078125 C 4.617188 -1.472656 4.410156 -0.960938 3.984375 -0.546875 C 3.554688 -0.128906 3.019531 0.078125 2.375 0.078125 C 2.09375 0.078125 1.820312 0.0234375 1.5625 -0.078125 C 1.3125 -0.191406 1.085938 -0.34375 0.890625 -0.53125 Z M 0.890625 -0.53125 "/></g></g></g><g fill="#f6822d" fill-opacity="1"><g transform="translate(95.008141, 150.964984)"><g><path d="M 3.1875 -6.46875 L 3.1875 -6.546875 C 3.1875 -6.554688 3.195312 -6.566406 3.21875 -6.578125 C 3.238281 -6.585938 3.25 -6.59375 3.25 -6.59375 L 4.03125 -7.1875 C 4.050781 -7.195312 4.082031 -7.203125 4.125 -7.203125 C 4.175781 -7.203125 4.210938 -7.191406 4.234375 -7.171875 C 4.265625 -7.160156 4.28125 -7.125 4.28125 -7.0625 C 4.28125 -4.425781 4.285156 -2.382812 4.296875 -0.9375 C 4.304688 -0.882812 4.300781 -0.863281 4.28125 -0.875 C 4.28125 -0.875 4.285156 -0.863281 4.296875 -0.84375 C 4.316406 -0.832031 4.351562 -0.820312 4.40625 -0.8125 C 4.457031 -0.8125 4.492188 -0.804688 4.515625 -0.796875 C 4.535156 -0.785156 4.546875 -0.75 4.546875 -0.6875 C 4.546875 -0.632812 4.535156 -0.601562 4.515625 -0.59375 L 3.796875 0 C 3.785156 0.0078125 3.75 0.015625 3.6875 0.015625 C 3.625 0.015625 3.582031 0.0078125 3.5625 0 C 3.550781 -0.0195312 3.546875 -0.0390625 3.546875 -0.0625 C 3.546875 -0.0820312 3.546875 -0.101562 3.546875 -0.125 C 3.554688 -0.15625 3.554688 -0.191406 3.546875 -0.234375 C 3.535156 -0.273438 3.523438 -0.296875 3.515625 -0.296875 C 3.503906 -0.296875 3.476562 -0.285156 3.4375 -0.265625 L 3.328125 -0.1875 C 3.023438 -0.0078125 2.71875 0.078125 2.40625 0.078125 C 2.101562 0.078125 1.820312 0.0234375 1.5625 -0.078125 C 1.3125 -0.191406 1.085938 -0.34375 0.890625 -0.53125 C 0.691406 -0.71875 0.53125 -0.941406 0.40625 -1.203125 C 0.289062 -1.472656 0.234375 -1.785156 0.234375 -2.140625 C 0.234375 -2.503906 0.328125 -2.851562 0.515625 -3.1875 C 0.703125 -3.53125 0.96875 -3.796875 1.3125 -3.984375 C 1.65625 -4.179688 2.054688 -4.28125 2.515625 -4.28125 C 2.691406 -4.28125 2.878906 -4.234375 3.078125 -4.140625 C 3.273438 -4.054688 3.425781 -3.96875 3.53125 -3.875 L 3.578125 -3.875 C 3.578125 -4.820312 3.570312 -5.566406 3.5625 -6.109375 C 3.5625 -6.203125 3.535156 -6.269531 3.484375 -6.3125 C 3.441406 -6.351562 3.390625 -6.375 3.328125 -6.375 C 3.273438 -6.375 3.242188 -6.382812 3.234375 -6.40625 C 3.203125 -6.414062 3.1875 -6.4375 3.1875 -6.46875 Z M 3.546875 -1 L 3.5625 -2.90625 C 3.425781 -3.15625 3.226562 -3.347656 2.96875 -3.484375 C 2.707031 -3.617188 2.414062 -3.6875 2.09375 -3.6875 C 1.675781 -3.6875 1.335938 -3.46875 1.078125 -3.03125 C 0.941406 -2.800781 0.875 -2.582031 0.875 -2.375 C 0.875 -1.832031 1.039062 -1.390625 1.375 -1.046875 C 1.71875 -0.710938 2.15625 -0.546875 2.6875 -0.546875 C 2.832031 -0.546875 2.984375 -0.585938 3.140625 -0.671875 C 3.304688 -0.765625 3.441406 -0.875 3.546875 -1 Z M 3.546875 -1 "/></g></g></g><g fill="#f6822d" fill-opacity="1"><g transform="translate(100.126694, 150.964984)"><g><path d="M 3.390625 -3.046875 C 3.210938 -3.546875 2.835938 -3.796875 2.265625 -3.796875 C 2.003906 -3.796875 1.765625 -3.722656 1.546875 -3.578125 C 1.328125 -3.441406 1.160156 -3.265625 1.046875 -3.046875 C 0.929688 -2.835938 0.875 -2.632812 0.875 -2.4375 C 0.875 -2.25 0.878906 -2.160156 0.890625 -2.171875 L 3.375 -3.03125 L 3.375 -3.0625 Z M 0.984375 -1.703125 C 1.109375 -1.359375 1.320312 -1.085938 1.625 -0.890625 C 1.925781 -0.691406 2.265625 -0.59375 2.640625 -0.59375 C 3.128906 -0.59375 3.570312 -0.820312 3.96875 -1.28125 C 4.03125 -1.332031 4.117188 -1.300781 4.234375 -1.1875 C 4.242188 -1.175781 4.242188 -1.160156 4.234375 -1.140625 C 3.898438 -0.679688 3.640625 -0.382812 3.453125 -0.25 C 3.140625 -0.03125 2.78125 0.078125 2.375 0.078125 C 2.09375 0.078125 1.820312 0.0195312 1.5625 -0.09375 C 1.03125 -0.320312 0.648438 -0.695312 0.421875 -1.21875 C 0.296875 -1.476562 0.234375 -1.785156 0.234375 -2.140625 C 0.234375 -2.503906 0.328125 -2.851562 0.515625 -3.1875 C 0.703125 -3.53125 0.96875 -3.796875 1.3125 -3.984375 C 1.65625 -4.179688 2.054688 -4.28125 2.515625 -4.28125 C 3.054688 -4.28125 3.546875 -4.023438 3.984375 -3.515625 C 4.191406 -3.253906 4.296875 -3.050781 4.296875 -2.90625 Z M 0.984375 -1.703125 "/></g></g></g><g fill="#f6822d" fill-opacity="1"><g transform="translate(105.034297, 150.964984)"><g><path d="M 0.375 -3.453125 L 0.390625 -3.53125 C 0.390625 -3.550781 0.394531 -3.566406 0.40625 -3.578125 C 0.425781 -3.585938 0.4375 -3.59375 0.4375 -3.59375 L 1.234375 -4.171875 C 1.242188 -4.179688 1.273438 -4.1875 1.328125 -4.1875 C 1.378906 -4.1875 1.414062 -4.179688 1.4375 -4.171875 C 1.457031 -4.160156 1.46875 -4.117188 1.46875 -4.046875 L 1.46875 -3.296875 C 1.488281 -3.328125 1.515625 -3.359375 1.546875 -3.390625 C 1.753906 -3.648438 1.972656 -3.851562 2.203125 -4 C 2.429688 -4.144531 2.691406 -4.21875 2.984375 -4.21875 C 3.078125 -4.21875 3.128906 -4.207031 3.140625 -4.1875 C 3.191406 -4.050781 3.234375 -3.921875 3.265625 -3.796875 L 3.390625 -3.28125 C 3.398438 -3.25 3.378906 -3.21875 3.328125 -3.1875 C 3.273438 -3.15625 3.234375 -3.140625 3.203125 -3.140625 C 3.171875 -3.148438 3.140625 -3.179688 3.109375 -3.234375 L 3.0625 -3.3125 C 2.90625 -3.457031 2.722656 -3.515625 2.515625 -3.484375 C 2.304688 -3.453125 2.109375 -3.375 1.921875 -3.25 C 1.734375 -3.125 1.59375 -2.992188 1.5 -2.859375 C 1.5 -2.847656 1.492188 -2.832031 1.484375 -2.8125 C 1.472656 -2.800781 1.46875 -2.789062 1.46875 -2.78125 L 1.46875 -0.765625 C 1.46875 -0.753906 1.46875 -0.722656 1.46875 -0.671875 C 1.46875 -0.628906 1.46875 -0.597656 1.46875 -0.578125 C 1.488281 -0.390625 1.550781 -0.273438 1.65625 -0.234375 C 1.757812 -0.191406 1.8125 -0.15625 1.8125 -0.125 C 1.8125 -0.0390625 1.796875 0 1.765625 0 L 0.453125 0 C 0.421875 0 0.40625 -0.0234375 0.40625 -0.078125 C 0.40625 -0.128906 0.414062 -0.160156 0.4375 -0.171875 C 0.457031 -0.191406 0.484375 -0.207031 0.515625 -0.21875 C 0.554688 -0.238281 0.585938 -0.257812 0.609375 -0.28125 C 0.648438 -0.320312 0.679688 -0.367188 0.703125 -0.421875 C 0.734375 -0.484375 0.75 -0.550781 0.75 -0.625 C 0.75 -0.707031 0.75 -0.753906 0.75 -0.765625 L 0.75 -3.09375 C 0.75 -3.1875 0.722656 -3.253906 0.671875 -3.296875 C 0.628906 -3.335938 0.582031 -3.359375 0.53125 -3.359375 C 0.476562 -3.359375 0.441406 -3.367188 0.421875 -3.390625 C 0.390625 -3.410156 0.375 -3.429688 0.375 -3.453125 Z M 0.375 -3.453125 "/></g></g></g><g fill="#f6822d" fill-opacity="1"><g transform="translate(108.82122, 150.964984)"><g><path d="M 0.453125 0 C 0.410156 0 0.390625 -0.0234375 0.390625 -0.078125 C 0.390625 -0.128906 0.398438 -0.160156 0.421875 -0.171875 C 0.453125 -0.191406 0.484375 -0.207031 0.515625 -0.21875 C 0.554688 -0.238281 0.585938 -0.257812 0.609375 -0.28125 C 0.703125 -0.363281 0.742188 -0.460938 0.734375 -0.578125 C 0.734375 -0.691406 0.734375 -0.753906 0.734375 -0.765625 L 0.734375 -3.09375 C 0.734375 -3.1875 0.707031 -3.253906 0.65625 -3.296875 C 0.613281 -3.335938 0.566406 -3.359375 0.515625 -3.359375 C 0.460938 -3.359375 0.425781 -3.363281 0.40625 -3.375 C 0.394531 -3.394531 0.382812 -3.410156 0.375 -3.421875 C 0.375 -3.429688 0.375 -3.441406 0.375 -3.453125 C 0.375 -3.460938 0.375 -3.472656 0.375 -3.484375 C 0.375 -3.503906 0.375 -3.519531 0.375 -3.53125 C 0.375 -3.539062 0.375 -3.546875 0.375 -3.546875 C 0.382812 -3.554688 0.394531 -3.566406 0.40625 -3.578125 C 0.414062 -3.585938 0.425781 -3.59375 0.4375 -3.59375 L 1.21875 -4.171875 C 1.226562 -4.179688 1.257812 -4.1875 1.3125 -4.1875 C 1.363281 -4.1875 1.398438 -4.179688 1.421875 -4.171875 C 1.453125 -4.160156 1.46875 -4.117188 1.46875 -4.046875 L 1.46875 -3.734375 L 1.6875 -3.859375 L 1.828125 -3.921875 C 2.234375 -4.128906 2.613281 -4.234375 2.96875 -4.234375 C 3.320312 -4.234375 3.671875 -4.109375 4.015625 -3.859375 C 4.171875 -3.742188 4.296875 -3.601562 4.390625 -3.4375 C 4.492188 -3.269531 4.546875 -3.101562 4.546875 -2.9375 L 4.546875 -0.578125 C 4.546875 -0.515625 4.5625 -0.445312 4.59375 -0.375 C 4.625 -0.300781 4.675781 -0.25 4.75 -0.21875 C 4.832031 -0.1875 4.875 -0.15625 4.875 -0.125 C 4.875 -0.0390625 4.859375 0 4.828125 0 L 3.53125 0 C 3.5 0 3.484375 -0.0234375 3.484375 -0.078125 C 3.484375 -0.128906 3.492188 -0.160156 3.515625 -0.171875 C 3.546875 -0.191406 3.578125 -0.207031 3.609375 -0.21875 C 3.648438 -0.238281 3.679688 -0.257812 3.703125 -0.28125 C 3.722656 -0.300781 3.742188 -0.328125 3.765625 -0.359375 C 3.785156 -0.390625 3.796875 -0.421875 3.796875 -0.453125 C 3.804688 -0.492188 3.8125 -0.523438 3.8125 -0.546875 C 3.8125 -0.566406 3.8125 -0.601562 3.8125 -0.65625 C 3.8125 -0.71875 3.8125 -0.753906 3.8125 -0.765625 L 3.8125 -2.828125 C 3.8125 -2.992188 3.753906 -3.144531 3.640625 -3.28125 C 3.410156 -3.53125 3.09375 -3.65625 2.6875 -3.65625 C 2.28125 -3.65625 1.875 -3.550781 1.46875 -3.34375 L 1.46875 -0.578125 C 1.46875 -0.515625 1.484375 -0.445312 1.515625 -0.375 C 1.546875 -0.300781 1.601562 -0.25 1.6875 -0.21875 C 1.769531 -0.1875 1.8125 -0.15625 1.8125 -0.125 C 1.8125 -0.0390625 1.789062 0 1.75 0 Z M 0.453125 0 "/></g></g></g><g fill="#f6822d" fill-opacity="1"><g transform="translate(114.300147, 150.964984)"><g/></g></g><g fill="#f6822d" fill-opacity="1"><g transform="translate(116.865311, 150.964984)"><g><path d="M 4.0625 -0.5 C 4.71875 -0.5 5.304688 -0.644531 5.828125 -0.9375 C 6.359375 -1.238281 6.789062 -1.644531 7.125 -2.15625 C 7.164062 -2.21875 7.191406 -2.234375 7.203125 -2.203125 C 7.222656 -2.179688 7.25 -2.148438 7.28125 -2.109375 L 7.421875 -1.921875 C 7.460938 -1.847656 7.476562 -1.800781 7.46875 -1.78125 C 7.289062 -1.425781 6.992188 -1.078125 6.578125 -0.734375 C 5.816406 -0.0859375 4.976562 0.234375 4.0625 0.234375 C 3.519531 0.234375 3.015625 0.128906 2.546875 -0.078125 C 2.085938 -0.285156 1.695312 -0.5625 1.375 -0.90625 C 1.0625 -1.25 0.8125 -1.65625 0.625 -2.125 C 0.445312 -2.59375 0.359375 -3.070312 0.359375 -3.5625 C 0.359375 -4.0625 0.453125 -4.539062 0.640625 -5 C 0.835938 -5.457031 1.101562 -5.851562 1.4375 -6.1875 C 1.769531 -6.519531 2.160156 -6.785156 2.609375 -6.984375 C 3.066406 -7.179688 3.53125 -7.28125 4 -7.28125 C 4.550781 -7.28125 5.101562 -7.175781 5.65625 -6.96875 L 5.859375 -6.890625 C 5.890625 -6.878906 5.929688 -6.890625 5.984375 -6.921875 C 6.035156 -6.953125 6.085938 -6.96875 6.140625 -6.96875 C 6.203125 -6.96875 6.25 -6.941406 6.28125 -6.890625 C 6.300781 -6.878906 6.304688 -6.847656 6.296875 -6.796875 C 6.296875 -6.710938 6.332031 -6.519531 6.40625 -6.21875 L 6.515625 -5.734375 C 6.546875 -5.609375 6.5625 -5.523438 6.5625 -5.484375 C 6.5625 -5.472656 6.523438 -5.445312 6.453125 -5.40625 C 6.378906 -5.375 6.332031 -5.367188 6.3125 -5.390625 C 6.070312 -5.804688 5.769531 -6.09375 5.40625 -6.25 C 5.039062 -6.414062 4.582031 -6.5 4.03125 -6.5 C 3.476562 -6.5 2.976562 -6.375 2.53125 -6.125 C 2.09375 -5.875 1.753906 -5.523438 1.515625 -5.078125 C 1.273438 -4.640625 1.15625 -4.140625 1.15625 -3.578125 C 1.15625 -3.210938 1.238281 -2.84375 1.40625 -2.46875 C 1.582031 -2.09375 1.800781 -1.757812 2.0625 -1.46875 C 2.332031 -1.1875 2.644531 -0.953125 3 -0.765625 C 3.351562 -0.585938 3.707031 -0.5 4.0625 -0.5 Z M 4.0625 -0.5 "/></g></g></g><g fill="#f6822d" fill-opacity="1"><g transform="translate(124.945969, 150.964984)"><g><path d="M 0.40625 -6.46875 L 0.421875 -6.546875 C 0.421875 -6.554688 0.425781 -6.566406 0.4375 -6.578125 C 0.457031 -6.585938 0.46875 -6.59375 0.46875 -6.59375 L 1.265625 -7.1875 C 1.273438 -7.195312 1.289062 -7.203125 1.3125 -7.203125 C 1.4375 -7.203125 1.5 -7.15625 1.5 -7.0625 L 1.5 -0.765625 C 1.5 -0.742188 1.5 -0.710938 1.5 -0.671875 C 1.5 -0.628906 1.5 -0.597656 1.5 -0.578125 C 1.507812 -0.390625 1.566406 -0.273438 1.671875 -0.234375 C 1.785156 -0.191406 1.84375 -0.15625 1.84375 -0.125 C 1.84375 -0.0390625 1.820312 0 1.78125 0 L 0.484375 0 C 0.453125 0 0.4375 -0.0234375 0.4375 -0.078125 C 0.4375 -0.128906 0.445312 -0.160156 0.46875 -0.171875 C 0.488281 -0.191406 0.515625 -0.207031 0.546875 -0.21875 C 0.585938 -0.238281 0.617188 -0.257812 0.640625 -0.28125 C 0.671875 -0.300781 0.691406 -0.320312 0.703125 -0.34375 C 0.722656 -0.375 0.738281 -0.398438 0.75 -0.421875 C 0.757812 -0.441406 0.765625 -0.46875 0.765625 -0.5 C 0.773438 -0.539062 0.78125 -0.566406 0.78125 -0.578125 L 0.78125 -6.109375 C 0.78125 -6.203125 0.753906 -6.269531 0.703125 -6.3125 C 0.660156 -6.351562 0.613281 -6.375 0.5625 -6.375 C 0.507812 -6.375 0.472656 -6.382812 0.453125 -6.40625 C 0.421875 -6.414062 0.40625 -6.4375 0.40625 -6.46875 Z M 0.40625 -6.46875 "/></g></g></g><g fill="#f6822d" fill-opacity="1"><g transform="translate(127.59024, 150.964984)"><g><path d="M 1.421875 -3.5 C 1.234375 -3.382812 1.09375 -3.226562 1 -3.03125 C 0.914062 -2.832031 0.875 -2.582031 0.875 -2.28125 C 0.875 -1.988281 0.957031 -1.691406 1.125 -1.390625 C 1.289062 -1.085938 1.515625 -0.847656 1.796875 -0.671875 C 2.085938 -0.503906 2.375 -0.421875 2.65625 -0.421875 C 2.945312 -0.421875 3.179688 -0.484375 3.359375 -0.609375 C 3.546875 -0.742188 3.6875 -0.910156 3.78125 -1.109375 C 3.875 -1.316406 3.921875 -1.546875 3.921875 -1.796875 C 3.921875 -2.316406 3.753906 -2.757812 3.421875 -3.125 C 3.097656 -3.5 2.65625 -3.6875 2.09375 -3.6875 C 1.84375 -3.6875 1.617188 -3.625 1.421875 -3.5 Z M 0.890625 -0.53125 C 0.691406 -0.71875 0.53125 -0.941406 0.40625 -1.203125 C 0.289062 -1.472656 0.234375 -1.785156 0.234375 -2.140625 C 0.234375 -2.503906 0.328125 -2.851562 0.515625 -3.1875 C 0.703125 -3.53125 0.96875 -3.796875 1.3125 -3.984375 C 1.65625 -4.179688 2.015625 -4.28125 2.390625 -4.28125 C 3.066406 -4.28125 3.601562 -4.066406 4 -3.640625 C 4.40625 -3.210938 4.609375 -2.691406 4.609375 -2.078125 C 4.617188 -1.472656 4.410156 -0.960938 3.984375 -0.546875 C 3.554688 -0.128906 3.019531 0.078125 2.375 0.078125 C 2.09375 0.078125 1.820312 0.0234375 1.5625 -0.078125 C 1.3125 -0.191406 1.085938 -0.34375 0.890625 -0.53125 Z M 0.890625 -0.53125 "/></g></g></g><g fill="#f6822d" fill-opacity="1"><g transform="translate(132.757135, 150.964984)"><g><path d="M 0.953125 -4.96875 C 0.960938 -5.03125 1.015625 -5.0625 1.109375 -5.0625 C 1.210938 -5.0625 1.265625 -5.03125 1.265625 -4.96875 L 1.265625 -4.1875 L 2.046875 -4.1875 C 2.191406 -4.1875 2.265625 -4.164062 2.265625 -4.125 L 2.265625 -3.75 C 2.265625 -3.707031 2.191406 -3.6875 2.046875 -3.6875 L 1.265625 -3.6875 L 1.265625 -0.953125 C 1.265625 -0.609375 1.367188 -0.414062 1.578125 -0.375 C 1.734375 -0.34375 1.894531 -0.398438 2.0625 -0.546875 C 2.125 -0.609375 2.164062 -0.625 2.1875 -0.59375 C 2.21875 -0.5625 2.238281 -0.535156 2.25 -0.515625 C 2.269531 -0.503906 2.28125 -0.488281 2.28125 -0.46875 C 2.28125 -0.445312 2.28125 -0.4375 2.28125 -0.4375 C 2.28125 -0.414062 2.265625 -0.390625 2.234375 -0.359375 L 2.140625 -0.28125 C 1.828125 -0.0078125 1.523438 0.109375 1.234375 0.078125 C 0.953125 0.0546875 0.753906 -0.109375 0.640625 -0.421875 C 0.578125 -0.585938 0.546875 -0.796875 0.546875 -1.046875 L 0.546875 -3.6875 L 0.34375 -3.6875 C 0.1875 -3.6875 0.109375 -3.707031 0.109375 -3.75 L 0.109375 -4.125 C 0.109375 -4.164062 0.171875 -4.1875 0.296875 -4.1875 C 0.515625 -4.1875 0.671875 -4.257812 0.765625 -4.40625 C 0.859375 -4.5625 0.921875 -4.75 0.953125 -4.96875 Z M 0.953125 -4.96875 "/></g></g></g><g fill="#f6822d" fill-opacity="1"><g transform="translate(135.410196, 150.964984)"><g><path d="M 0.40625 -6.46875 L 0.421875 -6.546875 C 0.421875 -6.554688 0.4375 -6.570312 0.46875 -6.59375 L 1.265625 -7.1875 C 1.273438 -7.195312 1.304688 -7.203125 1.359375 -7.203125 C 1.410156 -7.203125 1.445312 -7.191406 1.46875 -7.171875 C 1.488281 -7.160156 1.5 -7.125 1.5 -7.0625 L 1.5 -3.734375 C 1.59375 -3.785156 1.664062 -3.828125 1.71875 -3.859375 L 1.859375 -3.921875 C 2.273438 -4.128906 2.65625 -4.234375 3 -4.234375 C 3.351562 -4.234375 3.703125 -4.109375 4.046875 -3.859375 C 4.203125 -3.742188 4.328125 -3.601562 4.421875 -3.4375 C 4.523438 -3.269531 4.578125 -3.101562 4.578125 -2.9375 L 4.578125 -0.765625 C 4.578125 -0.753906 4.578125 -0.722656 4.578125 -0.671875 C 4.578125 -0.628906 4.578125 -0.597656 4.578125 -0.578125 C 4.597656 -0.390625 4.660156 -0.273438 4.765625 -0.234375 C 4.867188 -0.191406 4.921875 -0.15625 4.921875 -0.125 C 4.921875 -0.0390625 4.898438 0 4.859375 0 L 3.5625 0 C 3.53125 0 3.515625 -0.0234375 3.515625 -0.078125 C 3.515625 -0.128906 3.523438 -0.160156 3.546875 -0.171875 C 3.566406 -0.191406 3.597656 -0.207031 3.640625 -0.21875 C 3.679688 -0.238281 3.710938 -0.257812 3.734375 -0.28125 C 3.753906 -0.300781 3.773438 -0.328125 3.796875 -0.359375 C 3.816406 -0.390625 3.828125 -0.421875 3.828125 -0.453125 C 3.835938 -0.492188 3.84375 -0.523438 3.84375 -0.546875 C 3.84375 -0.566406 3.84375 -0.601562 3.84375 -0.65625 C 3.84375 -0.71875 3.84375 -0.753906 3.84375 -0.765625 L 3.84375 -2.828125 C 3.84375 -3.003906 3.785156 -3.15625 3.671875 -3.28125 C 3.441406 -3.53125 3.125 -3.65625 2.71875 -3.65625 C 2.3125 -3.65625 1.90625 -3.550781 1.5 -3.34375 L 1.5 -0.765625 C 1.5 -0.753906 1.5 -0.722656 1.5 -0.671875 C 1.5 -0.628906 1.5 -0.597656 1.5 -0.578125 C 1.519531 -0.390625 1.582031 -0.273438 1.6875 -0.234375 C 1.789062 -0.191406 1.84375 -0.15625 1.84375 -0.125 C 1.84375 -0.0390625 1.820312 0 1.78125 0 L 0.484375 0 C 0.453125 0 0.4375 -0.0234375 0.4375 -0.078125 C 0.4375 -0.128906 0.445312 -0.160156 0.46875 -0.171875 C 0.488281 -0.191406 0.515625 -0.207031 0.546875 -0.21875 C 0.585938 -0.238281 0.617188 -0.257812 0.640625 -0.28125 C 0.734375 -0.363281 0.78125 -0.460938 0.78125 -0.578125 C 0.78125 -0.691406 0.78125 -0.753906 0.78125 -0.765625 L 0.78125 -6.109375 C 0.78125 -6.203125 0.753906 -6.269531 0.703125 -6.3125 C 0.660156 -6.351562 0.613281 -6.375 0.5625 -6.375 C 0.507812 -6.375 0.472656 -6.382812 0.453125 -6.40625 C 0.421875 -6.414062 0.40625 -6.4375 0.40625 -6.46875 Z M 0.40625 -6.46875 "/></g></g></g><g fill="#f6822d" fill-opacity="1"><g transform="translate(140.990204, 150.964984)"><g><path d="M 1.46875 -6.375 L 1.46875 -6.015625 C 1.46875 -5.992188 1.457031 -5.972656 1.4375 -5.953125 C 1.425781 -5.941406 1.363281 -5.914062 1.25 -5.875 C 1.144531 -5.832031 1.066406 -5.796875 1.015625 -5.765625 C 0.960938 -5.742188 0.914062 -5.726562 0.875 -5.71875 C 0.84375 -5.707031 0.820312 -5.707031 0.8125 -5.71875 C 0.800781 -5.726562 0.796875 -5.785156 0.796875 -5.890625 L 0.796875 -6.3125 C 0.796875 -6.3125 0.796875 -6.320312 0.796875 -6.34375 C 0.796875 -6.363281 0.796875 -6.375 0.796875 -6.375 C 0.796875 -6.382812 0.796875 -6.394531 0.796875 -6.40625 C 0.796875 -6.414062 0.800781 -6.425781 0.8125 -6.4375 C 0.832031 -6.445312 0.894531 -6.472656 1 -6.515625 C 1.113281 -6.554688 1.195312 -6.59375 1.25 -6.625 C 1.363281 -6.675781 1.425781 -6.695312 1.4375 -6.6875 C 1.457031 -6.675781 1.46875 -6.570312 1.46875 -6.375 Z M 0.46875 0 C 0.425781 0 0.40625 -0.0234375 0.40625 -0.078125 C 0.40625 -0.128906 0.414062 -0.160156 0.4375 -0.171875 C 0.46875 -0.191406 0.5 -0.207031 0.53125 -0.21875 C 0.675781 -0.28125 0.75 -0.421875 0.75 -0.640625 L 0.75 -3.09375 C 0.75 -3.1875 0.722656 -3.253906 0.671875 -3.296875 C 0.628906 -3.335938 0.582031 -3.359375 0.53125 -3.359375 C 0.476562 -3.359375 0.441406 -3.363281 0.421875 -3.375 C 0.398438 -3.394531 0.390625 -3.425781 0.390625 -3.46875 C 0.390625 -3.519531 0.390625 -3.546875 0.390625 -3.546875 C 0.398438 -3.554688 0.410156 -3.566406 0.421875 -3.578125 C 0.429688 -3.585938 0.441406 -3.59375 0.453125 -3.59375 L 1.234375 -4.171875 C 1.253906 -4.191406 1.269531 -4.195312 1.28125 -4.1875 C 1.300781 -4.175781 1.335938 -4.160156 1.390625 -4.140625 C 1.453125 -4.128906 1.484375 -4.097656 1.484375 -4.046875 L 1.484375 -0.625 C 1.484375 -0.414062 1.554688 -0.28125 1.703125 -0.21875 C 1.785156 -0.1875 1.828125 -0.15625 1.828125 -0.125 C 1.828125 -0.0390625 1.804688 0 1.765625 0 Z M 0.46875 0 "/></g></g></g><g fill="#f6822d" fill-opacity="1"><g transform="translate(143.533394, 150.964984)"><g><path d="M 0.453125 0 C 0.410156 0 0.390625 -0.0234375 0.390625 -0.078125 C 0.390625 -0.128906 0.398438 -0.160156 0.421875 -0.171875 C 0.453125 -0.191406 0.484375 -0.207031 0.515625 -0.21875 C 0.554688 -0.238281 0.585938 -0.257812 0.609375 -0.28125 C 0.703125 -0.363281 0.742188 -0.460938 0.734375 -0.578125 C 0.734375 -0.691406 0.734375 -0.753906 0.734375 -0.765625 L 0.734375 -3.09375 C 0.734375 -3.1875 0.707031 -3.253906 0.65625 -3.296875 C 0.613281 -3.335938 0.566406 -3.359375 0.515625 -3.359375 C 0.460938 -3.359375 0.425781 -3.363281 0.40625 -3.375 C 0.394531 -3.394531 0.382812 -3.410156 0.375 -3.421875 C 0.375 -3.429688 0.375 -3.441406 0.375 -3.453125 C 0.375 -3.460938 0.375 -3.472656 0.375 -3.484375 C 0.375 -3.503906 0.375 -3.519531 0.375 -3.53125 C 0.375 -3.539062 0.375 -3.546875 0.375 -3.546875 C 0.382812 -3.554688 0.394531 -3.566406 0.40625 -3.578125 C 0.414062 -3.585938 0.425781 -3.59375 0.4375 -3.59375 L 1.21875 -4.171875 C 1.226562 -4.179688 1.257812 -4.1875 1.3125 -4.1875 C 1.363281 -4.1875 1.398438 -4.179688 1.421875 -4.171875 C 1.453125 -4.160156 1.46875 -4.117188 1.46875 -4.046875 L 1.46875 -3.734375 L 1.6875 -3.859375 L 1.828125 -3.921875 C 2.234375 -4.128906 2.613281 -4.234375 2.96875 -4.234375 C 3.320312 -4.234375 3.671875 -4.109375 4.015625 -3.859375 C 4.171875 -3.742188 4.296875 -3.601562 4.390625 -3.4375 C 4.492188 -3.269531 4.546875 -3.101562 4.546875 -2.9375 L 4.546875 -0.578125 C 4.546875 -0.515625 4.5625 -0.445312 4.59375 -0.375 C 4.625 -0.300781 4.675781 -0.25 4.75 -0.21875 C 4.832031 -0.1875 4.875 -0.15625 4.875 -0.125 C 4.875 -0.0390625 4.859375 0 4.828125 0 L 3.53125 0 C 3.5 0 3.484375 -0.0234375 3.484375 -0.078125 C 3.484375 -0.128906 3.492188 -0.160156 3.515625 -0.171875 C 3.546875 -0.191406 3.578125 -0.207031 3.609375 -0.21875 C 3.648438 -0.238281 3.679688 -0.257812 3.703125 -0.28125 C 3.722656 -0.300781 3.742188 -0.328125 3.765625 -0.359375 C 3.785156 -0.390625 3.796875 -0.421875 3.796875 -0.453125 C 3.804688 -0.492188 3.8125 -0.523438 3.8125 -0.546875 C 3.8125 -0.566406 3.8125 -0.601562 3.8125 -0.65625 C 3.8125 -0.71875 3.8125 -0.753906 3.8125 -0.765625 L 3.8125 -2.828125 C 3.8125 -2.992188 3.753906 -3.144531 3.640625 -3.28125 C 3.410156 -3.53125 3.09375 -3.65625 2.6875 -3.65625 C 2.28125 -3.65625 1.875 -3.550781 1.46875 -3.34375 L 1.46875 -0.578125 C 1.46875 -0.515625 1.484375 -0.445312 1.515625 -0.375 C 1.546875 -0.300781 1.601562 -0.25 1.6875 -0.21875 C 1.769531 -0.1875 1.8125 -0.15625 1.8125 -0.125 C 1.8125 -0.0390625 1.789062 0 1.75 0 Z M 0.453125 0 "/></g></g></g><g fill="#f6822d" fill-opacity="1"><g transform="translate(149.012321, 150.964984)"><g><path d="M 1.28125 -1.171875 C 1.1875 -1.140625 1.203125 -1.078125 1.328125 -0.984375 C 1.460938 -0.898438 1.664062 -0.828125 1.9375 -0.765625 C 2.21875 -0.703125 2.453125 -0.65625 2.640625 -0.625 C 2.835938 -0.59375 3.039062 -0.546875 3.25 -0.484375 C 3.46875 -0.421875 3.648438 -0.347656 3.796875 -0.265625 C 3.953125 -0.191406 4.082031 -0.0859375 4.1875 0.046875 C 4.289062 0.191406 4.34375 0.359375 4.34375 0.546875 C 4.34375 0.734375 4.296875 0.90625 4.203125 1.0625 C 3.921875 1.5625 3.242188 1.8125 2.171875 1.8125 C 1.679688 1.8125 1.238281 1.691406 0.84375 1.453125 C 0.457031 1.222656 0.222656 0.894531 0.140625 0.46875 L 0.140625 0.40625 C 0.140625 0.382812 0.140625 0.367188 0.140625 0.359375 L 0.890625 -0.296875 C 0.921875 -0.296875 0.953125 -0.273438 0.984375 -0.234375 C 1.023438 -0.191406 1.046875 -0.160156 1.046875 -0.140625 C 1.046875 -0.117188 1.019531 -0.0820312 0.96875 -0.03125 C 0.925781 0.0078125 0.90625 0.132812 0.90625 0.34375 C 0.90625 0.5625 0.992188 0.753906 1.171875 0.921875 C 1.347656 1.097656 1.554688 1.21875 1.796875 1.28125 C 2.316406 1.363281 2.765625 1.335938 3.140625 1.203125 C 3.265625 1.148438 3.367188 1.070312 3.453125 0.96875 C 3.535156 0.863281 3.578125 0.753906 3.578125 0.640625 C 3.578125 0.523438 3.519531 0.429688 3.40625 0.359375 C 3.238281 0.265625 2.832031 0.144531 2.1875 0 C 1.539062 -0.15625 1.0625 -0.300781 0.75 -0.4375 C 0.675781 -0.46875 0.640625 -0.488281 0.640625 -0.5 C 0.640625 -0.519531 0.679688 -0.613281 0.765625 -0.78125 C 0.859375 -0.945312 0.960938 -1.113281 1.078125 -1.28125 C 0.878906 -1.425781 0.71875 -1.609375 0.59375 -1.828125 C 0.46875 -2.054688 0.40625 -2.296875 0.40625 -2.546875 C 0.40625 -3.046875 0.5625 -3.445312 0.875 -3.75 C 1.1875 -4.0625 1.570312 -4.21875 2.03125 -4.21875 C 2.488281 -4.21875 2.867188 -4.070312 3.171875 -3.78125 L 3.1875 -3.796875 C 3.300781 -4.035156 3.359375 -4.160156 3.359375 -4.171875 C 3.367188 -4.179688 3.378906 -4.1875 3.390625 -4.1875 L 4.125 -4.1875 C 4.144531 -4.1875 4.164062 -4.164062 4.1875 -4.125 C 4.207031 -4.082031 4.210938 -4.054688 4.203125 -4.046875 C 4.128906 -4.015625 4.046875 -3.976562 3.953125 -3.9375 C 3.753906 -3.851562 3.585938 -3.675781 3.453125 -3.40625 C 3.585938 -3.15625 3.65625 -2.890625 3.65625 -2.609375 C 3.65625 -2.148438 3.5 -1.765625 3.1875 -1.453125 C 2.875 -1.140625 2.472656 -0.984375 1.984375 -0.984375 C 1.742188 -0.984375 1.507812 -1.046875 1.28125 -1.171875 Z M 1.78125 -3.6875 C 1.21875 -3.6875 0.9375 -3.378906 0.9375 -2.765625 C 0.9375 -2.410156 1.070312 -2.109375 1.34375 -1.859375 C 1.613281 -1.617188 1.90625 -1.5 2.21875 -1.5 C 2.539062 -1.5 2.765625 -1.566406 2.890625 -1.703125 C 3.023438 -1.847656 3.09375 -2.085938 3.09375 -2.421875 C 3.09375 -2.753906 2.96875 -3.046875 2.71875 -3.296875 C 2.46875 -3.554688 2.15625 -3.6875 1.78125 -3.6875 Z M 1.78125 -3.6875 "/></g></g></g><g fill="#f6822d" fill-opacity="1"><g transform="translate(153.761709, 150.964984)"><g/></g></g><g fill="#f6822d" fill-opacity="1"><g transform="translate(156.326873, 150.964984)"><g><path d="M 1.515625 -0.046875 C 1.429688 -0.0664062 1.335938 -0.09375 1.234375 -0.125 C 1.128906 -0.164062 1.0625 -0.1875 1.03125 -0.1875 L 0.96875 -0.1875 C 0.863281 -0.1875 0.785156 -0.128906 0.734375 -0.015625 C 0.734375 -0.00390625 0.734375 0 0.734375 0 L 0.59375 0 C 0.582031 0 0.570312 -0.00390625 0.5625 -0.015625 L 0.1875 -1.3125 C 0.175781 -1.375 0.222656 -1.40625 0.328125 -1.40625 C 0.367188 -1.40625 0.394531 -1.394531 0.40625 -1.375 C 0.414062 -1.363281 0.425781 -1.351562 0.4375 -1.34375 C 0.445312 -1.34375 0.460938 -1.328125 0.484375 -1.296875 C 0.867188 -0.816406 1.429688 -0.578125 2.171875 -0.578125 C 2.566406 -0.578125 2.894531 -0.679688 3.15625 -0.890625 C 3.414062 -1.097656 3.546875 -1.398438 3.546875 -1.796875 C 3.546875 -2.066406 3.5 -2.269531 3.40625 -2.40625 C 3.320312 -2.539062 3.253906 -2.640625 3.203125 -2.703125 C 3.085938 -2.847656 2.804688 -3.046875 2.359375 -3.296875 C 1.910156 -3.546875 1.550781 -3.769531 1.28125 -3.96875 C 0.582031 -4.476562 0.234375 -5 0.234375 -5.53125 C 0.234375 -6.070312 0.398438 -6.488281 0.734375 -6.78125 C 1.066406 -7.070312 1.507812 -7.21875 2.0625 -7.21875 C 2.375 -7.21875 2.703125 -7.132812 3.046875 -6.96875 C 3.210938 -6.882812 3.332031 -6.828125 3.40625 -6.796875 C 3.476562 -6.773438 3.53125 -6.789062 3.5625 -6.84375 C 3.59375 -6.90625 3.613281 -6.9375 3.625 -6.9375 C 3.75 -6.957031 3.8125 -6.9375 3.8125 -6.875 L 3.953125 -5.46875 C 3.953125 -5.445312 3.882812 -5.4375 3.75 -5.4375 C 3.726562 -5.4375 3.707031 -5.460938 3.6875 -5.515625 C 3.601562 -5.804688 3.394531 -6.050781 3.0625 -6.25 C 2.726562 -6.445312 2.394531 -6.546875 2.0625 -6.546875 C 1.34375 -6.546875 0.984375 -6.253906 0.984375 -5.671875 C 0.984375 -5.242188 1.367188 -4.820312 2.140625 -4.40625 L 2.984375 -3.953125 C 3.492188 -3.671875 3.847656 -3.363281 4.046875 -3.03125 C 4.253906 -2.707031 4.359375 -2.359375 4.359375 -1.984375 L 4.359375 -1.9375 C 4.285156 -1.425781 4.203125 -1.082031 4.109375 -0.90625 C 3.929688 -0.601562 3.6875 -0.363281 3.375 -0.1875 C 3.0625 -0.0078125 2.707031 0.078125 2.3125 0.078125 C 2.09375 0.078125 1.910156 0.0546875 1.765625 0.015625 Z M 1.515625 -0.046875 "/></g></g></g><g fill="#f6822d" fill-opacity="1"><g transform="translate(161.181737, 150.964984)"><g><path d="M 0.953125 -4.96875 C 0.960938 -5.03125 1.015625 -5.0625 1.109375 -5.0625 C 1.210938 -5.0625 1.265625 -5.03125 1.265625 -4.96875 L 1.265625 -4.1875 L 2.046875 -4.1875 C 2.191406 -4.1875 2.265625 -4.164062 2.265625 -4.125 L 2.265625 -3.75 C 2.265625 -3.707031 2.191406 -3.6875 2.046875 -3.6875 L 1.265625 -3.6875 L 1.265625 -0.953125 C 1.265625 -0.609375 1.367188 -0.414062 1.578125 -0.375 C 1.734375 -0.34375 1.894531 -0.398438 2.0625 -0.546875 C 2.125 -0.609375 2.164062 -0.625 2.1875 -0.59375 C 2.21875 -0.5625 2.238281 -0.535156 2.25 -0.515625 C 2.269531 -0.503906 2.28125 -0.488281 2.28125 -0.46875 C 2.28125 -0.445312 2.28125 -0.4375 2.28125 -0.4375 C 2.28125 -0.414062 2.265625 -0.390625 2.234375 -0.359375 L 2.140625 -0.28125 C 1.828125 -0.0078125 1.523438 0.109375 1.234375 0.078125 C 0.953125 0.0546875 0.753906 -0.109375 0.640625 -0.421875 C 0.578125 -0.585938 0.546875 -0.796875 0.546875 -1.046875 L 0.546875 -3.6875 L 0.34375 -3.6875 C 0.1875 -3.6875 0.109375 -3.707031 0.109375 -3.75 L 0.109375 -4.125 C 0.109375 -4.164062 0.171875 -4.1875 0.296875 -4.1875 C 0.515625 -4.1875 0.671875 -4.257812 0.765625 -4.40625 C 0.859375 -4.5625 0.921875 -4.75 0.953125 -4.96875 Z M 0.953125 -4.96875 "/></g></g></g><g fill="#f6822d" fill-opacity="1"><g transform="translate(163.834797, 150.964984)"><g><path d="M 1.421875 -3.5 C 1.234375 -3.382812 1.09375 -3.226562 1 -3.03125 C 0.914062 -2.832031 0.875 -2.582031 0.875 -2.28125 C 0.875 -1.988281 0.957031 -1.691406 1.125 -1.390625 C 1.289062 -1.085938 1.515625 -0.847656 1.796875 -0.671875 C 2.085938 -0.503906 2.375 -0.421875 2.65625 -0.421875 C 2.945312 -0.421875 3.179688 -0.484375 3.359375 -0.609375 C 3.546875 -0.742188 3.6875 -0.910156 3.78125 -1.109375 C 3.875 -1.316406 3.921875 -1.546875 3.921875 -1.796875 C 3.921875 -2.316406 3.753906 -2.757812 3.421875 -3.125 C 3.097656 -3.5 2.65625 -3.6875 2.09375 -3.6875 C 1.84375 -3.6875 1.617188 -3.625 1.421875 -3.5 Z M 0.890625 -0.53125 C 0.691406 -0.71875 0.53125 -0.941406 0.40625 -1.203125 C 0.289062 -1.472656 0.234375 -1.785156 0.234375 -2.140625 C 0.234375 -2.503906 0.328125 -2.851562 0.515625 -3.1875 C 0.703125 -3.53125 0.96875 -3.796875 1.3125 -3.984375 C 1.65625 -4.179688 2.015625 -4.28125 2.390625 -4.28125 C 3.066406 -4.28125 3.601562 -4.066406 4 -3.640625 C 4.40625 -3.210938 4.609375 -2.691406 4.609375 -2.078125 C 4.617188 -1.472656 4.410156 -0.960938 3.984375 -0.546875 C 3.554688 -0.128906 3.019531 0.078125 2.375 0.078125 C 2.09375 0.078125 1.820312 0.0234375 1.5625 -0.078125 C 1.3125 -0.191406 1.085938 -0.34375 0.890625 -0.53125 Z M 0.890625 -0.53125 "/></g></g></g><g fill="#f6822d" fill-opacity="1"><g transform="translate(169.001692, 150.964984)"><g><path d="M 0.375 -3.453125 L 0.390625 -3.53125 C 0.390625 -3.550781 0.394531 -3.566406 0.40625 -3.578125 C 0.425781 -3.585938 0.4375 -3.59375 0.4375 -3.59375 L 1.234375 -4.171875 C 1.242188 -4.179688 1.273438 -4.1875 1.328125 -4.1875 C 1.378906 -4.1875 1.414062 -4.179688 1.4375 -4.171875 C 1.457031 -4.160156 1.46875 -4.117188 1.46875 -4.046875 L 1.46875 -3.296875 C 1.488281 -3.328125 1.515625 -3.359375 1.546875 -3.390625 C 1.753906 -3.648438 1.972656 -3.851562 2.203125 -4 C 2.429688 -4.144531 2.691406 -4.21875 2.984375 -4.21875 C 3.078125 -4.21875 3.128906 -4.207031 3.140625 -4.1875 C 3.191406 -4.050781 3.234375 -3.921875 3.265625 -3.796875 L 3.390625 -3.28125 C 3.398438 -3.25 3.378906 -3.21875 3.328125 -3.1875 C 3.273438 -3.15625 3.234375 -3.140625 3.203125 -3.140625 C 3.171875 -3.148438 3.140625 -3.179688 3.109375 -3.234375 L 3.0625 -3.3125 C 2.90625 -3.457031 2.722656 -3.515625 2.515625 -3.484375 C 2.304688 -3.453125 2.109375 -3.375 1.921875 -3.25 C 1.734375 -3.125 1.59375 -2.992188 1.5 -2.859375 C 1.5 -2.847656 1.492188 -2.832031 1.484375 -2.8125 C 1.472656 -2.800781 1.46875 -2.789062 1.46875 -2.78125 L 1.46875 -0.765625 C 1.46875 -0.753906 1.46875 -0.722656 1.46875 -0.671875 C 1.46875 -0.628906 1.46875 -0.597656 1.46875 -0.578125 C 1.488281 -0.390625 1.550781 -0.273438 1.65625 -0.234375 C 1.757812 -0.191406 1.8125 -0.15625 1.8125 -0.125 C 1.8125 -0.0390625 1.796875 0 1.765625 0 L 0.453125 0 C 0.421875 0 0.40625 -0.0234375 0.40625 -0.078125 C 0.40625 -0.128906 0.414062 -0.160156 0.4375 -0.171875 C 0.457031 -0.191406 0.484375 -0.207031 0.515625 -0.21875 C 0.554688 -0.238281 0.585938 -0.257812 0.609375 -0.28125 C 0.648438 -0.320312 0.679688 -0.367188 0.703125 -0.421875 C 0.734375 -0.484375 0.75 -0.550781 0.75 -0.625 C 0.75 -0.707031 0.75 -0.753906 0.75 -0.765625 L 0.75 -3.09375 C 0.75 -3.1875 0.722656 -3.253906 0.671875 -3.296875 C 0.628906 -3.335938 0.582031 -3.359375 0.53125 -3.359375 C 0.476562 -3.359375 0.441406 -3.367188 0.421875 -3.390625 C 0.390625 -3.410156 0.375 -3.429688 0.375 -3.453125 Z M 0.375 -3.453125 "/></g></g></g><g fill="#f6822d" fill-opacity="1"><g transform="translate(172.788616, 150.964984)"><g><path d="M 3.390625 -3.046875 C 3.210938 -3.546875 2.835938 -3.796875 2.265625 -3.796875 C 2.003906 -3.796875 1.765625 -3.722656 1.546875 -3.578125 C 1.328125 -3.441406 1.160156 -3.265625 1.046875 -3.046875 C 0.929688 -2.835938 0.875 -2.632812 0.875 -2.4375 C 0.875 -2.25 0.878906 -2.160156 0.890625 -2.171875 L 3.375 -3.03125 L 3.375 -3.0625 Z M 0.984375 -1.703125 C 1.109375 -1.359375 1.320312 -1.085938 1.625 -0.890625 C 1.925781 -0.691406 2.265625 -0.59375 2.640625 -0.59375 C 3.128906 -0.59375 3.570312 -0.820312 3.96875 -1.28125 C 4.03125 -1.332031 4.117188 -1.300781 4.234375 -1.1875 C 4.242188 -1.175781 4.242188 -1.160156 4.234375 -1.140625 C 3.898438 -0.679688 3.640625 -0.382812 3.453125 -0.25 C 3.140625 -0.03125 2.78125 0.078125 2.375 0.078125 C 2.09375 0.078125 1.820312 0.0195312 1.5625 -0.09375 C 1.03125 -0.320312 0.648438 -0.695312 0.421875 -1.21875 C 0.296875 -1.476562 0.234375 -1.785156 0.234375 -2.140625 C 0.234375 -2.503906 0.328125 -2.851562 0.515625 -3.1875 C 0.703125 -3.53125 0.96875 -3.796875 1.3125 -3.984375 C 1.65625 -4.179688 2.054688 -4.28125 2.515625 -4.28125 C 3.054688 -4.28125 3.546875 -4.023438 3.984375 -3.515625 C 4.191406 -3.253906 4.296875 -3.050781 4.296875 -2.90625 Z M 0.984375 -1.703125 "/></g></g></g></svg>