<svg xmlns="http://www.w3.org/2000/svg" xmlns:xlink="http://www.w3.org/1999/xlink" width="344" zoomAndPan="magnify" viewBox="0 0 258 155.999997" height="208" preserveAspectRatio="xMidYMid meet" version="1.0"><defs><g/><clipPath id="21dcdd3393"><path d="M 1 1 L 256 1 L 256 106.5 L 1 106.5 Z M 1 1 " clip-rule="nonzero"/></clipPath><clipPath id="a28096df37"><path d="M 204.792969 80.886719 L 256 80.886719 L 256 132.636719 L 204.792969 132.636719 Z M 204.792969 80.886719 " clip-rule="nonzero"/></clipPath><clipPath id="956bc938ce"><path d="M 1 78.59375 L 49.5 78.59375 L 49.5 132.59375 L 1 132.59375 Z M 1 78.59375 " clip-rule="nonzero"/></clipPath></defs><g fill="#000000" fill-opacity="1"><g transform="translate(54.310304, 128.820587)"><g><path d="M 0 -15 L 10.703125 -15 L 10.703125 -13.3125 C 10.035156 -13.46875 9.382812 -13.625 8.75 -13.78125 C 8.125 -13.9375 7.472656 -14.082031 6.796875 -14.21875 C 6.117188 -14.351562 5.363281 -14.460938 4.53125 -14.546875 C 3.695312 -14.640625 2.738281 -14.6875 1.65625 -14.6875 L 1.65625 -8.546875 C 2.007812 -8.972656 2.429688 -9.265625 2.921875 -9.421875 C 3.410156 -9.578125 3.90625 -9.601562 4.40625 -9.5 C 4.738281 -9.4375 5.0625 -9.328125 5.375 -9.171875 C 5.695312 -9.023438 6.015625 -8.882812 6.328125 -8.75 C 6.648438 -8.613281 6.988281 -8.515625 7.34375 -8.453125 C 7.644531 -8.398438 7.953125 -8.40625 8.265625 -8.46875 C 8.578125 -8.539062 8.773438 -8.785156 8.859375 -9.203125 C 9.015625 -8.484375 8.960938 -7.925781 8.703125 -7.53125 C 8.441406 -7.132812 8.066406 -6.90625 7.578125 -6.84375 C 7.097656 -6.789062 6.640625 -6.851562 6.203125 -7.03125 C 5.773438 -7.21875 5.359375 -7.445312 4.953125 -7.71875 C 4.554688 -8 4.164062 -8.234375 3.78125 -8.421875 C 3.394531 -8.617188 3.007812 -8.695312 2.625 -8.65625 C 2.382812 -8.632812 2.160156 -8.550781 1.953125 -8.40625 C 1.753906 -8.257812 1.65625 -8.035156 1.65625 -7.734375 L 1.65625 0 L 0 0 Z M 0 -15 "/></g></g></g><g fill="#000000" fill-opacity="1"><g transform="translate(66.745205, 128.820587)"><g><path d="M 6.640625 -15 L 13.359375 0 L 11.546875 0 L 9.0625 -5.5 C 9.0625 -4.800781 8.953125 -4.125 8.734375 -3.46875 C 8.515625 -2.8125 8.191406 -2.222656 7.765625 -1.703125 C 7.335938 -1.179688 6.804688 -0.765625 6.171875 -0.453125 C 5.546875 -0.148438 4.828125 0 4.015625 0 C 3.140625 0 2.382812 -0.1875 1.75 -0.5625 C 1.125 -0.945312 0.660156 -1.46875 0.359375 -2.125 C 0.0546875 -2.789062 -0.046875 -3.539062 0.046875 -4.375 C 0.109375 -4.988281 0.257812 -5.585938 0.5 -6.171875 C 0.75 -6.753906 1.039062 -7.316406 1.375 -7.859375 C 1.707031 -8.410156 2.039062 -8.929688 2.375 -9.421875 C 2.789062 -10.035156 3.160156 -10.617188 3.484375 -11.171875 C 3.816406 -11.734375 4.09375 -12.320312 4.3125 -12.9375 C 4.539062 -13.5625 4.703125 -14.25 4.796875 -15 Z M 8.59375 -6.515625 L 5.046875 -14.453125 C 4.890625 -13.628906 4.648438 -12.847656 4.328125 -12.109375 C 4.003906 -11.367188 3.628906 -10.625 3.203125 -9.875 C 2.910156 -9.34375 2.601562 -8.773438 2.28125 -8.171875 C 1.957031 -7.566406 1.695312 -6.945312 1.5 -6.3125 C 1.300781 -5.675781 1.234375 -5.039062 1.296875 -4.40625 C 1.367188 -3.75 1.578125 -3.171875 1.921875 -2.671875 C 2.273438 -2.171875 2.742188 -1.804688 3.328125 -1.578125 C 3.921875 -1.347656 4.601562 -1.300781 5.375 -1.4375 C 5.875 -1.519531 6.359375 -1.738281 6.828125 -2.09375 C 7.304688 -2.457031 7.710938 -2.890625 8.046875 -3.390625 C 8.390625 -3.898438 8.617188 -4.425781 8.734375 -4.96875 C 8.859375 -5.519531 8.8125 -6.035156 8.59375 -6.515625 Z M 8.59375 -6.515625 "/></g></g></g><g fill="#000000" fill-opacity="1"><g transform="translate(81.239286, 128.820587)"><g><path d="M 0 -15 L 7.265625 -15 C 7.960938 -15 8.625 -14.847656 9.25 -14.546875 C 9.875 -14.242188 10.378906 -13.8125 10.765625 -13.25 C 11.148438 -12.695312 11.34375 -12.015625 11.34375 -11.203125 C 11.34375 -10.265625 11.070312 -9.488281 10.53125 -8.875 C 10 -8.257812 9.34375 -7.84375 8.5625 -7.625 C 9.132812 -7.507812 9.648438 -7.28125 10.109375 -6.9375 C 10.578125 -6.601562 10.953125 -6.175781 11.234375 -5.65625 C 11.515625 -5.132812 11.65625 -4.535156 11.65625 -3.859375 C 11.65625 -3.054688 11.457031 -2.363281 11.0625 -1.78125 C 10.675781 -1.207031 10.160156 -0.765625 9.515625 -0.453125 C 8.878906 -0.148438 8.203125 0 7.484375 0 L 0 0 Z M 6.4375 -7.4375 L 1.65625 -7.4375 L 1.65625 -0.3125 L 6.453125 -0.3125 C 7.640625 -0.3125 8.523438 -0.640625 9.109375 -1.296875 C 9.703125 -1.953125 10 -2.804688 10 -3.859375 C 10 -4.566406 9.828125 -5.191406 9.484375 -5.734375 C 9.148438 -6.273438 8.707031 -6.691406 8.15625 -6.984375 C 7.613281 -7.285156 7.039062 -7.4375 6.4375 -7.4375 Z M 1.65625 -14.6875 L 1.65625 -7.734375 L 6.125 -7.734375 C 7.320312 -7.734375 8.210938 -8.050781 8.796875 -8.6875 C 9.390625 -9.320312 9.6875 -10.160156 9.6875 -11.203125 C 9.6875 -11.910156 9.507812 -12.519531 9.15625 -13.03125 C 8.8125 -13.550781 8.367188 -13.957031 7.828125 -14.25 C 7.285156 -14.539062 6.707031 -14.6875 6.09375 -14.6875 Z M 1.65625 -14.6875 "/></g></g></g><g fill="#000000" fill-opacity="1"><g transform="translate(94.673783, 128.820587)"><g><path d="M 0 -15 L 7.234375 -15 C 7.953125 -15 8.625 -14.84375 9.25 -14.53125 C 9.875 -14.21875 10.378906 -13.773438 10.765625 -13.203125 C 11.148438 -12.628906 11.34375 -11.9375 11.34375 -11.125 C 11.34375 -10.25 11.128906 -9.523438 10.703125 -8.953125 C 10.273438 -8.378906 9.71875 -7.953125 9.03125 -7.671875 C 8.34375 -7.398438 7.597656 -7.265625 6.796875 -7.265625 C 7.117188 -7.117188 7.382812 -6.882812 7.59375 -6.5625 C 8.007812 -6.007812 8.378906 -5.410156 8.703125 -4.765625 C 9.035156 -4.128906 9.347656 -3.5 9.640625 -2.875 C 9.941406 -2.25 10.25 -1.6875 10.5625 -1.1875 C 10.65625 -1.03125 10.796875 -0.816406 10.984375 -0.546875 C 11.179688 -0.285156 11.359375 -0.101562 11.515625 0 L 9.984375 0 C 9.703125 0 9.492188 -0.0390625 9.359375 -0.125 C 9.222656 -0.21875 9.109375 -0.34375 9.015625 -0.5 C 8.515625 -1.4375 8.050781 -2.34375 7.625 -3.21875 C 7.207031 -4.101562 6.695312 -5.007812 6.09375 -5.9375 C 5.257812 -7.21875 4.273438 -7.390625 3.140625 -6.453125 L 2.984375 -6.640625 C 3.359375 -6.960938 3.71875 -7.179688 4.0625 -7.296875 C 4.414062 -7.421875 4.785156 -7.492188 5.171875 -7.515625 C 5.566406 -7.535156 5.984375 -7.554688 6.421875 -7.578125 C 7.523438 -7.648438 8.335938 -8.003906 8.859375 -8.640625 C 9.390625 -9.273438 9.65625 -10.101562 9.65625 -11.125 C 9.65625 -11.832031 9.484375 -12.453125 9.140625 -12.984375 C 8.804688 -13.515625 8.367188 -13.929688 7.828125 -14.234375 C 7.285156 -14.535156 6.707031 -14.6875 6.09375 -14.6875 L 1.65625 -14.6875 L 1.65625 0 L 0 0 Z M 0 -15 "/></g></g></g><g fill="#000000" fill-opacity="1"><g transform="translate(107.588488, 128.820587)"><g><path d="M 0 0 L 0 -15 L 1.65625 -15 L 1.65625 0 Z M 0 0 "/></g></g></g><g fill="#000000" fill-opacity="1"><g transform="translate(111.046932, 128.820587)"><g><path d="M 7.5 -15 C 8.039062 -15 8.582031 -14.945312 9.125 -14.84375 C 9.664062 -14.75 10.1875 -14.585938 10.6875 -14.359375 C 11 -14.210938 11.328125 -14.007812 11.671875 -13.75 C 12.015625 -13.5 12.300781 -13.210938 12.53125 -12.890625 C 12.757812 -12.566406 12.875 -12.207031 12.875 -11.8125 C 12.875 -11.363281 12.722656 -10.988281 12.421875 -10.6875 C 12.128906 -10.382812 11.703125 -10.242188 11.140625 -10.265625 C 11.347656 -10.859375 11.394531 -11.421875 11.28125 -11.953125 C 11.175781 -12.492188 10.941406 -12.96875 10.578125 -13.375 C 10.222656 -13.78125 9.773438 -14.097656 9.234375 -14.328125 C 8.703125 -14.566406 8.125 -14.6875 7.5 -14.6875 C 6.695312 -14.6875 5.941406 -14.5 5.234375 -14.125 C 4.535156 -13.75 3.914062 -13.226562 3.375 -12.5625 C 2.832031 -11.90625 2.410156 -11.144531 2.109375 -10.28125 C 1.804688 -9.414062 1.65625 -8.488281 1.65625 -7.5 C 1.65625 -6.582031 1.785156 -5.710938 2.046875 -4.890625 C 2.316406 -4.066406 2.6875 -3.332031 3.15625 -2.6875 C 3.625 -2.050781 4.164062 -1.535156 4.78125 -1.140625 C 5.488281 -0.679688 6.21875 -0.414062 6.96875 -0.34375 C 7.71875 -0.269531 8.457031 -0.351562 9.1875 -0.59375 C 9.914062 -0.832031 10.597656 -1.1875 11.234375 -1.65625 C 11.867188 -2.132812 12.414062 -2.695312 12.875 -3.34375 L 12.875 -1.65625 C 12.195312 -1.125 11.394531 -0.710938 10.46875 -0.421875 C 9.539062 -0.140625 8.550781 0 7.5 0 C 6.46875 0 5.5 -0.191406 4.59375 -0.578125 C 3.6875 -0.960938 2.890625 -1.5 2.203125 -2.1875 C 1.523438 -2.875 0.988281 -3.671875 0.59375 -4.578125 C 0.195312 -5.484375 0 -6.457031 0 -7.5 C 0 -8.539062 0.191406 -9.515625 0.578125 -10.421875 C 0.960938 -11.328125 1.5 -12.125 2.1875 -12.8125 C 2.875 -13.5 3.671875 -14.035156 4.578125 -14.421875 C 5.484375 -14.804688 6.457031 -15 7.5 -15 Z M 7.5 -15 "/></g></g></g><g fill="#000000" fill-opacity="1"><g transform="translate(125.720952, 128.820587)"><g/></g></g><g fill="#000000" fill-opacity="1"><g transform="translate(130.099032, 128.820587)"><g><path d="M 0 -15 L 10.703125 -15 L 10.703125 -13.3125 C 10.035156 -13.46875 9.382812 -13.625 8.75 -13.78125 C 8.125 -13.9375 7.472656 -14.082031 6.796875 -14.21875 C 6.117188 -14.351562 5.363281 -14.460938 4.53125 -14.546875 C 3.695312 -14.640625 2.738281 -14.6875 1.65625 -14.6875 L 1.65625 -8.546875 C 2.007812 -8.972656 2.429688 -9.265625 2.921875 -9.421875 C 3.410156 -9.578125 3.90625 -9.601562 4.40625 -9.5 C 4.738281 -9.4375 5.0625 -9.328125 5.375 -9.171875 C 5.695312 -9.023438 6.015625 -8.882812 6.328125 -8.75 C 6.648438 -8.613281 6.988281 -8.515625 7.34375 -8.453125 C 7.644531 -8.398438 7.953125 -8.40625 8.265625 -8.46875 C 8.578125 -8.539062 8.773438 -8.785156 8.859375 -9.203125 C 9.015625 -8.484375 8.960938 -7.925781 8.703125 -7.53125 C 8.441406 -7.132812 8.066406 -6.90625 7.578125 -6.84375 C 7.097656 -6.789062 6.640625 -6.851562 6.203125 -7.03125 C 5.773438 -7.21875 5.359375 -7.445312 4.953125 -7.71875 C 4.554688 -8 4.164062 -8.234375 3.78125 -8.421875 C 3.394531 -8.617188 3.007812 -8.695312 2.625 -8.65625 C 2.382812 -8.632812 2.160156 -8.550781 1.953125 -8.40625 C 1.753906 -8.257812 1.65625 -8.035156 1.65625 -7.734375 L 1.65625 0 L 0 0 Z M 0 -15 "/></g></g></g><g fill="#000000" fill-opacity="1"><g transform="translate(142.533935, 128.820587)"><g><path d="M 10 -15 L 11.65625 -15 L 11.65625 0 L 10 0 L 10 -2.71875 C 9.476562 -2.15625 8.867188 -1.671875 8.171875 -1.265625 C 7.484375 -0.859375 6.78125 -0.546875 6.0625 -0.328125 C 5.34375 -0.109375 4.671875 0 4.046875 0 C 2.679688 0 1.664062 -0.289062 1 -0.875 C 0.332031 -1.46875 0 -2.445312 0 -3.8125 L 0 -15 L 1.65625 -15 L 1.65625 -3.8125 C 1.65625 -2.96875 1.804688 -2.296875 2.109375 -1.796875 C 2.410156 -1.304688 2.816406 -0.96875 3.328125 -0.78125 C 3.835938 -0.59375 4.398438 -0.53125 5.015625 -0.59375 C 5.773438 -0.6875 6.5625 -0.921875 7.375 -1.296875 C 8.1875 -1.679688 8.898438 -2.15625 9.515625 -2.71875 C 9.835938 -3.03125 10 -3.390625 10 -3.796875 Z M 10 -15 "/></g></g></g><g fill="#000000" fill-opacity="1"><g transform="translate(155.968429, 128.820587)"><g><path d="M 5.234375 0 C 4.691406 0 4.144531 -0.046875 3.59375 -0.140625 C 3.050781 -0.242188 2.535156 -0.410156 2.046875 -0.640625 C 1.722656 -0.785156 1.390625 -0.976562 1.046875 -1.21875 C 0.710938 -1.46875 0.429688 -1.757812 0.203125 -2.09375 C -0.0234375 -2.425781 -0.140625 -2.789062 -0.140625 -3.1875 C -0.140625 -3.625 0.00390625 -3.988281 0.296875 -4.28125 C 0.585938 -4.582031 1.015625 -4.734375 1.578125 -4.734375 C 1.367188 -4.109375 1.328125 -3.519531 1.453125 -2.96875 C 1.578125 -2.414062 1.828125 -1.941406 2.203125 -1.546875 C 2.628906 -1.085938 3.164062 -0.757812 3.8125 -0.5625 C 4.46875 -0.363281 5.15625 -0.28125 5.875 -0.3125 C 6.59375 -0.34375 7.273438 -0.476562 7.921875 -0.71875 C 8.578125 -0.957031 9.109375 -1.28125 9.515625 -1.6875 C 9.960938 -2.125 10.234375 -2.582031 10.328125 -3.0625 C 10.429688 -3.539062 10.390625 -4.003906 10.203125 -4.453125 C 10.023438 -4.910156 9.734375 -5.316406 9.328125 -5.671875 C 8.921875 -6.035156 8.4375 -6.316406 7.875 -6.515625 C 7.332031 -6.710938 6.726562 -6.867188 6.0625 -6.984375 C 5.40625 -7.097656 4.742188 -7.222656 4.078125 -7.359375 C 3.410156 -7.503906 2.785156 -7.707031 2.203125 -7.96875 C 1.628906 -8.226562 1.140625 -8.597656 0.734375 -9.078125 C 0.328125 -9.585938 0.0859375 -10.164062 0.015625 -10.8125 C -0.046875 -11.46875 0.0664062 -12.078125 0.359375 -12.640625 C 0.597656 -13.117188 0.929688 -13.507812 1.359375 -13.8125 C 1.796875 -14.125 2.273438 -14.363281 2.796875 -14.53125 C 3.328125 -14.707031 3.867188 -14.828125 4.421875 -14.890625 C 4.984375 -14.960938 5.503906 -15 5.984375 -15 C 6.523438 -15 7.066406 -14.945312 7.609375 -14.84375 C 8.160156 -14.75 8.6875 -14.585938 9.1875 -14.359375 C 9.5 -14.210938 9.828125 -14.007812 10.171875 -13.75 C 10.515625 -13.5 10.796875 -13.210938 11.015625 -12.890625 C 11.242188 -12.566406 11.359375 -12.207031 11.359375 -11.8125 C 11.359375 -11.363281 11.210938 -10.988281 10.921875 -10.6875 C 10.628906 -10.382812 10.203125 -10.242188 9.640625 -10.265625 C 9.835938 -10.816406 9.894531 -11.347656 9.8125 -11.859375 C 9.726562 -12.367188 9.53125 -12.816406 9.21875 -13.203125 C 8.882812 -13.648438 8.429688 -13.992188 7.859375 -14.234375 C 7.285156 -14.472656 6.664062 -14.613281 6 -14.65625 C 5.34375 -14.707031 4.707031 -14.660156 4.09375 -14.515625 C 3.644531 -14.421875 3.203125 -14.257812 2.765625 -14.03125 C 2.335938 -13.800781 1.972656 -13.503906 1.671875 -13.140625 C 1.367188 -12.773438 1.191406 -12.34375 1.140625 -11.84375 C 1.085938 -11.28125 1.207031 -10.816406 1.5 -10.453125 C 1.789062 -10.085938 2.179688 -9.789062 2.671875 -9.5625 C 3.160156 -9.34375 3.65625 -9.171875 4.15625 -9.046875 C 4.78125 -8.890625 5.453125 -8.753906 6.171875 -8.640625 C 6.898438 -8.535156 7.601562 -8.378906 8.28125 -8.171875 C 8.96875 -7.972656 9.566406 -7.671875 10.078125 -7.265625 C 10.566406 -6.859375 10.9375 -6.382812 11.1875 -5.84375 C 11.445312 -5.3125 11.570312 -4.753906 11.5625 -4.171875 C 11.550781 -3.585938 11.40625 -3.03125 11.125 -2.5 C 10.84375 -1.96875 10.421875 -1.515625 9.859375 -1.140625 C 9.203125 -0.703125 8.453125 -0.398438 7.609375 -0.234375 C 6.765625 -0.078125 5.972656 0 5.234375 0 Z M 5.234375 0 "/></g></g></g><g fill="#000000" fill-opacity="1"><g transform="translate(169.242991, 128.820587)"><g><path d="M 0 0 L 0 -15 L 1.65625 -15 L 1.65625 0 Z M 0 0 "/></g></g></g><g fill="#000000" fill-opacity="1"><g transform="translate(172.701429, 128.820587)"><g><path d="M 7.265625 -15 C 8.265625 -15 9.203125 -14.804688 10.078125 -14.421875 C 10.960938 -14.035156 11.738281 -13.5 12.40625 -12.8125 C 13.070312 -12.125 13.585938 -11.328125 13.953125 -10.421875 C 14.328125 -9.515625 14.515625 -8.539062 14.515625 -7.5 C 14.515625 -6.457031 14.328125 -5.484375 13.953125 -4.578125 C 13.585938 -3.671875 13.070312 -2.875 12.40625 -2.1875 C 11.738281 -1.5 10.960938 -0.960938 10.078125 -0.578125 C 9.203125 -0.191406 8.265625 0 7.265625 0 C 6.265625 0 5.320312 -0.191406 4.4375 -0.578125 C 3.5625 -0.960938 2.789062 -1.5 2.125 -2.1875 C 1.46875 -2.875 0.945312 -3.671875 0.5625 -4.578125 C 0.1875 -5.484375 0 -6.457031 0 -7.5 C 0 -8.539062 0.1875 -9.515625 0.5625 -10.421875 C 0.945312 -11.328125 1.46875 -12.125 2.125 -12.8125 C 2.789062 -13.5 3.5625 -14.035156 4.4375 -14.421875 C 5.320312 -14.804688 6.265625 -15 7.265625 -15 Z M 7.265625 -14.6875 C 6.484375 -14.6875 5.753906 -14.5 5.078125 -14.125 C 4.410156 -13.75 3.820312 -13.226562 3.3125 -12.5625 C 2.800781 -11.90625 2.394531 -11.144531 2.09375 -10.28125 C 1.800781 -9.414062 1.65625 -8.488281 1.65625 -7.5 C 1.65625 -6.5 1.800781 -5.566406 2.09375 -4.703125 C 2.394531 -3.835938 2.800781 -3.070312 3.3125 -2.40625 C 3.820312 -1.75 4.410156 -1.234375 5.078125 -0.859375 C 5.753906 -0.484375 6.484375 -0.296875 7.265625 -0.296875 C 8.035156 -0.296875 8.757812 -0.484375 9.4375 -0.859375 C 10.113281 -1.234375 10.707031 -1.75 11.21875 -2.40625 C 11.738281 -3.070312 12.140625 -3.835938 12.421875 -4.703125 C 12.710938 -5.566406 12.859375 -6.5 12.859375 -7.5 C 12.859375 -8.488281 12.710938 -9.414062 12.421875 -10.28125 C 12.140625 -11.144531 11.738281 -11.90625 11.21875 -12.5625 C 10.707031 -13.226562 10.113281 -13.75 9.4375 -14.125 C 8.757812 -14.5 8.035156 -14.6875 7.265625 -14.6875 Z M 7.265625 -14.6875 "/></g></g></g><g fill="#000000" fill-opacity="1"><g transform="translate(189.014786, 128.820587)"><g><path d="M 11.65625 0 L 11.359375 0 C 11.347656 -0.65625 11.140625 -1.390625 10.734375 -2.203125 C 10.335938 -3.023438 9.804688 -3.894531 9.140625 -4.8125 C 8.484375 -5.738281 7.757812 -6.671875 6.96875 -7.609375 C 6.175781 -8.546875 5.363281 -9.453125 4.53125 -10.328125 C 3.707031 -11.210938 2.925781 -12.03125 2.1875 -12.78125 C 1.445312 -13.53125 0.816406 -14.164062 0.296875 -14.6875 C 0.304688 -12.9375 0.351562 -11.382812 0.4375 -10.03125 C 0.53125 -8.6875 0.644531 -7.460938 0.78125 -6.359375 C 0.914062 -5.253906 1.0625 -4.191406 1.21875 -3.171875 C 1.375 -2.148438 1.519531 -1.09375 1.65625 0 L 0 0 L 0 -15 L 2.21875 -15 C 3.21875 -13.988281 4.25 -12.929688 5.3125 -11.828125 C 6.382812 -10.734375 7.429688 -9.597656 8.453125 -8.421875 C 9.472656 -7.242188 10.394531 -6.03125 11.21875 -4.78125 C 11.132812 -6.175781 11.023438 -7.429688 10.890625 -8.546875 C 10.753906 -9.671875 10.609375 -10.75 10.453125 -11.78125 C 10.296875 -12.820312 10.144531 -13.894531 10 -15 L 11.65625 -15 Z M 11.65625 0 "/></g></g></g><g clip-path="url(#21dcdd3393)"><path fill="#000000" d="M 251.695312 116.140625 C 247.453125 109.804688 238.390625 105.496094 233.269531 101.019531 C 227.285156 99.671875 222.117188 96.671875 216.933594 94.300781 C 211.460938 91.792969 206.050781 89.746094 200.601562 87.578125 C 184.035156 80.996094 168.25 73.546875 157.042969 61.957031 C 153.164062 57.945312 149.789062 53.011719 147.410156 48.515625 C 145.96875 45.785156 144.859375 40.914062 142.804688 39.695312 C 139.308594 37.613281 132.871094 39.484375 129.402344 38.011719 C 132.648438 26.394531 119.945312 22.21875 120.605469 12.8125 C 121.246094 3.722656 131.769531 3.925781 136.101562 9.03125 C 137.511719 10.691406 138.363281 15.179688 142.386719 13.652344 C 143.773438 11.273438 140.894531 8.648438 139.453125 6.929688 C 137.652344 4.789062 135.472656 2.636719 132.753906 1.890625 C 125.777344 -0.0273438 117.578125 3.8125 116.835938 11.972656 C 115.742188 23.984375 127.585938 24.613281 126.050781 38.011719 C 120.78125 39.390625 114.355469 37.71875 111.390625 39.695312 C 109.570312 40.910156 106.875 48.492188 105.109375 51.453125 C 102.757812 55.402344 99.605469 59.738281 97.152344 62.375 C 84.179688 76.324219 64.09375 81.835938 45.21875 90.097656 C 38.457031 93.058594 31.59375 96.585938 24.699219 100.179688 C 15.394531 105.027344 5.117188 109.738281 2.082031 119.082031 C 1.265625 121.589844 -0.0078125 127.816406 3.339844 130.84375 C 8.160156 132.160156 12.6875 125.3125 17.996094 124.121094 C 20.621094 123.535156 25.429688 124.121094 29.722656 124.121094 L 44.382812 124.121094 C 90.613281 124.121094 154.714844 124.542969 210.652344 124.542969 C 220.226562 124.542969 231.09375 123.402344 238.292969 124.960938 C 243.546875 126.097656 247.058594 132.742188 253.371094 132.101562 C 257.199219 126.863281 254.355469 120.117188 251.695312 116.140625 Z M 139.035156 10.289062 C 136.664062 7.347656 134.683594 4.015625 129.820312 3.570312 C 134.378906 2.640625 137.507812 6.777344 139.035156 10.289062 Z M 126.050781 3.148438 C 126.921875 2.914062 129.25 2.953125 129.402344 3.148438 C 129.8125 3.699219 127.265625 3.398438 126.886719 3.570312 C 125.367188 4.253906 121.105469 6.167969 119.769531 8.191406 C 121.175781 5.363281 124.382812 3.597656 126.050781 3.148438 Z M 118.929688 9.03125 C 120.617188 9.195312 118.617188 12.144531 118.511719 13.230469 C 120.820312 22.238281 129.027344 27.15625 128.144531 38.011719 C 126.082031 36.167969 127.316406 34.800781 126.886719 32.554688 C 125.285156 24.121094 115.5625 20.0625 118.929688 9.03125 Z M 142.386719 40.953125 C 147.460938 50.855469 151.722656 59.382812 159.554688 66.578125 C 171.921875 77.929688 193.265625 85.070312 210.652344 92.617188 C 218.667969 96.101562 224.386719 99.199219 232.429688 102.28125 C 239.554688 107.734375 248.5 111.367188 251.277344 121.183594 C 233.078125 94.34375 184.128906 91.234375 159.558594 69.9375 C 151.527344 62.976562 146.707031 54.585938 141.546875 43.894531 C 134.578125 41.492188 123.457031 39.871094 116 42.632812 C 111.40625 44.335938 111.402344 48.800781 108.460938 51.875 C 106.765625 51.242188 109.695312 48.488281 110.136719 47.253906 C 108.835938 35.765625 132.441406 38.996094 142.386719 40.953125 Z M 12.972656 107.738281 C 41.792969 87.839844 89.480469 83.265625 106.785156 51.035156 C 108.125 52.800781 105.652344 54.671875 104.691406 56.496094 C 106.585938 56.15625 106.832031 54.160156 107.625 52.714844 C 99.898438 71.339844 81.257812 78.707031 61.132812 87.15625 C 51.894531 91.039062 42.417969 95.203125 32.65625 99.757812 C 21.433594 104.996094 8.734375 110.300781 4.175781 121.601562 C 3.960938 115.523438 8.828125 110.601562 12.972656 107.738281 Z M 10.457031 126.222656 C 10.222656 126.96875 9.292969 126.28125 10.039062 126.222656 C 33.839844 112.988281 57.050781 99.160156 81.238281 86.316406 C 58.039062 100.011719 34.367188 113.238281 10.457031 126.222656 Z M 126.886719 62.375 C 130.804688 63.335938 132.308594 63.855469 137.65625 67.394531 C 141.757812 70.105469 145.066406 72.117188 148.667969 74.136719 C 174.722656 88.769531 202.492188 103.625 227.824219 119.5 C 205.714844 118.753906 177.859375 119.445312 154.585938 119.554688 L 141.066406 119.445312 C 109.164062 118.605469 70.496094 118.910156 27.625 118.660156 C 60.140625 99.320312 94.207031 81.546875 126.886719 62.375 Z M 81.65625 86.316406 C 85.125 83.914062 88.800781 81.71875 92.964844 80.015625 C 91.546875 81.152344 85.238281 84.5625 81.65625 86.316406 Z M 93.800781 79.597656 C 97.039062 77.101562 100.816406 75.152344 104.691406 73.296875 C 101.441406 75.78125 97.601562 77.667969 93.800781 79.597656 Z M 23.859375 122.441406 C 25.820312 122.664062 32.105469 120.824219 34.332031 122.859375 C 31.65625 122.375 25.40625 123.515625 23.859375 122.441406 Z M 34.75 122.019531 C 40.3125 122.300781 42.78125 122.207031 47.3125 122.441406 C 44.214844 122.882812 37.160156 123.671875 34.75 122.019531 Z M 48.152344 122.441406 L 50.664062 122.441406 C 82.054688 122.164062 115.613281 123.011719 147.828125 122.019531 C 115.570312 121.808594 70.804688 122.179688 23.859375 121.179688 C 26.964844 119 35.8125 119.320312 42.707031 119.5 C 62.691406 120.023438 91.320312 120.15625 118.917969 119.871094 L 119.167969 119.988281 L 169.679688 120.40625 L 169.609375 120.28125 C 183.902344 120.503906 197.921875 120.472656 210.234375 120.339844 C 217.390625 120.265625 225.046875 119.410156 231.59375 121.601562 C 200.316406 122.472656 175.835938 121.476562 148.246094 122.019531 C 178.621094 123.121094 210.804688 121.925781 233.6875 122.859375 C 164.726562 123.511719 107.78125 123.628906 48.152344 122.441406 Z M 252.113281 130.003906 C 217.882812 110.710938 184.007812 91.054688 149.921875 71.617188 L 146.992188 71.617188 C 141.183594 67.359375 134.222656 64.261719 127.726562 60.695312 C 120.703125 64.152344 114.261719 68.195312 107.625 72.035156 C 97.367188 74.472656 87.582031 81.644531 78.726562 86.738281 C 53.753906 101.089844 28.238281 114.535156 3.339844 128.324219 C 7.28125 109.933594 27.671875 102.046875 43.964844 95.140625 C 57.230469 89.515625 70.761719 84.613281 82.074219 78.757812 C 83.019531 79.734375 79.582031 79.875 79.5625 81.277344 C 90.066406 75.433594 101.285156 66.441406 108.460938 53.976562 C 110.375 50.652344 113.164062 43.769531 116.417969 43.472656 C 121.179688 43.039062 123.382812 48.726562 128.144531 49.355469 C 127.652344 47.609375 125.464844 47.5625 124.375 46.414062 C 126.828125 46.203125 129.566406 49.324219 132.332031 50.195312 C 130.113281 47.242188 126.183594 46.003906 122.699219 44.3125 C 122.410156 45.445312 123.566406 45.125 123.957031 45.574219 C 122.554688 46.265625 120.820312 43.691406 118.929688 43.472656 C 125.910156 41.371094 135.492188 41.84375 141.128906 44.734375 C 144.578125 51.957031 147.800781 58.476562 152.4375 64.054688 C 171.5625 87.074219 210.734375 89.792969 234.523438 108.160156 L 236.617188 108.160156 C 241.558594 112.867188 247.722656 116.34375 250.4375 123.28125 C 248.632812 122.992188 247.867188 121.660156 246.25 121.179688 C 248.148438 124.078125 253.609375 125.03125 252.113281 130.003906 Z M 252.113281 130.003906 " fill-opacity="1" fill-rule="nonzero"/></g><g clip-path="url(#a28096df37)"><path fill="#000000" d="M 251.675781 116.367188 C 247.433594 110.03125 238.371094 105.722656 233.25 101.246094 C 227.265625 99.898438 222.097656 96.898438 216.914062 94.527344 C 211.441406 92.019531 206.03125 89.972656 200.582031 87.804688 C 184.019531 81.222656 168.234375 73.773438 157.023438 62.183594 C 153.144531 58.171875 149.769531 53.238281 147.390625 48.742188 C 145.949219 46.011719 144.839844 41.140625 142.785156 39.921875 C 139.289062 37.839844 132.851562 39.710938 129.382812 38.242188 C 132.628906 26.621094 119.925781 22.445312 120.585938 13.039062 C 121.226562 3.949219 131.75 4.152344 136.082031 9.257812 C 137.492188 10.917969 138.34375 15.40625 142.367188 13.878906 C 143.753906 11.5 140.878906 8.875 139.433594 7.15625 C 137.632812 5.015625 135.453125 2.863281 132.734375 2.117188 C 125.757812 0.199219 117.5625 4.039062 116.820312 12.199219 C 115.726562 24.210938 127.566406 24.84375 126.03125 38.242188 C 120.765625 39.617188 114.339844 37.945312 111.375 39.921875 C 109.550781 41.136719 106.855469 48.71875 105.089844 51.679688 C 102.742188 55.628906 99.585938 59.96875 97.132812 62.601562 C 84.160156 76.550781 64.078125 82.0625 45.199219 90.324219 C 38.441406 93.285156 31.574219 96.8125 24.679688 100.40625 C 15.378906 105.253906 5.097656 109.964844 2.0625 119.308594 C 1.25 121.816406 -0.0273438 128.042969 3.320312 131.070312 C 8.140625 132.386719 12.671875 125.539062 17.976562 124.347656 C 20.601562 123.761719 25.410156 124.347656 29.703125 124.347656 L 44.363281 124.347656 C 90.597656 124.347656 154.695312 124.769531 210.632812 124.769531 C 220.207031 124.769531 231.074219 123.628906 238.273438 125.1875 C 243.527344 126.324219 247.039062 132.96875 253.351562 132.328125 C 257.179688 127.089844 254.339844 120.34375 251.675781 116.367188 Z M 139.015625 10.519531 C 136.644531 7.574219 134.664062 4.242188 129.800781 3.796875 C 134.363281 2.867188 137.488281 7.003906 139.015625 10.519531 Z M 126.03125 3.378906 C 126.902344 3.140625 129.234375 3.179688 129.382812 3.378906 C 129.796875 3.925781 127.25 3.625 126.867188 3.796875 C 125.347656 4.480469 121.089844 6.394531 119.75 8.417969 C 121.15625 5.589844 124.363281 3.824219 126.03125 3.378906 Z M 118.910156 9.257812 C 120.597656 9.421875 118.597656 12.371094 118.492188 13.457031 C 120.804688 22.46875 129.007812 27.382812 128.125 38.242188 C 126.0625 36.394531 127.296875 35.027344 126.867188 32.78125 C 125.269531 24.347656 115.546875 20.289062 118.910156 9.257812 Z M 142.367188 41.179688 C 147.441406 51.082031 151.703125 59.609375 159.539062 66.804688 C 171.902344 78.15625 193.246094 85.296875 210.632812 92.84375 C 218.652344 96.328125 224.367188 99.425781 232.414062 102.507812 C 239.535156 107.960938 248.480469 111.59375 251.257812 121.410156 C 233.0625 94.570312 184.113281 91.460938 159.539062 70.164062 C 151.507812 63.203125 146.6875 54.8125 141.53125 44.121094 C 134.558594 41.71875 123.441406 40.097656 115.980469 42.859375 C 111.390625 44.5625 111.382812 49.027344 108.441406 52.101562 C 106.746094 51.46875 109.675781 48.714844 110.117188 47.480469 C 108.816406 35.992188 132.425781 39.222656 142.367188 41.179688 Z M 12.953125 107.96875 C 41.773438 88.066406 89.460938 83.492188 106.765625 51.261719 C 108.105469 53.027344 105.632812 54.898438 104.671875 56.722656 C 106.566406 56.382812 106.8125 54.386719 107.605469 52.941406 C 99.878906 71.566406 81.238281 78.933594 61.117188 87.386719 C 51.875 91.265625 42.402344 95.429688 32.636719 99.984375 C 21.414062 105.222656 8.714844 110.527344 4.15625 121.828125 C 3.941406 115.75 8.808594 110.828125 12.953125 107.96875 Z M 10.441406 126.449219 C 10.203125 127.195312 9.277344 126.507812 10.019531 126.449219 C 33.820312 113.214844 57.03125 99.386719 81.21875 86.542969 C 58.019531 100.238281 34.347656 113.464844 10.441406 126.449219 Z M 126.871094 62.601562 C 130.785156 63.5625 132.289062 64.082031 137.636719 67.621094 C 141.738281 70.332031 145.046875 72.34375 148.648438 74.363281 C 174.703125 88.996094 202.476562 103.851562 227.804688 119.726562 C 205.699219 118.980469 177.839844 119.671875 154.566406 119.78125 L 141.046875 119.671875 C 109.144531 118.832031 70.476562 119.136719 27.609375 118.886719 C 60.121094 99.546875 94.191406 81.773438 126.867188 62.601562 Z M 81.636719 86.542969 C 85.105469 84.140625 88.78125 81.945312 92.945312 80.246094 C 91.527344 81.378906 85.21875 84.789062 81.636719 86.542969 Z M 93.785156 79.824219 C 97.019531 77.328125 100.796875 75.378906 104.671875 73.523438 C 101.425781 76.007812 97.585938 77.894531 93.785156 79.824219 Z M 23.839844 122.667969 C 25.800781 122.890625 32.085938 121.050781 34.3125 123.085938 C 31.636719 122.601562 25.390625 123.742188 23.839844 122.667969 Z M 34.730469 122.25 C 40.292969 122.527344 42.761719 122.433594 47.296875 122.667969 C 44.195312 123.109375 37.140625 123.898438 34.730469 122.25 Z M 48.132812 122.667969 L 50.644531 122.667969 C 82.039062 122.390625 115.59375 123.238281 147.8125 122.25 C 115.550781 122.035156 70.789062 122.410156 23.839844 121.40625 C 26.945312 119.226562 35.796875 119.546875 42.6875 119.726562 C 62.671875 120.25 91.304688 120.382812 118.898438 120.097656 L 119.148438 120.214844 L 169.660156 120.632812 L 169.589844 120.507812 C 183.886719 120.730469 197.902344 120.699219 210.214844 120.566406 C 217.375 120.492188 225.027344 119.636719 231.574219 121.828125 C 200.296875 122.699219 175.816406 121.703125 148.230469 122.246094 C 178.601562 123.347656 210.785156 122.152344 233.667969 123.085938 C 164.707031 123.738281 107.761719 123.859375 48.132812 122.667969 Z M 252.09375 130.230469 C 217.863281 110.9375 183.988281 91.28125 149.90625 71.84375 L 146.972656 71.84375 C 141.164062 67.585938 134.203125 64.488281 127.707031 60.921875 C 120.683594 64.378906 114.242188 68.421875 107.605469 72.261719 C 97.351562 74.699219 87.5625 81.871094 78.707031 86.964844 C 53.734375 101.316406 28.21875 114.761719 3.320312 128.550781 C 7.261719 110.160156 27.652344 102.273438 43.945312 95.367188 C 57.214844 89.742188 70.742188 84.839844 82.058594 78.984375 C 83.003906 79.960938 79.5625 80.101562 79.542969 81.503906 C 90.046875 75.660156 101.265625 66.667969 108.441406 54.203125 C 110.355469 50.878906 113.144531 43.996094 116.398438 43.699219 C 121.160156 43.265625 123.363281 48.953125 128.125 49.582031 C 127.632812 47.835938 125.445312 47.789062 124.355469 46.640625 C 126.808594 46.429688 129.550781 49.550781 132.316406 50.421875 C 130.09375 47.46875 126.164062 46.230469 122.683594 44.539062 C 122.394531 45.671875 123.546875 45.351562 123.9375 45.800781 C 122.535156 46.492188 120.800781 43.917969 118.914062 43.699219 C 125.890625 41.597656 135.472656 42.070312 141.109375 44.960938 C 144.558594 52.183594 147.78125 58.703125 152.417969 64.28125 C 171.542969 87.300781 210.714844 90.023438 234.503906 108.386719 L 236.597656 108.386719 C 241.539062 113.09375 247.703125 116.570312 250.421875 123.507812 C 248.617188 123.21875 247.847656 121.886719 246.230469 121.40625 C 248.132812 124.304688 253.589844 125.257812 252.09375 130.230469 Z M 252.09375 130.230469 " fill-opacity="1" fill-rule="nonzero"/></g><g clip-path="url(#956bc938ce)"><path fill="#000000" d="M 251.695312 116.359375 C 247.453125 110.027344 238.390625 105.714844 233.269531 101.242188 C 227.285156 99.890625 222.117188 96.894531 216.933594 94.519531 C 211.460938 92.011719 206.050781 89.964844 200.601562 87.796875 C 184.035156 81.21875 168.25 73.769531 157.042969 62.175781 C 153.164062 58.164062 149.789062 53.230469 147.410156 48.734375 C 145.96875 46.007812 144.859375 41.136719 142.804688 39.914062 C 139.308594 37.835938 132.871094 39.703125 129.402344 38.234375 C 132.648438 26.617188 119.945312 22.4375 120.605469 13.03125 C 121.246094 3.941406 131.769531 4.144531 136.101562 9.25 C 137.511719 10.910156 138.363281 15.402344 142.386719 13.871094 C 143.773438 11.492188 140.894531 8.867188 139.453125 7.152344 C 137.652344 5.011719 135.472656 2.859375 132.753906 2.109375 C 125.777344 0.191406 117.578125 4.03125 116.835938 12.191406 C 115.742188 24.203125 127.585938 24.835938 126.050781 38.234375 C 120.78125 39.609375 114.355469 37.9375 111.390625 39.914062 C 109.570312 41.128906 106.875 48.710938 105.109375 51.675781 C 102.757812 55.621094 99.605469 59.960938 97.152344 62.597656 C 84.179688 76.542969 64.09375 82.058594 45.21875 90.320312 C 38.457031 93.277344 31.59375 96.808594 24.699219 100.402344 C 15.394531 105.246094 5.117188 109.957031 2.082031 119.300781 C 1.265625 121.808594 -0.0078125 128.039062 3.339844 131.0625 C 8.160156 132.378906 12.6875 125.53125 17.996094 124.34375 C 20.621094 123.753906 25.429688 124.34375 29.722656 124.34375 L 44.382812 124.34375 C 90.613281 124.34375 154.714844 124.761719 210.652344 124.761719 C 220.226562 124.761719 231.09375 123.625 238.292969 125.179688 C 243.546875 126.320312 247.058594 132.964844 253.371094 132.320312 C 257.199219 127.085938 254.355469 120.335938 251.695312 116.359375 Z M 139.035156 10.511719 C 136.664062 7.566406 134.683594 4.234375 129.820312 3.789062 C 134.378906 2.859375 137.507812 7 139.035156 10.511719 Z M 126.050781 3.371094 C 126.921875 3.136719 129.25 3.171875 129.402344 3.371094 C 129.8125 3.917969 127.265625 3.621094 126.886719 3.789062 C 125.367188 4.476562 121.105469 6.386719 119.769531 8.410156 C 121.175781 5.582031 124.382812 3.820312 126.050781 3.371094 Z M 118.929688 9.25 C 120.617188 9.417969 118.617188 12.363281 118.511719 13.453125 C 120.820312 22.460938 129.027344 27.375 128.144531 38.234375 C 126.082031 36.386719 127.316406 35.019531 126.886719 32.773438 C 125.285156 24.34375 115.5625 20.285156 118.929688 9.25 Z M 142.386719 41.175781 C 147.460938 51.074219 151.722656 59.605469 159.554688 66.796875 C 171.921875 78.152344 193.265625 85.289062 210.652344 92.839844 C 218.667969 96.320312 224.386719 99.421875 232.429688 102.5 C 239.554688 107.957031 248.5 111.585938 251.277344 121.402344 C 233.078125 94.566406 184.128906 91.453125 159.558594 70.15625 C 151.527344 63.199219 146.707031 54.804688 141.546875 44.113281 C 134.578125 41.710938 123.457031 40.089844 116 42.855469 C 111.40625 44.554688 111.402344 49.019531 108.460938 52.09375 C 106.765625 51.460938 109.695312 48.710938 110.136719 47.476562 C 108.835938 35.984375 132.441406 39.214844 142.386719 41.175781 Z M 12.972656 107.960938 C 41.792969 88.058594 89.480469 83.488281 106.785156 51.253906 C 108.125 53.023438 105.652344 54.894531 104.691406 56.714844 C 106.585938 56.375 106.832031 54.382812 107.625 52.933594 C 99.898438 71.5625 81.257812 78.929688 61.132812 87.378906 C 51.894531 91.257812 42.417969 95.421875 32.65625 99.980469 C 21.433594 105.214844 8.734375 110.519531 4.175781 121.820312 C 3.960938 115.742188 8.828125 110.820312 12.972656 107.960938 Z M 10.457031 126.441406 C 10.222656 127.191406 9.292969 126.503906 10.039062 126.441406 C 33.839844 113.207031 57.050781 99.382812 81.238281 86.539062 C 58.039062 100.234375 34.367188 113.457031 10.457031 126.441406 Z M 126.886719 62.597656 C 130.804688 63.554688 132.308594 64.074219 137.65625 67.617188 C 141.757812 70.324219 145.066406 72.335938 148.667969 74.355469 C 174.722656 88.992188 202.492188 103.84375 227.824219 119.722656 C 205.714844 118.976562 177.859375 119.664062 154.585938 119.777344 L 141.066406 119.667969 C 109.164062 118.828125 70.496094 119.128906 27.625 118.882812 C 60.140625 99.542969 94.207031 81.765625 126.886719 62.597656 Z M 81.65625 86.539062 C 85.125 84.136719 88.800781 81.941406 92.964844 80.238281 C 91.546875 81.371094 85.238281 84.785156 81.65625 86.539062 Z M 93.800781 79.816406 C 97.039062 77.324219 100.816406 75.371094 104.691406 73.515625 C 101.441406 76 97.601562 77.890625 93.800781 79.816406 Z M 23.859375 122.660156 C 25.820312 122.882812 32.105469 121.042969 34.332031 123.082031 C 31.65625 122.59375 25.40625 123.734375 23.859375 122.660156 Z M 34.75 122.242188 C 40.3125 122.523438 42.78125 122.429688 47.3125 122.660156 C 44.214844 123.105469 37.160156 123.890625 34.75 122.242188 Z M 48.152344 122.660156 L 50.664062 122.660156 C 82.054688 122.382812 115.613281 123.234375 147.828125 122.242188 C 115.570312 122.027344 70.804688 122.402344 23.859375 121.402344 C 26.964844 119.222656 35.8125 119.542969 42.707031 119.722656 C 62.691406 120.246094 91.320312 120.378906 118.917969 120.089844 L 119.167969 120.210938 L 169.679688 120.628906 L 169.609375 120.5 C 183.902344 120.722656 197.921875 120.691406 210.234375 120.5625 C 217.390625 120.488281 225.046875 119.628906 231.59375 121.820312 C 200.316406 122.695312 175.835938 121.695312 148.246094 122.242188 C 178.621094 123.34375 210.804688 122.144531 233.6875 123.082031 C 164.726562 123.730469 107.78125 123.851562 48.152344 122.660156 Z M 252.113281 130.222656 C 217.882812 110.929688 184.007812 91.277344 149.921875 71.835938 L 146.992188 71.835938 C 141.183594 67.582031 134.222656 64.480469 127.726562 60.917969 C 120.703125 64.375 114.261719 68.414062 107.625 72.257812 C 97.367188 74.691406 87.582031 81.867188 78.726562 86.957031 C 53.753906 101.308594 28.238281 114.753906 3.339844 128.542969 C 7.28125 110.15625 27.671875 102.269531 43.964844 95.359375 C 57.230469 89.734375 70.761719 84.835938 82.074219 78.976562 C 83.019531 79.953125 79.582031 80.097656 79.5625 81.496094 C 90.066406 75.652344 101.285156 66.660156 108.460938 54.195312 C 110.375 50.871094 113.164062 43.992188 116.417969 43.695312 C 121.179688 43.261719 123.382812 48.945312 128.144531 49.574219 C 127.652344 47.828125 125.464844 47.78125 124.375 46.632812 C 126.828125 46.421875 129.566406 49.542969 132.332031 50.414062 C 130.113281 47.460938 126.183594 46.222656 122.699219 44.535156 C 122.410156 45.664062 123.566406 45.347656 123.957031 45.792969 C 122.554688 46.484375 120.820312 43.910156 118.929688 43.695312 C 125.910156 41.589844 135.492188 42.066406 141.128906 44.953125 C 144.578125 52.179688 147.800781 58.699219 152.4375 64.277344 C 171.5625 87.292969 210.734375 90.015625 234.523438 108.378906 L 236.617188 108.378906 C 241.558594 113.085938 247.722656 116.566406 250.4375 123.5 C 248.632812 123.210938 247.867188 121.878906 246.25 121.402344 C 248.148438 124.296875 253.609375 125.253906 252.113281 130.222656 Z M 252.113281 130.222656 " fill-opacity="1" fill-rule="nonzero"/></g><path stroke-linecap="butt" transform="matrix(0, -0.75, 0.75, 0, 204.971299, 123.944512)" fill="none" stroke-linejoin="miter" d="M -0.00106726 0.50181 L 6.207266 0.50181 " stroke="#000000" stroke-width="1" stroke-opacity="1" stroke-miterlimit="4"/><path stroke-linecap="butt" transform="matrix(0, -0.75, 0.75, 0, 49.492298, 123.942328)" fill="none" stroke-linejoin="miter" d="M 0.00122907 0.499853 L 6.943938 0.499853 " stroke="#000000" stroke-width="1" stroke-opacity="1" stroke-miterlimit="4"/><g fill="#000000" fill-opacity="1"><g transform="translate(79.883999, 150.964984)"><g><path d="M 1.703125 -6.78125 C 1.515625 -6.84375 1.367188 -6.875 1.265625 -6.875 C 1.109375 -6.875 0.984375 -6.863281 0.890625 -6.84375 C 0.796875 -6.832031 0.742188 -6.832031 0.734375 -6.84375 C 0.722656 -6.863281 0.71875 -6.890625 0.71875 -6.921875 C 0.71875 -6.953125 0.726562 -6.984375 0.75 -7.015625 C 0.769531 -7.046875 0.796875 -7.0625 0.828125 -7.0625 C 1.265625 -7.164062 1.863281 -7.21875 2.625 -7.21875 L 4.828125 -3.609375 L 4.875 -3.609375 L 6.984375 -7.21875 C 7.734375 -7.21875 8.328125 -7.164062 8.765625 -7.0625 C 8.835938 -7.050781 8.875 -7 8.875 -6.90625 C 8.875 -6.851562 8.828125 -6.832031 8.734375 -6.84375 C 8.640625 -6.863281 8.515625 -6.875 8.359375 -6.875 C 8.203125 -6.875 8.035156 -6.835938 7.859375 -6.765625 L 8.703125 -0.765625 C 8.742188 -0.453125 8.835938 -0.257812 8.984375 -0.1875 C 9.023438 -0.175781 9.046875 -0.140625 9.046875 -0.078125 C 9.046875 -0.0234375 9.023438 0 8.984375 0 L 7.53125 0 C 7.488281 0 7.46875 -0.0234375 7.46875 -0.078125 C 7.46875 -0.128906 7.472656 -0.160156 7.484375 -0.171875 C 7.503906 -0.179688 7.523438 -0.191406 7.546875 -0.203125 C 7.617188 -0.234375 7.679688 -0.316406 7.734375 -0.453125 C 7.796875 -0.597656 7.828125 -0.695312 7.828125 -0.75 C 7.828125 -0.800781 7.828125 -0.832031 7.828125 -0.84375 L 7.125 -6.0625 L 7.09375 -6.0625 L 4.921875 -2.265625 C 4.910156 -2.253906 4.859375 -2.25 4.765625 -2.25 C 4.671875 -2.257812 4.617188 -2.265625 4.609375 -2.265625 L 2.34375 -6.0625 L 2.3125 -6.0625 L 1.65625 -0.84375 C 1.644531 -0.75 1.664062 -0.640625 1.71875 -0.515625 C 1.769531 -0.390625 1.8125 -0.304688 1.84375 -0.265625 C 1.882812 -0.234375 1.921875 -0.207031 1.953125 -0.1875 C 1.992188 -0.175781 2.015625 -0.140625 2.015625 -0.078125 C 2.015625 -0.0234375 1.992188 0 1.953125 0 L 0.625 0 C 0.582031 0 0.5625 -0.0234375 0.5625 -0.078125 C 0.5625 -0.128906 0.566406 -0.160156 0.578125 -0.171875 C 0.597656 -0.179688 0.617188 -0.191406 0.640625 -0.203125 C 0.773438 -0.265625 0.863281 -0.453125 0.90625 -0.765625 Z M 1.703125 -6.78125 "/></g></g></g><g fill="#000000" fill-opacity="1"><g transform="translate(89.841244, 150.964984)"><g><path d="M 1.421875 -3.5 C 1.234375 -3.382812 1.09375 -3.226562 1 -3.03125 C 0.914062 -2.832031 0.875 -2.582031 0.875 -2.28125 C 0.875 -1.988281 0.957031 -1.691406 1.125 -1.390625 C 1.289062 -1.085938 1.515625 -0.847656 1.796875 -0.671875 C 2.085938 -0.503906 2.375 -0.421875 2.65625 -0.421875 C 2.945312 -0.421875 3.179688 -0.484375 3.359375 -0.609375 C 3.546875 -0.742188 3.6875 -0.910156 3.78125 -1.109375 C 3.875 -1.316406 3.921875 -1.546875 3.921875 -1.796875 C 3.921875 -2.316406 3.753906 -2.757812 3.421875 -3.125 C 3.097656 -3.5 2.65625 -3.6875 2.09375 -3.6875 C 1.84375 -3.6875 1.617188 -3.625 1.421875 -3.5 Z M 0.890625 -0.53125 C 0.691406 -0.71875 0.53125 -0.941406 0.40625 -1.203125 C 0.289062 -1.472656 0.234375 -1.785156 0.234375 -2.140625 C 0.234375 -2.503906 0.328125 -2.851562 0.515625 -3.1875 C 0.703125 -3.53125 0.96875 -3.796875 1.3125 -3.984375 C 1.65625 -4.179688 2.015625 -4.28125 2.390625 -4.28125 C 3.066406 -4.28125 3.601562 -4.066406 4 -3.640625 C 4.40625 -3.210938 4.609375 -2.691406 4.609375 -2.078125 C 4.617188 -1.472656 4.410156 -0.960938 3.984375 -0.546875 C 3.554688 -0.128906 3.019531 0.078125 2.375 0.078125 C 2.09375 0.078125 1.820312 0.0234375 1.5625 -0.078125 C 1.3125 -0.191406 1.085938 -0.34375 0.890625 -0.53125 Z M 0.890625 -0.53125 "/></g></g></g><g fill="#000000" fill-opacity="1"><g transform="translate(95.008141, 150.964984)"><g><path d="M 3.1875 -6.46875 L 3.1875 -6.546875 C 3.1875 -6.554688 3.195312 -6.566406 3.21875 -6.578125 C 3.238281 -6.585938 3.25 -6.59375 3.25 -6.59375 L 4.03125 -7.1875 C 4.050781 -7.195312 4.082031 -7.203125 4.125 -7.203125 C 4.175781 -7.203125 4.210938 -7.191406 4.234375 -7.171875 C 4.265625 -7.160156 4.28125 -7.125 4.28125 -7.0625 C 4.28125 -4.425781 4.285156 -2.382812 4.296875 -0.9375 C 4.304688 -0.882812 4.300781 -0.863281 4.28125 -0.875 C 4.28125 -0.875 4.285156 -0.863281 4.296875 -0.84375 C 4.316406 -0.832031 4.351562 -0.820312 4.40625 -0.8125 C 4.457031 -0.8125 4.492188 -0.804688 4.515625 -0.796875 C 4.535156 -0.785156 4.546875 -0.75 4.546875 -0.6875 C 4.546875 -0.632812 4.535156 -0.601562 4.515625 -0.59375 L 3.796875 0 C 3.785156 0.0078125 3.75 0.015625 3.6875 0.015625 C 3.625 0.015625 3.582031 0.0078125 3.5625 0 C 3.550781 -0.0195312 3.546875 -0.0390625 3.546875 -0.0625 C 3.546875 -0.0820312 3.546875 -0.101562 3.546875 -0.125 C 3.554688 -0.15625 3.554688 -0.191406 3.546875 -0.234375 C 3.535156 -0.273438 3.523438 -0.296875 3.515625 -0.296875 C 3.503906 -0.296875 3.476562 -0.285156 3.4375 -0.265625 L 3.328125 -0.1875 C 3.023438 -0.0078125 2.71875 0.078125 2.40625 0.078125 C 2.101562 0.078125 1.820312 0.0234375 1.5625 -0.078125 C 1.3125 -0.191406 1.085938 -0.34375 0.890625 -0.53125 C 0.691406 -0.71875 0.53125 -0.941406 0.40625 -1.203125 C 0.289062 -1.472656 0.234375 -1.785156 0.234375 -2.140625 C 0.234375 -2.503906 0.328125 -2.851562 0.515625 -3.1875 C 0.703125 -3.53125 0.96875 -3.796875 1.3125 -3.984375 C 1.65625 -4.179688 2.054688 -4.28125 2.515625 -4.28125 C 2.691406 -4.28125 2.878906 -4.234375 3.078125 -4.140625 C 3.273438 -4.054688 3.425781 -3.96875 3.53125 -3.875 L 3.578125 -3.875 C 3.578125 -4.820312 3.570312 -5.566406 3.5625 -6.109375 C 3.5625 -6.203125 3.535156 -6.269531 3.484375 -6.3125 C 3.441406 -6.351562 3.390625 -6.375 3.328125 -6.375 C 3.273438 -6.375 3.242188 -6.382812 3.234375 -6.40625 C 3.203125 -6.414062 3.1875 -6.4375 3.1875 -6.46875 Z M 3.546875 -1 L 3.5625 -2.90625 C 3.425781 -3.15625 3.226562 -3.347656 2.96875 -3.484375 C 2.707031 -3.617188 2.414062 -3.6875 2.09375 -3.6875 C 1.675781 -3.6875 1.335938 -3.46875 1.078125 -3.03125 C 0.941406 -2.800781 0.875 -2.582031 0.875 -2.375 C 0.875 -1.832031 1.039062 -1.390625 1.375 -1.046875 C 1.71875 -0.710938 2.15625 -0.546875 2.6875 -0.546875 C 2.832031 -0.546875 2.984375 -0.585938 3.140625 -0.671875 C 3.304688 -0.765625 3.441406 -0.875 3.546875 -1 Z M 3.546875 -1 "/></g></g></g><g fill="#000000" fill-opacity="1"><g transform="translate(100.126694, 150.964984)"><g><path d="M 3.390625 -3.046875 C 3.210938 -3.546875 2.835938 -3.796875 2.265625 -3.796875 C 2.003906 -3.796875 1.765625 -3.722656 1.546875 -3.578125 C 1.328125 -3.441406 1.160156 -3.265625 1.046875 -3.046875 C 0.929688 -2.835938 0.875 -2.632812 0.875 -2.4375 C 0.875 -2.25 0.878906 -2.160156 0.890625 -2.171875 L 3.375 -3.03125 L 3.375 -3.0625 Z M 0.984375 -1.703125 C 1.109375 -1.359375 1.320312 -1.085938 1.625 -0.890625 C 1.925781 -0.691406 2.265625 -0.59375 2.640625 -0.59375 C 3.128906 -0.59375 3.570312 -0.820312 3.96875 -1.28125 C 4.03125 -1.332031 4.117188 -1.300781 4.234375 -1.1875 C 4.242188 -1.175781 4.242188 -1.160156 4.234375 -1.140625 C 3.898438 -0.679688 3.640625 -0.382812 3.453125 -0.25 C 3.140625 -0.03125 2.78125 0.078125 2.375 0.078125 C 2.09375 0.078125 1.820312 0.0195312 1.5625 -0.09375 C 1.03125 -0.320312 0.648438 -0.695312 0.421875 -1.21875 C 0.296875 -1.476562 0.234375 -1.785156 0.234375 -2.140625 C 0.234375 -2.503906 0.328125 -2.851562 0.515625 -3.1875 C 0.703125 -3.53125 0.96875 -3.796875 1.3125 -3.984375 C 1.65625 -4.179688 2.054688 -4.28125 2.515625 -4.28125 C 3.054688 -4.28125 3.546875 -4.023438 3.984375 -3.515625 C 4.191406 -3.253906 4.296875 -3.050781 4.296875 -2.90625 Z M 0.984375 -1.703125 "/></g></g></g><g fill="#000000" fill-opacity="1"><g transform="translate(105.034297, 150.964984)"><g><path d="M 0.375 -3.453125 L 0.390625 -3.53125 C 0.390625 -3.550781 0.394531 -3.566406 0.40625 -3.578125 C 0.425781 -3.585938 0.4375 -3.59375 0.4375 -3.59375 L 1.234375 -4.171875 C 1.242188 -4.179688 1.273438 -4.1875 1.328125 -4.1875 C 1.378906 -4.1875 1.414062 -4.179688 1.4375 -4.171875 C 1.457031 -4.160156 1.46875 -4.117188 1.46875 -4.046875 L 1.46875 -3.296875 C 1.488281 -3.328125 1.515625 -3.359375 1.546875 -3.390625 C 1.753906 -3.648438 1.972656 -3.851562 2.203125 -4 C 2.429688 -4.144531 2.691406 -4.21875 2.984375 -4.21875 C 3.078125 -4.21875 3.128906 -4.207031 3.140625 -4.1875 C 3.191406 -4.050781 3.234375 -3.921875 3.265625 -3.796875 L 3.390625 -3.28125 C 3.398438 -3.25 3.378906 -3.21875 3.328125 -3.1875 C 3.273438 -3.15625 3.234375 -3.140625 3.203125 -3.140625 C 3.171875 -3.148438 3.140625 -3.179688 3.109375 -3.234375 L 3.0625 -3.3125 C 2.90625 -3.457031 2.722656 -3.515625 2.515625 -3.484375 C 2.304688 -3.453125 2.109375 -3.375 1.921875 -3.25 C 1.734375 -3.125 1.59375 -2.992188 1.5 -2.859375 C 1.5 -2.847656 1.492188 -2.832031 1.484375 -2.8125 C 1.472656 -2.800781 1.46875 -2.789062 1.46875 -2.78125 L 1.46875 -0.765625 C 1.46875 -0.753906 1.46875 -0.722656 1.46875 -0.671875 C 1.46875 -0.628906 1.46875 -0.597656 1.46875 -0.578125 C 1.488281 -0.390625 1.550781 -0.273438 1.65625 -0.234375 C 1.757812 -0.191406 1.8125 -0.15625 1.8125 -0.125 C 1.8125 -0.0390625 1.796875 0 1.765625 0 L 0.453125 0 C 0.421875 0 0.40625 -0.0234375 0.40625 -0.078125 C 0.40625 -0.128906 0.414062 -0.160156 0.4375 -0.171875 C 0.457031 -0.191406 0.484375 -0.207031 0.515625 -0.21875 C 0.554688 -0.238281 0.585938 -0.257812 0.609375 -0.28125 C 0.648438 -0.320312 0.679688 -0.367188 0.703125 -0.421875 C 0.734375 -0.484375 0.75 -0.550781 0.75 -0.625 C 0.75 -0.707031 0.75 -0.753906 0.75 -0.765625 L 0.75 -3.09375 C 0.75 -3.1875 0.722656 -3.253906 0.671875 -3.296875 C 0.628906 -3.335938 0.582031 -3.359375 0.53125 -3.359375 C 0.476562 -3.359375 0.441406 -3.367188 0.421875 -3.390625 C 0.390625 -3.410156 0.375 -3.429688 0.375 -3.453125 Z M 0.375 -3.453125 "/></g></g></g><g fill="#000000" fill-opacity="1"><g transform="translate(108.82122, 150.964984)"><g><path d="M 0.453125 0 C 0.410156 0 0.390625 -0.0234375 0.390625 -0.078125 C 0.390625 -0.128906 0.398438 -0.160156 0.421875 -0.171875 C 0.453125 -0.191406 0.484375 -0.207031 0.515625 -0.21875 C 0.554688 -0.238281 0.585938 -0.257812 0.609375 -0.28125 C 0.703125 -0.363281 0.742188 -0.460938 0.734375 -0.578125 C 0.734375 -0.691406 0.734375 -0.753906 0.734375 -0.765625 L 0.734375 -3.09375 C 0.734375 -3.1875 0.707031 -3.253906 0.65625 -3.296875 C 0.613281 -3.335938 0.566406 -3.359375 0.515625 -3.359375 C 0.460938 -3.359375 0.425781 -3.363281 0.40625 -3.375 C 0.394531 -3.394531 0.382812 -3.410156 0.375 -3.421875 C 0.375 -3.429688 0.375 -3.441406 0.375 -3.453125 C 0.375 -3.460938 0.375 -3.472656 0.375 -3.484375 C 0.375 -3.503906 0.375 -3.519531 0.375 -3.53125 C 0.375 -3.539062 0.375 -3.546875 0.375 -3.546875 C 0.382812 -3.554688 0.394531 -3.566406 0.40625 -3.578125 C 0.414062 -3.585938 0.425781 -3.59375 0.4375 -3.59375 L 1.21875 -4.171875 C 1.226562 -4.179688 1.257812 -4.1875 1.3125 -4.1875 C 1.363281 -4.1875 1.398438 -4.179688 1.421875 -4.171875 C 1.453125 -4.160156 1.46875 -4.117188 1.46875 -4.046875 L 1.46875 -3.734375 L 1.6875 -3.859375 L 1.828125 -3.921875 C 2.234375 -4.128906 2.613281 -4.234375 2.96875 -4.234375 C 3.320312 -4.234375 3.671875 -4.109375 4.015625 -3.859375 C 4.171875 -3.742188 4.296875 -3.601562 4.390625 -3.4375 C 4.492188 -3.269531 4.546875 -3.101562 4.546875 -2.9375 L 4.546875 -0.578125 C 4.546875 -0.515625 4.5625 -0.445312 4.59375 -0.375 C 4.625 -0.300781 4.675781 -0.25 4.75 -0.21875 C 4.832031 -0.1875 4.875 -0.15625 4.875 -0.125 C 4.875 -0.0390625 4.859375 0 4.828125 0 L 3.53125 0 C 3.5 0 3.484375 -0.0234375 3.484375 -0.078125 C 3.484375 -0.128906 3.492188 -0.160156 3.515625 -0.171875 C 3.546875 -0.191406 3.578125 -0.207031 3.609375 -0.21875 C 3.648438 -0.238281 3.679688 -0.257812 3.703125 -0.28125 C 3.722656 -0.300781 3.742188 -0.328125 3.765625 -0.359375 C 3.785156 -0.390625 3.796875 -0.421875 3.796875 -0.453125 C 3.804688 -0.492188 3.8125 -0.523438 3.8125 -0.546875 C 3.8125 -0.566406 3.8125 -0.601562 3.8125 -0.65625 C 3.8125 -0.71875 3.8125 -0.753906 3.8125 -0.765625 L 3.8125 -2.828125 C 3.8125 -2.992188 3.753906 -3.144531 3.640625 -3.28125 C 3.410156 -3.53125 3.09375 -3.65625 2.6875 -3.65625 C 2.28125 -3.65625 1.875 -3.550781 1.46875 -3.34375 L 1.46875 -0.578125 C 1.46875 -0.515625 1.484375 -0.445312 1.515625 -0.375 C 1.546875 -0.300781 1.601562 -0.25 1.6875 -0.21875 C 1.769531 -0.1875 1.8125 -0.15625 1.8125 -0.125 C 1.8125 -0.0390625 1.789062 0 1.75 0 Z M 0.453125 0 "/></g></g></g><g fill="#000000" fill-opacity="1"><g transform="translate(114.300147, 150.964984)"><g/></g></g><g fill="#000000" fill-opacity="1"><g transform="translate(116.865311, 150.964984)"><g><path d="M 4.0625 -0.5 C 4.71875 -0.5 5.304688 -0.644531 5.828125 -0.9375 C 6.359375 -1.238281 6.789062 -1.644531 7.125 -2.15625 C 7.164062 -2.21875 7.191406 -2.234375 7.203125 -2.203125 C 7.222656 -2.179688 7.25 -2.148438 7.28125 -2.109375 L 7.421875 -1.921875 C 7.460938 -1.847656 7.476562 -1.800781 7.46875 -1.78125 C 7.289062 -1.425781 6.992188 -1.078125 6.578125 -0.734375 C 5.816406 -0.0859375 4.976562 0.234375 4.0625 0.234375 C 3.519531 0.234375 3.015625 0.128906 2.546875 -0.078125 C 2.085938 -0.285156 1.695312 -0.5625 1.375 -0.90625 C 1.0625 -1.25 0.8125 -1.65625 0.625 -2.125 C 0.445312 -2.59375 0.359375 -3.070312 0.359375 -3.5625 C 0.359375 -4.0625 0.453125 -4.539062 0.640625 -5 C 0.835938 -5.457031 1.101562 -5.851562 1.4375 -6.1875 C 1.769531 -6.519531 2.160156 -6.785156 2.609375 -6.984375 C 3.066406 -7.179688 3.53125 -7.28125 4 -7.28125 C 4.550781 -7.28125 5.101562 -7.175781 5.65625 -6.96875 L 5.859375 -6.890625 C 5.890625 -6.878906 5.929688 -6.890625 5.984375 -6.921875 C 6.035156 -6.953125 6.085938 -6.96875 6.140625 -6.96875 C 6.203125 -6.96875 6.25 -6.941406 6.28125 -6.890625 C 6.300781 -6.878906 6.304688 -6.847656 6.296875 -6.796875 C 6.296875 -6.710938 6.332031 -6.519531 6.40625 -6.21875 L 6.515625 -5.734375 C 6.546875 -5.609375 6.5625 -5.523438 6.5625 -5.484375 C 6.5625 -5.472656 6.523438 -5.445312 6.453125 -5.40625 C 6.378906 -5.375 6.332031 -5.367188 6.3125 -5.390625 C 6.070312 -5.804688 5.769531 -6.09375 5.40625 -6.25 C 5.039062 -6.414062 4.582031 -6.5 4.03125 -6.5 C 3.476562 -6.5 2.976562 -6.375 2.53125 -6.125 C 2.09375 -5.875 1.753906 -5.523438 1.515625 -5.078125 C 1.273438 -4.640625 1.15625 -4.140625 1.15625 -3.578125 C 1.15625 -3.210938 1.238281 -2.84375 1.40625 -2.46875 C 1.582031 -2.09375 1.800781 -1.757812 2.0625 -1.46875 C 2.332031 -1.1875 2.644531 -0.953125 3 -0.765625 C 3.351562 -0.585938 3.707031 -0.5 4.0625 -0.5 Z M 4.0625 -0.5 "/></g></g></g><g fill="#000000" fill-opacity="1"><g transform="translate(124.945969, 150.964984)"><g><path d="M 0.40625 -6.46875 L 0.421875 -6.546875 C 0.421875 -6.554688 0.425781 -6.566406 0.4375 -6.578125 C 0.457031 -6.585938 0.46875 -6.59375 0.46875 -6.59375 L 1.265625 -7.1875 C 1.273438 -7.195312 1.289062 -7.203125 1.3125 -7.203125 C 1.4375 -7.203125 1.5 -7.15625 1.5 -7.0625 L 1.5 -0.765625 C 1.5 -0.742188 1.5 -0.710938 1.5 -0.671875 C 1.5 -0.628906 1.5 -0.597656 1.5 -0.578125 C 1.507812 -0.390625 1.566406 -0.273438 1.671875 -0.234375 C 1.785156 -0.191406 1.84375 -0.15625 1.84375 -0.125 C 1.84375 -0.0390625 1.820312 0 1.78125 0 L 0.484375 0 C 0.453125 0 0.4375 -0.0234375 0.4375 -0.078125 C 0.4375 -0.128906 0.445312 -0.160156 0.46875 -0.171875 C 0.488281 -0.191406 0.515625 -0.207031 0.546875 -0.21875 C 0.585938 -0.238281 0.617188 -0.257812 0.640625 -0.28125 C 0.671875 -0.300781 0.691406 -0.320312 0.703125 -0.34375 C 0.722656 -0.375 0.738281 -0.398438 0.75 -0.421875 C 0.757812 -0.441406 0.765625 -0.46875 0.765625 -0.5 C 0.773438 -0.539062 0.78125 -0.566406 0.78125 -0.578125 L 0.78125 -6.109375 C 0.78125 -6.203125 0.753906 -6.269531 0.703125 -6.3125 C 0.660156 -6.351562 0.613281 -6.375 0.5625 -6.375 C 0.507812 -6.375 0.472656 -6.382812 0.453125 -6.40625 C 0.421875 -6.414062 0.40625 -6.4375 0.40625 -6.46875 Z M 0.40625 -6.46875 "/></g></g></g><g fill="#000000" fill-opacity="1"><g transform="translate(127.59024, 150.964984)"><g><path d="M 1.421875 -3.5 C 1.234375 -3.382812 1.09375 -3.226562 1 -3.03125 C 0.914062 -2.832031 0.875 -2.582031 0.875 -2.28125 C 0.875 -1.988281 0.957031 -1.691406 1.125 -1.390625 C 1.289062 -1.085938 1.515625 -0.847656 1.796875 -0.671875 C 2.085938 -0.503906 2.375 -0.421875 2.65625 -0.421875 C 2.945312 -0.421875 3.179688 -0.484375 3.359375 -0.609375 C 3.546875 -0.742188 3.6875 -0.910156 3.78125 -1.109375 C 3.875 -1.316406 3.921875 -1.546875 3.921875 -1.796875 C 3.921875 -2.316406 3.753906 -2.757812 3.421875 -3.125 C 3.097656 -3.5 2.65625 -3.6875 2.09375 -3.6875 C 1.84375 -3.6875 1.617188 -3.625 1.421875 -3.5 Z M 0.890625 -0.53125 C 0.691406 -0.71875 0.53125 -0.941406 0.40625 -1.203125 C 0.289062 -1.472656 0.234375 -1.785156 0.234375 -2.140625 C 0.234375 -2.503906 0.328125 -2.851562 0.515625 -3.1875 C 0.703125 -3.53125 0.96875 -3.796875 1.3125 -3.984375 C 1.65625 -4.179688 2.015625 -4.28125 2.390625 -4.28125 C 3.066406 -4.28125 3.601562 -4.066406 4 -3.640625 C 4.40625 -3.210938 4.609375 -2.691406 4.609375 -2.078125 C 4.617188 -1.472656 4.410156 -0.960938 3.984375 -0.546875 C 3.554688 -0.128906 3.019531 0.078125 2.375 0.078125 C 2.09375 0.078125 1.820312 0.0234375 1.5625 -0.078125 C 1.3125 -0.191406 1.085938 -0.34375 0.890625 -0.53125 Z M 0.890625 -0.53125 "/></g></g></g><g fill="#000000" fill-opacity="1"><g transform="translate(132.757135, 150.964984)"><g><path d="M 0.953125 -4.96875 C 0.960938 -5.03125 1.015625 -5.0625 1.109375 -5.0625 C 1.210938 -5.0625 1.265625 -5.03125 1.265625 -4.96875 L 1.265625 -4.1875 L 2.046875 -4.1875 C 2.191406 -4.1875 2.265625 -4.164062 2.265625 -4.125 L 2.265625 -3.75 C 2.265625 -3.707031 2.191406 -3.6875 2.046875 -3.6875 L 1.265625 -3.6875 L 1.265625 -0.953125 C 1.265625 -0.609375 1.367188 -0.414062 1.578125 -0.375 C 1.734375 -0.34375 1.894531 -0.398438 2.0625 -0.546875 C 2.125 -0.609375 2.164062 -0.625 2.1875 -0.59375 C 2.21875 -0.5625 2.238281 -0.535156 2.25 -0.515625 C 2.269531 -0.503906 2.28125 -0.488281 2.28125 -0.46875 C 2.28125 -0.445312 2.28125 -0.4375 2.28125 -0.4375 C 2.28125 -0.414062 2.265625 -0.390625 2.234375 -0.359375 L 2.140625 -0.28125 C 1.828125 -0.0078125 1.523438 0.109375 1.234375 0.078125 C 0.953125 0.0546875 0.753906 -0.109375 0.640625 -0.421875 C 0.578125 -0.585938 0.546875 -0.796875 0.546875 -1.046875 L 0.546875 -3.6875 L 0.34375 -3.6875 C 0.1875 -3.6875 0.109375 -3.707031 0.109375 -3.75 L 0.109375 -4.125 C 0.109375 -4.164062 0.171875 -4.1875 0.296875 -4.1875 C 0.515625 -4.1875 0.671875 -4.257812 0.765625 -4.40625 C 0.859375 -4.5625 0.921875 -4.75 0.953125 -4.96875 Z M 0.953125 -4.96875 "/></g></g></g><g fill="#000000" fill-opacity="1"><g transform="translate(135.410196, 150.964984)"><g><path d="M 0.40625 -6.46875 L 0.421875 -6.546875 C 0.421875 -6.554688 0.4375 -6.570312 0.46875 -6.59375 L 1.265625 -7.1875 C 1.273438 -7.195312 1.304688 -7.203125 1.359375 -7.203125 C 1.410156 -7.203125 1.445312 -7.191406 1.46875 -7.171875 C 1.488281 -7.160156 1.5 -7.125 1.5 -7.0625 L 1.5 -3.734375 C 1.59375 -3.785156 1.664062 -3.828125 1.71875 -3.859375 L 1.859375 -3.921875 C 2.273438 -4.128906 2.65625 -4.234375 3 -4.234375 C 3.351562 -4.234375 3.703125 -4.109375 4.046875 -3.859375 C 4.203125 -3.742188 4.328125 -3.601562 4.421875 -3.4375 C 4.523438 -3.269531 4.578125 -3.101562 4.578125 -2.9375 L 4.578125 -0.765625 C 4.578125 -0.753906 4.578125 -0.722656 4.578125 -0.671875 C 4.578125 -0.628906 4.578125 -0.597656 4.578125 -0.578125 C 4.597656 -0.390625 4.660156 -0.273438 4.765625 -0.234375 C 4.867188 -0.191406 4.921875 -0.15625 4.921875 -0.125 C 4.921875 -0.0390625 4.898438 0 4.859375 0 L 3.5625 0 C 3.53125 0 3.515625 -0.0234375 3.515625 -0.078125 C 3.515625 -0.128906 3.523438 -0.160156 3.546875 -0.171875 C 3.566406 -0.191406 3.597656 -0.207031 3.640625 -0.21875 C 3.679688 -0.238281 3.710938 -0.257812 3.734375 -0.28125 C 3.753906 -0.300781 3.773438 -0.328125 3.796875 -0.359375 C 3.816406 -0.390625 3.828125 -0.421875 3.828125 -0.453125 C 3.835938 -0.492188 3.84375 -0.523438 3.84375 -0.546875 C 3.84375 -0.566406 3.84375 -0.601562 3.84375 -0.65625 C 3.84375 -0.71875 3.84375 -0.753906 3.84375 -0.765625 L 3.84375 -2.828125 C 3.84375 -3.003906 3.785156 -3.15625 3.671875 -3.28125 C 3.441406 -3.53125 3.125 -3.65625 2.71875 -3.65625 C 2.3125 -3.65625 1.90625 -3.550781 1.5 -3.34375 L 1.5 -0.765625 C 1.5 -0.753906 1.5 -0.722656 1.5 -0.671875 C 1.5 -0.628906 1.5 -0.597656 1.5 -0.578125 C 1.519531 -0.390625 1.582031 -0.273438 1.6875 -0.234375 C 1.789062 -0.191406 1.84375 -0.15625 1.84375 -0.125 C 1.84375 -0.0390625 1.820312 0 1.78125 0 L 0.484375 0 C 0.453125 0 0.4375 -0.0234375 0.4375 -0.078125 C 0.4375 -0.128906 0.445312 -0.160156 0.46875 -0.171875 C 0.488281 -0.191406 0.515625 -0.207031 0.546875 -0.21875 C 0.585938 -0.238281 0.617188 -0.257812 0.640625 -0.28125 C 0.734375 -0.363281 0.78125 -0.460938 0.78125 -0.578125 C 0.78125 -0.691406 0.78125 -0.753906 0.78125 -0.765625 L 0.78125 -6.109375 C 0.78125 -6.203125 0.753906 -6.269531 0.703125 -6.3125 C 0.660156 -6.351562 0.613281 -6.375 0.5625 -6.375 C 0.507812 -6.375 0.472656 -6.382812 0.453125 -6.40625 C 0.421875 -6.414062 0.40625 -6.4375 0.40625 -6.46875 Z M 0.40625 -6.46875 "/></g></g></g><g fill="#000000" fill-opacity="1"><g transform="translate(140.990204, 150.964984)"><g><path d="M 1.46875 -6.375 L 1.46875 -6.015625 C 1.46875 -5.992188 1.457031 -5.972656 1.4375 -5.953125 C 1.425781 -5.941406 1.363281 -5.914062 1.25 -5.875 C 1.144531 -5.832031 1.066406 -5.796875 1.015625 -5.765625 C 0.960938 -5.742188 0.914062 -5.726562 0.875 -5.71875 C 0.84375 -5.707031 0.820312 -5.707031 0.8125 -5.71875 C 0.800781 -5.726562 0.796875 -5.785156 0.796875 -5.890625 L 0.796875 -6.3125 C 0.796875 -6.3125 0.796875 -6.320312 0.796875 -6.34375 C 0.796875 -6.363281 0.796875 -6.375 0.796875 -6.375 C 0.796875 -6.382812 0.796875 -6.394531 0.796875 -6.40625 C 0.796875 -6.414062 0.800781 -6.425781 0.8125 -6.4375 C 0.832031 -6.445312 0.894531 -6.472656 1 -6.515625 C 1.113281 -6.554688 1.195312 -6.59375 1.25 -6.625 C 1.363281 -6.675781 1.425781 -6.695312 1.4375 -6.6875 C 1.457031 -6.675781 1.46875 -6.570312 1.46875 -6.375 Z M 0.46875 0 C 0.425781 0 0.40625 -0.0234375 0.40625 -0.078125 C 0.40625 -0.128906 0.414062 -0.160156 0.4375 -0.171875 C 0.46875 -0.191406 0.5 -0.207031 0.53125 -0.21875 C 0.675781 -0.28125 0.75 -0.421875 0.75 -0.640625 L 0.75 -3.09375 C 0.75 -3.1875 0.722656 -3.253906 0.671875 -3.296875 C 0.628906 -3.335938 0.582031 -3.359375 0.53125 -3.359375 C 0.476562 -3.359375 0.441406 -3.363281 0.421875 -3.375 C 0.398438 -3.394531 0.390625 -3.425781 0.390625 -3.46875 C 0.390625 -3.519531 0.390625 -3.546875 0.390625 -3.546875 C 0.398438 -3.554688 0.410156 -3.566406 0.421875 -3.578125 C 0.429688 -3.585938 0.441406 -3.59375 0.453125 -3.59375 L 1.234375 -4.171875 C 1.253906 -4.191406 1.269531 -4.195312 1.28125 -4.1875 C 1.300781 -4.175781 1.335938 -4.160156 1.390625 -4.140625 C 1.453125 -4.128906 1.484375 -4.097656 1.484375 -4.046875 L 1.484375 -0.625 C 1.484375 -0.414062 1.554688 -0.28125 1.703125 -0.21875 C 1.785156 -0.1875 1.828125 -0.15625 1.828125 -0.125 C 1.828125 -0.0390625 1.804688 0 1.765625 0 Z M 0.46875 0 "/></g></g></g><g fill="#000000" fill-opacity="1"><g transform="translate(143.533394, 150.964984)"><g><path d="M 0.453125 0 C 0.410156 0 0.390625 -0.0234375 0.390625 -0.078125 C 0.390625 -0.128906 0.398438 -0.160156 0.421875 -0.171875 C 0.453125 -0.191406 0.484375 -0.207031 0.515625 -0.21875 C 0.554688 -0.238281 0.585938 -0.257812 0.609375 -0.28125 C 0.703125 -0.363281 0.742188 -0.460938 0.734375 -0.578125 C 0.734375 -0.691406 0.734375 -0.753906 0.734375 -0.765625 L 0.734375 -3.09375 C 0.734375 -3.1875 0.707031 -3.253906 0.65625 -3.296875 C 0.613281 -3.335938 0.566406 -3.359375 0.515625 -3.359375 C 0.460938 -3.359375 0.425781 -3.363281 0.40625 -3.375 C 0.394531 -3.394531 0.382812 -3.410156 0.375 -3.421875 C 0.375 -3.429688 0.375 -3.441406 0.375 -3.453125 C 0.375 -3.460938 0.375 -3.472656 0.375 -3.484375 C 0.375 -3.503906 0.375 -3.519531 0.375 -3.53125 C 0.375 -3.539062 0.375 -3.546875 0.375 -3.546875 C 0.382812 -3.554688 0.394531 -3.566406 0.40625 -3.578125 C 0.414062 -3.585938 0.425781 -3.59375 0.4375 -3.59375 L 1.21875 -4.171875 C 1.226562 -4.179688 1.257812 -4.1875 1.3125 -4.1875 C 1.363281 -4.1875 1.398438 -4.179688 1.421875 -4.171875 C 1.453125 -4.160156 1.46875 -4.117188 1.46875 -4.046875 L 1.46875 -3.734375 L 1.6875 -3.859375 L 1.828125 -3.921875 C 2.234375 -4.128906 2.613281 -4.234375 2.96875 -4.234375 C 3.320312 -4.234375 3.671875 -4.109375 4.015625 -3.859375 C 4.171875 -3.742188 4.296875 -3.601562 4.390625 -3.4375 C 4.492188 -3.269531 4.546875 -3.101562 4.546875 -2.9375 L 4.546875 -0.578125 C 4.546875 -0.515625 4.5625 -0.445312 4.59375 -0.375 C 4.625 -0.300781 4.675781 -0.25 4.75 -0.21875 C 4.832031 -0.1875 4.875 -0.15625 4.875 -0.125 C 4.875 -0.0390625 4.859375 0 4.828125 0 L 3.53125 0 C 3.5 0 3.484375 -0.0234375 3.484375 -0.078125 C 3.484375 -0.128906 3.492188 -0.160156 3.515625 -0.171875 C 3.546875 -0.191406 3.578125 -0.207031 3.609375 -0.21875 C 3.648438 -0.238281 3.679688 -0.257812 3.703125 -0.28125 C 3.722656 -0.300781 3.742188 -0.328125 3.765625 -0.359375 C 3.785156 -0.390625 3.796875 -0.421875 3.796875 -0.453125 C 3.804688 -0.492188 3.8125 -0.523438 3.8125 -0.546875 C 3.8125 -0.566406 3.8125 -0.601562 3.8125 -0.65625 C 3.8125 -0.71875 3.8125 -0.753906 3.8125 -0.765625 L 3.8125 -2.828125 C 3.8125 -2.992188 3.753906 -3.144531 3.640625 -3.28125 C 3.410156 -3.53125 3.09375 -3.65625 2.6875 -3.65625 C 2.28125 -3.65625 1.875 -3.550781 1.46875 -3.34375 L 1.46875 -0.578125 C 1.46875 -0.515625 1.484375 -0.445312 1.515625 -0.375 C 1.546875 -0.300781 1.601562 -0.25 1.6875 -0.21875 C 1.769531 -0.1875 1.8125 -0.15625 1.8125 -0.125 C 1.8125 -0.0390625 1.789062 0 1.75 0 Z M 0.453125 0 "/></g></g></g><g fill="#000000" fill-opacity="1"><g transform="translate(149.012321, 150.964984)"><g><path d="M 1.28125 -1.171875 C 1.1875 -1.140625 1.203125 -1.078125 1.328125 -0.984375 C 1.460938 -0.898438 1.664062 -0.828125 1.9375 -0.765625 C 2.21875 -0.703125 2.453125 -0.65625 2.640625 -0.625 C 2.835938 -0.59375 3.039062 -0.546875 3.25 -0.484375 C 3.46875 -0.421875 3.648438 -0.347656 3.796875 -0.265625 C 3.953125 -0.191406 4.082031 -0.0859375 4.1875 0.046875 C 4.289062 0.191406 4.34375 0.359375 4.34375 0.546875 C 4.34375 0.734375 4.296875 0.90625 4.203125 1.0625 C 3.921875 1.5625 3.242188 1.8125 2.171875 1.8125 C 1.679688 1.8125 1.238281 1.691406 0.84375 1.453125 C 0.457031 1.222656 0.222656 0.894531 0.140625 0.46875 L 0.140625 0.40625 C 0.140625 0.382812 0.140625 0.367188 0.140625 0.359375 L 0.890625 -0.296875 C 0.921875 -0.296875 0.953125 -0.273438 0.984375 -0.234375 C 1.023438 -0.191406 1.046875 -0.160156 1.046875 -0.140625 C 1.046875 -0.117188 1.019531 -0.0820312 0.96875 -0.03125 C 0.925781 0.0078125 0.90625 0.132812 0.90625 0.34375 C 0.90625 0.5625 0.992188 0.753906 1.171875 0.921875 C 1.347656 1.097656 1.554688 1.21875 1.796875 1.28125 C 2.316406 1.363281 2.765625 1.335938 3.140625 1.203125 C 3.265625 1.148438 3.367188 1.070312 3.453125 0.96875 C 3.535156 0.863281 3.578125 0.753906 3.578125 0.640625 C 3.578125 0.523438 3.519531 0.429688 3.40625 0.359375 C 3.238281 0.265625 2.832031 0.144531 2.1875 0 C 1.539062 -0.15625 1.0625 -0.300781 0.75 -0.4375 C 0.675781 -0.46875 0.640625 -0.488281 0.640625 -0.5 C 0.640625 -0.519531 0.679688 -0.613281 0.765625 -0.78125 C 0.859375 -0.945312 0.960938 -1.113281 1.078125 -1.28125 C 0.878906 -1.425781 0.71875 -1.609375 0.59375 -1.828125 C 0.46875 -2.054688 0.40625 -2.296875 0.40625 -2.546875 C 0.40625 -3.046875 0.5625 -3.445312 0.875 -3.75 C 1.1875 -4.0625 1.570312 -4.21875 2.03125 -4.21875 C 2.488281 -4.21875 2.867188 -4.070312 3.171875 -3.78125 L 3.1875 -3.796875 C 3.300781 -4.035156 3.359375 -4.160156 3.359375 -4.171875 C 3.367188 -4.179688 3.378906 -4.1875 3.390625 -4.1875 L 4.125 -4.1875 C 4.144531 -4.1875 4.164062 -4.164062 4.1875 -4.125 C 4.207031 -4.082031 4.210938 -4.054688 4.203125 -4.046875 C 4.128906 -4.015625 4.046875 -3.976562 3.953125 -3.9375 C 3.753906 -3.851562 3.585938 -3.675781 3.453125 -3.40625 C 3.585938 -3.15625 3.65625 -2.890625 3.65625 -2.609375 C 3.65625 -2.148438 3.5 -1.765625 3.1875 -1.453125 C 2.875 -1.140625 2.472656 -0.984375 1.984375 -0.984375 C 1.742188 -0.984375 1.507812 -1.046875 1.28125 -1.171875 Z M 1.78125 -3.6875 C 1.21875 -3.6875 0.9375 -3.378906 0.9375 -2.765625 C 0.9375 -2.410156 1.070312 -2.109375 1.34375 -1.859375 C 1.613281 -1.617188 1.90625 -1.5 2.21875 -1.5 C 2.539062 -1.5 2.765625 -1.566406 2.890625 -1.703125 C 3.023438 -1.847656 3.09375 -2.085938 3.09375 -2.421875 C 3.09375 -2.753906 2.96875 -3.046875 2.71875 -3.296875 C 2.46875 -3.554688 2.15625 -3.6875 1.78125 -3.6875 Z M 1.78125 -3.6875 "/></g></g></g><g fill="#000000" fill-opacity="1"><g transform="translate(153.761709, 150.964984)"><g/></g></g><g fill="#000000" fill-opacity="1"><g transform="translate(156.326873, 150.964984)"><g><path d="M 1.515625 -0.046875 C 1.429688 -0.0664062 1.335938 -0.09375 1.234375 -0.125 C 1.128906 -0.164062 1.0625 -0.1875 1.03125 -0.1875 L 0.96875 -0.1875 C 0.863281 -0.1875 0.785156 -0.128906 0.734375 -0.015625 C 0.734375 -0.00390625 0.734375 0 0.734375 0 L 0.59375 0 C 0.582031 0 0.570312 -0.00390625 0.5625 -0.015625 L 0.1875 -1.3125 C 0.175781 -1.375 0.222656 -1.40625 0.328125 -1.40625 C 0.367188 -1.40625 0.394531 -1.394531 0.40625 -1.375 C 0.414062 -1.363281 0.425781 -1.351562 0.4375 -1.34375 C 0.445312 -1.34375 0.460938 -1.328125 0.484375 -1.296875 C 0.867188 -0.816406 1.429688 -0.578125 2.171875 -0.578125 C 2.566406 -0.578125 2.894531 -0.679688 3.15625 -0.890625 C 3.414062 -1.097656 3.546875 -1.398438 3.546875 -1.796875 C 3.546875 -2.066406 3.5 -2.269531 3.40625 -2.40625 C 3.320312 -2.539062 3.253906 -2.640625 3.203125 -2.703125 C 3.085938 -2.847656 2.804688 -3.046875 2.359375 -3.296875 C 1.910156 -3.546875 1.550781 -3.769531 1.28125 -3.96875 C 0.582031 -4.476562 0.234375 -5 0.234375 -5.53125 C 0.234375 -6.070312 0.398438 -6.488281 0.734375 -6.78125 C 1.066406 -7.070312 1.507812 -7.21875 2.0625 -7.21875 C 2.375 -7.21875 2.703125 -7.132812 3.046875 -6.96875 C 3.210938 -6.882812 3.332031 -6.828125 3.40625 -6.796875 C 3.476562 -6.773438 3.53125 -6.789062 3.5625 -6.84375 C 3.59375 -6.90625 3.613281 -6.9375 3.625 -6.9375 C 3.75 -6.957031 3.8125 -6.9375 3.8125 -6.875 L 3.953125 -5.46875 C 3.953125 -5.445312 3.882812 -5.4375 3.75 -5.4375 C 3.726562 -5.4375 3.707031 -5.460938 3.6875 -5.515625 C 3.601562 -5.804688 3.394531 -6.050781 3.0625 -6.25 C 2.726562 -6.445312 2.394531 -6.546875 2.0625 -6.546875 C 1.34375 -6.546875 0.984375 -6.253906 0.984375 -5.671875 C 0.984375 -5.242188 1.367188 -4.820312 2.140625 -4.40625 L 2.984375 -3.953125 C 3.492188 -3.671875 3.847656 -3.363281 4.046875 -3.03125 C 4.253906 -2.707031 4.359375 -2.359375 4.359375 -1.984375 L 4.359375 -1.9375 C 4.285156 -1.425781 4.203125 -1.082031 4.109375 -0.90625 C 3.929688 -0.601562 3.6875 -0.363281 3.375 -0.1875 C 3.0625 -0.0078125 2.707031 0.078125 2.3125 0.078125 C 2.09375 0.078125 1.910156 0.0546875 1.765625 0.015625 Z M 1.515625 -0.046875 "/></g></g></g><g fill="#000000" fill-opacity="1"><g transform="translate(161.181737, 150.964984)"><g><path d="M 0.953125 -4.96875 C 0.960938 -5.03125 1.015625 -5.0625 1.109375 -5.0625 C 1.210938 -5.0625 1.265625 -5.03125 1.265625 -4.96875 L 1.265625 -4.1875 L 2.046875 -4.1875 C 2.191406 -4.1875 2.265625 -4.164062 2.265625 -4.125 L 2.265625 -3.75 C 2.265625 -3.707031 2.191406 -3.6875 2.046875 -3.6875 L 1.265625 -3.6875 L 1.265625 -0.953125 C 1.265625 -0.609375 1.367188 -0.414062 1.578125 -0.375 C 1.734375 -0.34375 1.894531 -0.398438 2.0625 -0.546875 C 2.125 -0.609375 2.164062 -0.625 2.1875 -0.59375 C 2.21875 -0.5625 2.238281 -0.535156 2.25 -0.515625 C 2.269531 -0.503906 2.28125 -0.488281 2.28125 -0.46875 C 2.28125 -0.445312 2.28125 -0.4375 2.28125 -0.4375 C 2.28125 -0.414062 2.265625 -0.390625 2.234375 -0.359375 L 2.140625 -0.28125 C 1.828125 -0.0078125 1.523438 0.109375 1.234375 0.078125 C 0.953125 0.0546875 0.753906 -0.109375 0.640625 -0.421875 C 0.578125 -0.585938 0.546875 -0.796875 0.546875 -1.046875 L 0.546875 -3.6875 L 0.34375 -3.6875 C 0.1875 -3.6875 0.109375 -3.707031 0.109375 -3.75 L 0.109375 -4.125 C 0.109375 -4.164062 0.171875 -4.1875 0.296875 -4.1875 C 0.515625 -4.1875 0.671875 -4.257812 0.765625 -4.40625 C 0.859375 -4.5625 0.921875 -4.75 0.953125 -4.96875 Z M 0.953125 -4.96875 "/></g></g></g><g fill="#000000" fill-opacity="1"><g transform="translate(163.834797, 150.964984)"><g><path d="M 1.421875 -3.5 C 1.234375 -3.382812 1.09375 -3.226562 1 -3.03125 C 0.914062 -2.832031 0.875 -2.582031 0.875 -2.28125 C 0.875 -1.988281 0.957031 -1.691406 1.125 -1.390625 C 1.289062 -1.085938 1.515625 -0.847656 1.796875 -0.671875 C 2.085938 -0.503906 2.375 -0.421875 2.65625 -0.421875 C 2.945312 -0.421875 3.179688 -0.484375 3.359375 -0.609375 C 3.546875 -0.742188 3.6875 -0.910156 3.78125 -1.109375 C 3.875 -1.316406 3.921875 -1.546875 3.921875 -1.796875 C 3.921875 -2.316406 3.753906 -2.757812 3.421875 -3.125 C 3.097656 -3.5 2.65625 -3.6875 2.09375 -3.6875 C 1.84375 -3.6875 1.617188 -3.625 1.421875 -3.5 Z M 0.890625 -0.53125 C 0.691406 -0.71875 0.53125 -0.941406 0.40625 -1.203125 C 0.289062 -1.472656 0.234375 -1.785156 0.234375 -2.140625 C 0.234375 -2.503906 0.328125 -2.851562 0.515625 -3.1875 C 0.703125 -3.53125 0.96875 -3.796875 1.3125 -3.984375 C 1.65625 -4.179688 2.015625 -4.28125 2.390625 -4.28125 C 3.066406 -4.28125 3.601562 -4.066406 4 -3.640625 C 4.40625 -3.210938 4.609375 -2.691406 4.609375 -2.078125 C 4.617188 -1.472656 4.410156 -0.960938 3.984375 -0.546875 C 3.554688 -0.128906 3.019531 0.078125 2.375 0.078125 C 2.09375 0.078125 1.820312 0.0234375 1.5625 -0.078125 C 1.3125 -0.191406 1.085938 -0.34375 0.890625 -0.53125 Z M 0.890625 -0.53125 "/></g></g></g><g fill="#000000" fill-opacity="1"><g transform="translate(169.001692, 150.964984)"><g><path d="M 0.375 -3.453125 L 0.390625 -3.53125 C 0.390625 -3.550781 0.394531 -3.566406 0.40625 -3.578125 C 0.425781 -3.585938 0.4375 -3.59375 0.4375 -3.59375 L 1.234375 -4.171875 C 1.242188 -4.179688 1.273438 -4.1875 1.328125 -4.1875 C 1.378906 -4.1875 1.414062 -4.179688 1.4375 -4.171875 C 1.457031 -4.160156 1.46875 -4.117188 1.46875 -4.046875 L 1.46875 -3.296875 C 1.488281 -3.328125 1.515625 -3.359375 1.546875 -3.390625 C 1.753906 -3.648438 1.972656 -3.851562 2.203125 -4 C 2.429688 -4.144531 2.691406 -4.21875 2.984375 -4.21875 C 3.078125 -4.21875 3.128906 -4.207031 3.140625 -4.1875 C 3.191406 -4.050781 3.234375 -3.921875 3.265625 -3.796875 L 3.390625 -3.28125 C 3.398438 -3.25 3.378906 -3.21875 3.328125 -3.1875 C 3.273438 -3.15625 3.234375 -3.140625 3.203125 -3.140625 C 3.171875 -3.148438 3.140625 -3.179688 3.109375 -3.234375 L 3.0625 -3.3125 C 2.90625 -3.457031 2.722656 -3.515625 2.515625 -3.484375 C 2.304688 -3.453125 2.109375 -3.375 1.921875 -3.25 C 1.734375 -3.125 1.59375 -2.992188 1.5 -2.859375 C 1.5 -2.847656 1.492188 -2.832031 1.484375 -2.8125 C 1.472656 -2.800781 1.46875 -2.789062 1.46875 -2.78125 L 1.46875 -0.765625 C 1.46875 -0.753906 1.46875 -0.722656 1.46875 -0.671875 C 1.46875 -0.628906 1.46875 -0.597656 1.46875 -0.578125 C 1.488281 -0.390625 1.550781 -0.273438 1.65625 -0.234375 C 1.757812 -0.191406 1.8125 -0.15625 1.8125 -0.125 C 1.8125 -0.0390625 1.796875 0 1.765625 0 L 0.453125 0 C 0.421875 0 0.40625 -0.0234375 0.40625 -0.078125 C 0.40625 -0.128906 0.414062 -0.160156 0.4375 -0.171875 C 0.457031 -0.191406 0.484375 -0.207031 0.515625 -0.21875 C 0.554688 -0.238281 0.585938 -0.257812 0.609375 -0.28125 C 0.648438 -0.320312 0.679688 -0.367188 0.703125 -0.421875 C 0.734375 -0.484375 0.75 -0.550781 0.75 -0.625 C 0.75 -0.707031 0.75 -0.753906 0.75 -0.765625 L 0.75 -3.09375 C 0.75 -3.1875 0.722656 -3.253906 0.671875 -3.296875 C 0.628906 -3.335938 0.582031 -3.359375 0.53125 -3.359375 C 0.476562 -3.359375 0.441406 -3.367188 0.421875 -3.390625 C 0.390625 -3.410156 0.375 -3.429688 0.375 -3.453125 Z M 0.375 -3.453125 "/></g></g></g><g fill="#000000" fill-opacity="1"><g transform="translate(172.788616, 150.964984)"><g><path d="M 3.390625 -3.046875 C 3.210938 -3.546875 2.835938 -3.796875 2.265625 -3.796875 C 2.003906 -3.796875 1.765625 -3.722656 1.546875 -3.578125 C 1.328125 -3.441406 1.160156 -3.265625 1.046875 -3.046875 C 0.929688 -2.835938 0.875 -2.632812 0.875 -2.4375 C 0.875 -2.25 0.878906 -2.160156 0.890625 -2.171875 L 3.375 -3.03125 L 3.375 -3.0625 Z M 0.984375 -1.703125 C 1.109375 -1.359375 1.320312 -1.085938 1.625 -0.890625 C 1.925781 -0.691406 2.265625 -0.59375 2.640625 -0.59375 C 3.128906 -0.59375 3.570312 -0.820312 3.96875 -1.28125 C 4.03125 -1.332031 4.117188 -1.300781 4.234375 -1.1875 C 4.242188 -1.175781 4.242188 -1.160156 4.234375 -1.140625 C 3.898438 -0.679688 3.640625 -0.382812 3.453125 -0.25 C 3.140625 -0.03125 2.78125 0.078125 2.375 0.078125 C 2.09375 0.078125 1.820312 0.0195312 1.5625 -0.09375 C 1.03125 -0.320312 0.648438 -0.695312 0.421875 -1.21875 C 0.296875 -1.476562 0.234375 -1.785156 0.234375 -2.140625 C 0.234375 -2.503906 0.328125 -2.851562 0.515625 -3.1875 C 0.703125 -3.53125 0.96875 -3.796875 1.3125 -3.984375 C 1.65625 -4.179688 2.054688 -4.28125 2.515625 -4.28125 C 3.054688 -4.28125 3.546875 -4.023438 3.984375 -3.515625 C 4.191406 -3.253906 4.296875 -3.050781 4.296875 -2.90625 Z M 0.984375 -1.703125 "/></g></g></g></svg>